<?xml version="1.0" standalone="no"?>
<!DOCTYPE svg PUBLIC "-//W3C//DTD SVG 1.1//EN" "http://www.w3.org/Graphics/SVG/1.1/DTD/svg11.dtd" >
<svg xmlns="http://www.w3.org/2000/svg" xmlns:xlink="http://www.w3.org/1999/xlink" version="1.1">
<metadata>
Created by FontForge 20161003 at Tue May 15 18:05:39 2018
 By www-data
Copyright (c) 2009 by neogrey creative. All rights reserved.
</metadata>
<defs>
<font id="NeogreyMedium" horiz-adv-x="500" >
  <font-face 
    font-family="NeogreyMedium"
    font-weight="500"
    font-stretch="normal"
    units-per-em="1000"
    panose-1="2 15 6 5 5 2 0 2 0 3"
    ascent="800"
    descent="-200"
    x-height="520"
    cap-height="800"
    bbox="-177 -260 1319 1031"
    underline-thickness="50"
    underline-position="-150"
    unicode-range="U+0020-E004"
  />
<missing-glyph horiz-adv-x="341" 
 />
    <glyph glyph-name=".notdef" horiz-adv-x="341" 
 />
    <glyph glyph-name=".null" horiz-adv-x="0" 
 />
    <glyph glyph-name="nonmarkingreturn" horiz-adv-x="333" 
 />
    <glyph glyph-name="space" unicode=" " horiz-adv-x="341" 
 />
    <glyph glyph-name="exclam" unicode="!" horiz-adv-x="181" 
d="M0 216v511q0 21 14.5 35.5t36.5 14.5q20 0 35 -14.5t15 -35.5v-511q0 -21 -15 -35.5t-35 -14.5q-22 0 -36.5 14.5t-14.5 35.5zM0 51v37q0 21 14.5 35.5t36.5 14.5q20 0 35 -14.5t15 -35.5v-37q0 -21 -15 -35.5t-35 -14.5q-22 0 -36.5 14.5t-14.5 35.5z" />
    <glyph glyph-name="quotedbl" unicode="&#x22;" horiz-adv-x="311" 
d="M50 799q20 0 35.5 -14.5t15.5 -34.5v-143q0 -21 -15 -36t-36 -15t-35.5 14.5t-14.5 36.5v143q0 20 14.5 34.5t35.5 14.5zM176 799q20 0 35 -14.5t15 -34.5v-143q0 -21 -15 -36t-35 -15q-21 0 -35.5 14.5t-14.5 36.5v143q0 20 14.5 34.5t35.5 14.5z" />
    <glyph glyph-name="numbersign" unicode="#" horiz-adv-x="577" 
d="M400 317h42q20 0 35 -15.5t15 -35.5q0 -21 -15 -35.5t-35 -14.5h-42v-42q0 -21 -15 -35.5t-35 -14.5q-21 0 -35.5 14.5t-14.5 35.5v42h-107v-42q0 -21 -15 -35.5t-35 -14.5q-22 0 -36.5 14.5t-14.5 35.5v42h-42q-21 0 -35.5 14.5t-14.5 35.5t14.5 36t35.5 15h42v106h-42
q-21 0 -35.5 14.5t-14.5 36.5q0 20 14.5 35t35.5 15h42v42q0 20 15 35t36 15q19 0 34.5 -15t15.5 -35v-42h107v42q0 20 14.5 35t35.5 15q20 0 35 -15t15 -35v-42h42q20 0 35 -15t15 -35q0 -22 -15 -36.5t-35 -14.5h-42v-106zM193 423v-106h107v106h-107z" />
    <glyph glyph-name="dollar" unicode="$" horiz-adv-x="756" 
d="M170 777h134v48q0 22 14.5 36.5t36.5 14.5q20 0 35 -15t15 -36v-48h228q21 0 35.5 -14.5t14.5 -35.5q0 -20 -14.5 -35t-35.5 -15h-463q-28 0 -47.5 -19.5t-19.5 -47.5v-104q0 -28 19.5 -47.5t47.5 -19.5h347q69 0 117.5 -49t48.5 -118v-104q0 -69 -48.5 -118t-117.5 -49
h-112v-43q0 -21 -15 -35.5t-35 -14.5q-22 0 -36.5 14.5t-14.5 35.5v43h-251q-21 0 -35.5 14.5t-14.5 35.5t14.5 35t35.5 14h464q28 0 47.5 20t19.5 48v104q0 28 -19.5 47.5t-47.5 19.5h-347q-69 0 -118 49t-49 118v104q0 69 49 118t118 49z" />
    <glyph glyph-name="percent" unicode="%" horiz-adv-x="937" 
d="M166 78l427 674q13 24 43 24q13 0 26 -8q23 -13 23 -43q0 -16 -8 -27q-80 -126 -227.5 -359t-199.5 -316q-15 -23 -42 -23q-16 0 -28 8q-22 16 -22 42q0 16 8 28zM620 394h61q70 0 119 -49t49 -119v-58q0 -69 -49 -118t-119 -49h-61q-69 0 -118 49t-49 118v58
q0 70 49 119t118 49zM554 226v-58q0 -28 19.5 -47.5t46.5 -19.5h61q28 0 47.5 19.5t19.5 47.5v58q0 28 -19.5 47.5t-47.5 19.5h-61q-27 0 -46.5 -19.5t-19.5 -47.5zM168 777h61q69 0 118 -49t49 -118v-59q0 -69 -49 -118t-118 -49h-61q-70 0 -118.5 49t-48.5 118v59
q0 69 48.5 118t118.5 49zM101 610v-59q0 -27 19.5 -46.5t47.5 -19.5h61q27 0 46.5 19.5t19.5 46.5v59q0 27 -19.5 47t-46.5 20h-61q-28 0 -47.5 -20t-19.5 -47z" />
    <glyph glyph-name="ampersand" unicode="&#x26;" horiz-adv-x="694" 
d="M214 412l273 -277q7 11 7 27v58q0 21 14.5 36t36.5 15q21 0 36 -15t15 -36v-58q0 -59 -36 -103l34 -33q15 -15 15 -37t-17 -36q-14 -15 -34 -15q-21 0 -36 15l-50 52q-20 -6 -40 -6h-270q-67 0 -114.5 48t-47.5 115v58q0 55 33 99t84 58q-17 48 -17 90q0 52 22 88
q25 41 68.5 60.5t85.5 19.5h188q22 0 36.5 -14t14.5 -36q0 -21 -14.5 -36t-36.5 -15h-185q-48 -7 -61 -32q-10 -15 -10 -44q0 -24 6 -46zM162 100h216l-178 182h-38q-25 0 -43 -18t-18 -44v-58q0 -26 18 -44t43 -18z" />
    <glyph glyph-name="quotesingle" unicode="'" horiz-adv-x="186" 
d="M51 798q20 0 35 -14.5t15 -34.5v-143q0 -21 -15 -36t-35 -15q-22 0 -36.5 14.5t-14.5 36.5v143q0 20 14.5 34.5t36.5 14.5z" />
    <glyph glyph-name="parenleft" unicode="(" horiz-adv-x="261" 
d="M127 825q21 0 35 -14.5t14 -34.5t-14 -34.5t-35 -14.5h-28v-747h28q21 0 35 -14.5t14 -34.5q0 -21 -14 -35.5t-35 -14.5h-77q-21 0 -35.5 14.5t-14.5 35.5v845q0 20 14.5 34.5t35.5 14.5h77z" />
    <glyph glyph-name="parenright" unicode=")" horiz-adv-x="261" 
d="M49 825h78q20 0 34.5 -14.5t14.5 -34.5v-845q0 -21 -14.5 -35.5t-34.5 -14.5h-78q-20 0 -34.5 14.5t-14.5 35.5q0 20 14.5 34.5t34.5 14.5h29v747h-29q-20 0 -34.5 14.5t-14.5 34.5t14.5 34.5t34.5 14.5z" />
    <glyph glyph-name="asterisk" unicode="*" horiz-adv-x="465" 
d="M299 616h50q19 0 32.5 -13t13.5 -32t-13.5 -32t-32.5 -13h-51l36 -36q14 -13 14.5 -31.5t-13.5 -33.5q-13 -13 -32 -13t-32 13l-37 37v-51q0 -20 -12.5 -32.5t-32.5 -12.5q-18 0 -31 12.5t-13 32.5v51q-6 -5 -12 -11.5t-13.5 -14l-11.5 -11.5q-13 -13 -32 -13t-32 13
q-14 15 -13.5 33.5t14.5 31.5l36 36h-51q-19 0 -32.5 13t-13.5 32t13.5 32t32.5 13h50l-35 35q-14 13 -14 32t13 33q14 13 33 13t32 -14l7 -7q7 -8 15 -16t14 -13v51q0 19 13 32.5t31 13.5q20 0 32.5 -13t12.5 -33v-51l36 36q13 14 32 14t33 -13q13 -14 13 -33t-14 -32z" />
    <glyph glyph-name="plus" unicode="+" horiz-adv-x="523" 
d="M268 340h120q21 0 35.5 -14t14.5 -35q0 -20 -14.5 -34.5t-35.5 -14.5h-120v-121q0 -20 -14.5 -34t-34.5 -14t-34.5 14t-14.5 34v121h-120q-21 0 -35.5 14.5t-14.5 34.5q0 21 14.5 35t35.5 14h120v121q0 19 14.5 33.5t34.5 14.5t34.5 -14t14.5 -34v-121z" />
    <glyph glyph-name="comma" unicode="," horiz-adv-x="225" 
d="M50 100h40q20 0 35 -14t15 -35v-79q0 -21 -15 -36t-35 -15q-22 0 -36.5 14.5t-14.5 36.5v29q-16 3 -27.5 17t-11.5 32q0 20 14.5 35t35.5 15z" />
    <glyph glyph-name="hyphen" unicode="-" horiz-adv-x="377" 
d="M242 322h-192q-21 0 -35.5 14t-14.5 35t14.5 35.5t35.5 14.5h192q21 0 35.5 -14.5t14.5 -35.5t-14.5 -35t-35.5 -14z" />
    <glyph glyph-name="period" unicode="." horiz-adv-x="171" 
d="M-1 50v32q0 21 14.5 35.5t36.5 14.5q20 0 35 -14.5t15 -35.5v-32q0 -20 -15 -35t-35 -15q-21 0 -36 15t-15 35z" />
    <glyph glyph-name="slash" unicode="/" horiz-adv-x="536" 
d="M-3 78l427 674q13 24 43 24q14 0 27 -8q22 -13 22 -43q0 -16 -8 -27q-80 -126 -227.5 -359t-199.5 -316q-15 -23 -42 -23q-16 0 -28 8q-22 16 -22 43q0 14 8 27z" />
    <glyph glyph-name="zero" unicode="0" horiz-adv-x="731" 
d="M464 777q69 0 118 -49t49 -119v-441q0 -70 -49 -119t-118 -49h-296q-70 0 -119 49t-49 119v441q0 70 49 119t119 49h296zM168 100h285q-21 28 -152.5 208.5t-199.5 275.5v-416q0 -28 19.5 -48t47.5 -20zM531 165v444q0 28 -20 48t-47 20h-296q-6 0 -10 -1
q69 -95 189.5 -260t183.5 -251z" />
    <glyph glyph-name="one" unicode="1" horiz-adv-x="406" 
d="M291 610v-559q0 -19 -15.5 -34.5t-34.5 -15.5q-21 0 -35.5 15t-14.5 35v559q0 28 -19.5 47.5t-47.5 19.5h-90q-22 0 -36.5 14.5t-14.5 35.5t14.5 35.5t36.5 14.5h90q69 0 118 -48.5t49 -118.5z" />
    <glyph glyph-name="two" unicode="2" horiz-adv-x="734" 
d="M163 778h295q68 0 116 -48t48 -116v-136q0 -68 -48 -115.5t-115 -47.5h-295q-26 0 -45 -19t-19 -46v-151h492q20 0 34.5 -14.5t14.5 -35.5q0 -20 -14.5 -34.5t-34.5 -14.5h-541q-20 0 -35.5 14.5t-15.5 34.5v201q0 68 48 116t116 48h295q26 0 45 19t19 45v136
q0 27 -19 45.5t-46 18.5h-295q-27 0 -46 -19t-19 -45v-52q0 -22 -14.5 -36.5t-34.5 -14.5q-21 0 -35.5 14.5t-14.5 36.5v52q0 68 48 116t116 48z" />
    <glyph glyph-name="three" unicode="3" horiz-adv-x="744" 
d="M642 498q0 -65 -44 -118q44 -53 44 -118v-94q0 -70 -49.5 -119t-119.5 -49h-305q-70 0 -119 49.5t-49 118.5v55q0 21 15 35.5t36 14.5t35.5 -14.5t14.5 -35.5v-55q0 -28 20 -48t47 -20h305q28 0 48 20t20 48v94q0 24 -11 43.5t-20 24.5h-343q-19 0 -33.5 13t-17.5 34
q0 22 15 37.5t36 15.5h343q11 9 21 28t10 40v112q0 28 -20 47.5t-48 19.5h-305q-28 0 -47.5 -20t-19.5 -47v-55q0 -21 -14.5 -35.5t-35.5 -14.5q-22 0 -36.5 14.5t-14.5 35.5v55q0 69 49 118.5t119 49.5h305q70 0 119.5 -49t49.5 -119v-112z" />
    <glyph glyph-name="four" unicode="4" horiz-adv-x="775" 
d="M541 727q0 19 15.5 34.5t34.5 15.5q21 0 35.5 -15t14.5 -35v-677q0 -21 -14.5 -35.5t-35.5 -14.5q-20 0 -35 14.5t-15 35.5v260q-33 -14 -67 -14h-305q-70 0 -119 49t-49 119v263q0 20 15 35t36 15t35.5 -15t14.5 -35v-263q0 -28 19.5 -48t47.5 -20h305q28 0 47.5 20
t19.5 48v263z" />
    <glyph glyph-name="five" unicode="5" horiz-adv-x="734" 
d="M105 607v-131h365q70 0 119 -49t49 -118v-142q0 -69 -49 -118t-119 -49h-303q-69 0 -118 49t-49 118v83q0 21 14.5 35.5t35.5 14.5t36 -14.5t15 -35.5v-83q0 -27 19.5 -47t46.5 -20h303q28 0 47.5 20t19.5 47v142q0 27 -19.5 46.5t-47.5 19.5h-415q-21 0 -35.5 15
t-14.5 35v182q0 69 48.5 118t117.5 49h398q20 0 35 -14.5t15 -35.5q0 -20 -15 -35t-35 -15h-398q-28 0 -47 -19.5t-19 -47.5z" />
    <glyph glyph-name="six" unicode="6" horiz-adv-x="757" 
d="M645 280v-113q0 -69 -49 -118t-118 -49h-310q-70 0 -119 49t-49 117v445q0 68 49 117t118 49h385q20 0 35 -14.5t15 -35.5t-15 -35.5t-35 -14.5h-385q-28 0 -47 -19.5t-19 -46.5v-164h377q69 0 118 -48.5t49 -118.5zM545 167v113q0 28 -20 47.5t-47 19.5h-377v-181
q0 -27 19.5 -46.5t47.5 -19.5h310q27 0 47 20t20 47z" />
    <glyph glyph-name="seven" unicode="7" horiz-adv-x="563" 
d="M-23 779h479q28 0 44 -27q12 -20 -1 -51q-24 -40 -174.5 -292.5t-228.5 -383.5q-10 -19 -31 -24t-40 6q-24 14 -24 44q0 3 1.5 8t3.5 11t3 8l356 599h-388q-22 0 -37 14.5t-15 36.5q0 21 15 36t37 15z" />
    <glyph glyph-name="eight" unicode="8" horiz-adv-x="758" 
d="M671 505q0 -70 -47 -117q48 -48 48 -117v-104q0 -69 -49 -118t-118 -49h-338q-69 0 -118 48.5t-49 117.5v105q0 68 48 116q-48 50 -48 117v105q0 69 48.5 118t117.5 49h339q69 0 117.5 -49t48.5 -118v-104zM166 438h340q27 0 46.5 19.5t19.5 47.5v104q0 28 -19.5 47.5
t-47.5 19.5h-339q-27 0 -46.5 -19.5t-19.5 -47.5v-105q0 -27 19.5 -46.5t46.5 -19.5zM506 338h-340q-27 0 -46 -19.5t-19 -47.5v-105q0 -27 19.5 -46.5t46.5 -19.5h338q28 0 47.5 20t19.5 47v104q0 28 -19.5 47.5t-46.5 19.5z" />
    <glyph glyph-name="nine" unicode="9" horiz-adv-x="758" 
d="M0 497v114q0 69 48.5 117.5t118.5 48.5h311q69 0 118 -48.5t49 -117.5v-444q0 -69 -49 -118t-118 -49h-384q-35 0 -49.5 25t0 50t49.5 25h384q27 0 47 20t20 47v163h-378q-70 0 -118.5 48.5t-48.5 118.5zM101 611v-114q0 -28 19 -47.5t47 -19.5h378v181q0 27 -20 46.5
t-47 19.5h-311q-28 0 -47 -19.5t-19 -46.5z" />
    <glyph glyph-name="colon" unicode=":" horiz-adv-x="135" 
d="M0 342v69q0 21 14.5 35.5t36.5 14.5q20 0 35 -14.5t15 -35.5v-69q0 -20 -15.5 -35t-34.5 -15q-21 0 -36 15t-15 35zM0 78v68q0 21 14.5 35.5t36.5 14.5q20 0 35 -14.5t15 -35.5v-68q0 -20 -15 -35.5t-35 -15.5q-21 0 -36 15t-15 36z" />
    <glyph glyph-name="semicolon" unicode=";" horiz-adv-x="225" 
d="M50 184h40q20 0 35 -14.5t15 -34.5v-80q0 -21 -15 -35.5t-35 -14.5q-21 0 -35.5 14.5t-14.5 35.5v29q-17 4 -28.5 18t-11.5 32q0 20 14.5 35t35.5 15zM29 342v69q0 21 14.5 35.5t36.5 14.5q20 0 35 -14.5t15 -35.5v-69q0 -20 -15 -35t-35 -15q-21 0 -36 15t-15 35z" />
    <glyph glyph-name="less" unicode="&#x3c;" 
 />
    <glyph glyph-name="equal" unicode="=" horiz-adv-x="565" 
d="M429 275h-379q-21 0 -35.5 14.5t-14.5 35.5q0 20 14.5 35t35.5 15h379q20 0 35.5 -15t15.5 -35q0 -21 -15 -35.5t-36 -14.5zM429 110h-379q-21 0 -35.5 14.5t-14.5 36.5q0 20 14.5 35t35.5 15h379q20 0 35.5 -15t15.5 -35q0 -21 -15 -36t-36 -15z" />
    <glyph glyph-name="greater" unicode="&#x3e;" 
 />
    <glyph glyph-name="question" unicode="?" horiz-adv-x="699" 
d="M167 774h302q69 0 117.5 -48.5t48.5 -117.5v-37q0 -70 -48.5 -118.5t-117.5 -48.5h-86q-27 0 -46.5 -20t-19.5 -47v-87q0 -22 -14.5 -36.5t-35.5 -14.5q-20 0 -35 15t-15 36v87q0 69 49 118t117 49h86q27 0 46.5 19.5t19.5 47.5v37q0 28 -19.5 47.5t-46.5 19.5h-302
q-28 0 -47 -19.5t-19 -47.5v-54q0 -21 -15 -35.5t-35 -14.5q-22 0 -36.5 14.5t-14.5 35.5v54q0 69 48.5 117.5t118.5 48.5zM217 50v69q0 21 14.5 35.5t35.5 14.5q20 0 35 -14.5t15 -35.5v-69q0 -20 -15 -35t-35 -15q-21 0 -35.5 15t-14.5 35z" />
    <glyph glyph-name="at" unicode="@" horiz-adv-x="800" 
d="M666 -144h-501q-67 0 -116 48t-49 116v335q0 69 48.5 117.5t116.5 48.5h383q69 0 117.5 -48.5t48.5 -117.5v-252q0 -49 -34 -82.5t-83 -34.5h-19q-48 1 -82 34.5t-34 82.5v174q0 7 -5 12.5t-13 5.5h-180q-7 0 -12 -5.5t-5 -12.5v-174q0 -18 17 -18h142q20 0 34.5 -14.5
t14.5 -35.5q0 -20 -14.5 -34.5t-34.5 -14.5h-142q-48 0 -82 34t-34 83v174q3 49 36 82.5t80 33.5h180q48 0 82.5 -34.5t34.5 -81.5v-174q0 -18 17 -18h19q18 0 18 18v252q0 27 -19.5 47t-47.5 20h-383q-28 -1 -47.5 -21t-19.5 -46v-333q0 -27 20 -47t47 -20h501
q20 0 34.5 -14.5t14.5 -34.5q0 -21 -14.5 -35.5t-34.5 -14.5z" />
    <glyph glyph-name="A" unicode="A" horiz-adv-x="852" 
d="M172 801h373q71 0 121.5 -50.5t50.5 -121.5v-576q0 -21 -15.5 -36.5t-36.5 -15.5t-36.5 15.5t-15.5 36.5v304h-510v-304q0 -22 -15.5 -37t-36.5 -15t-36 15.5t-15 36.5v576q0 71 50.5 121.5t121.5 50.5zM103 629v-170h510v170q0 28 -20 48t-48 20h-373q-29 0 -49 -20
t-20 -48z" />
    <glyph glyph-name="B" unicode="B" horiz-adv-x="838" 
d="M172 801h330q38 0 72 -8t66.5 -26.5t51.5 -54t19 -83.5v-115q0 -70 -49 -121q48 -53 48 -120v-100q0 -71 -50.5 -121.5t-121.5 -50.5h-486q-21 0 -36.5 16t-15.5 36v568q0 76 49.5 128t122.5 52zM103 445h436q29 0 49.5 20.5t20.5 48.5v115q0 28 -21 48.5t-49 20.5h-367
q-29 0 -49 -22t-20 -55v-176zM103 105h435q28 0 48.5 20t20.5 48v100q0 29 -20.5 49t-48.5 20h-435v-237z" />
    <glyph glyph-name="C" unicode="C" horiz-adv-x="800" 
d="M172 801h455q22 0 37 -15t15 -37q0 -21 -15 -36.5t-37 -15.5h-455q-28 0 -48.5 -20t-20.5 -48v-456q0 -28 20.5 -48.5t48.5 -20.5h455q22 0 37 -15t15 -36q0 -22 -15 -37t-37 -15h-455q-71 0 -121.5 50.5t-50.5 121.5v456q0 71 50.5 121.5t121.5 50.5z" />
    <glyph glyph-name="D" unicode="D" horiz-adv-x="862" 
d="M52 800h517q71 0 121.5 -50.5t50.5 -121.5v-456q0 -71 -50.5 -121.5t-121.5 -50.5h-517q-22 0 -37 15t-15 37v696q0 20 16 36t36 16zM569 696h-465v-593h465q28 0 48.5 20.5t20.5 48.5v456q0 28 -20.5 48t-48.5 20z" />
    <glyph glyph-name="E" unicode="E" horiz-adv-x="810" 
d="M172 103h455q20 0 36 -15.5t16 -35.5q0 -21 -15.5 -36.5t-36.5 -15.5h-455q-71 0 -121.5 50.5t-50.5 121.5v456q0 71 50.5 121.5t121.5 50.5h455q21 0 36 -15t15 -37q0 -21 -15 -36.5t-36 -15.5h-455q-28 0 -48 -20t-20 -48v-169h511q21 0 36 -15t15 -36t-15 -36.5
t-36 -15.5h-511v-184q0 -28 20 -48.5t48 -20.5z" />
    <glyph glyph-name="F" unicode="F" horiz-adv-x="771" 
d="M173 801h460q21 0 36.5 -15.5t15.5 -36.5q0 -20 -16 -36t-36 -16h-460q-28 0 -48.5 -20t-20.5 -48v-169h478q22 0 37 -15t15 -36q0 -22 -15 -37t-37 -15h-478v-304q0 -21 -15.5 -36.5t-36.5 -15.5q-22 0 -37 15t-15 37v576q0 71 51 121.5t122 50.5z" />
    <glyph glyph-name="G" unicode="G" horiz-adv-x="888" 
d="M177 801h528q22 0 37 -15.5t15 -37.5t-15 -37t-37 -15h-528q-29 0 -50.5 -21.5t-21.5 -51.5v-444q0 -30 21.5 -51.5t50.5 -21.5h402q31 0 52 21.5t21 51.5v177h-371q-22 0 -37.5 15.5t-15.5 37.5t15.5 36t37.5 14h424q22 0 37 -14t15 -36v-230q0 -74 -52 -126t-126 -52
h-402q-73 0 -125 52.5t-52 125.5v444q0 73 52 125.5t125 52.5z" />
    <glyph glyph-name="H" unicode="H" horiz-adv-x="831" 
d="M641 801q22 0 36.5 -15t14.5 -37v-696q0 -22 -14.5 -37t-36.5 -15t-36.5 15t-14.5 37v304h-487v-304q0 -22 -15.5 -37t-36.5 -15q-22 0 -36.5 15t-14.5 37v696q0 22 14.5 37t36.5 15q21 0 36.5 -15t15.5 -37v-289h487v289q0 22 14.5 37t36.5 15z" />
    <glyph glyph-name="I" unicode="I" horiz-adv-x="229" 
d="M0 52v696q0 22 15 37t37 15q21 0 36.5 -15.5t15.5 -36.5v-696q0 -21 -15.5 -36.5t-36.5 -15.5q-22 0 -37 15t-15 37z" />
    <glyph glyph-name="J" unicode="J" horiz-adv-x="812" 
d="M680 748v-576q0 -71 -50.5 -121.5t-121.5 -50.5h-470q-22 0 -36.5 15t-14.5 37q0 21 15 36t36 15h470q28 0 48.5 20.5t20.5 48.5v576q0 22 14.5 37t36.5 15q21 0 36.5 -15t15.5 -37z" />
    <glyph glyph-name="K" unicode="K" horiz-adv-x="800" 
d="M596 735q-8 -31 -23.5 -88t-28 -103.5t-23.5 -87.5q79 -7 116 -58t37 -110v-236q0 -23 -16 -37.5t-37 -14.5t-36 14.5t-15 37.5v236q0 28 -19 46.5t-48 18.5h-399v-301q0 -23 -15.5 -37.5t-35.5 -14.5q-24 0 -38.5 14t-14.5 38v696q0 21 15 36.5t38 15.5q20 0 35.5 -16
t15.5 -36v-291h310q41 148 83 305q13 37 51 37q8 0 12 -1q16 -5 27.5 -18t11.5 -30q0 -8 -3 -15z" />
    <glyph glyph-name="L" unicode="L" horiz-adv-x="771" 
d="M0 172v576q0 22 14.5 37t36.5 15q21 0 36.5 -15t15.5 -37v-576q0 -28 20.5 -48.5t48.5 -20.5h469q21 0 36.5 -15.5t15.5 -35.5q0 -22 -15.5 -37t-36.5 -15h-469q-71 0 -121.5 50.5t-50.5 121.5z" />
    <glyph glyph-name="M" unicode="M" horiz-adv-x="1442" 
d="M765 800h352q71 0 121.5 -50.5t50.5 -121.5v-576q0 -22 -14.5 -37t-36.5 -15t-36.5 15t-14.5 37v576q0 28 -20.5 48t-49.5 20h-352q-29 0 -49 -20t-20 -48v-576q0 -22 -14.5 -37t-36.5 -15t-36.5 15t-14.5 37v576q0 28 -20.5 48t-49.5 20h-352q-29 0 -49 -20t-20 -48
v-576q0 -22 -14.5 -37t-36.5 -15q-21 0 -36.5 15t-15.5 37v576q0 71 50.5 121.5t121.5 50.5h352q66 0 120 -50q48 50 121 50z" />
    <glyph glyph-name="N" unicode="N" horiz-adv-x="864" 
d="M657 52v576q0 28 -20.5 48.5t-48.5 20.5h-416q-29 0 -49.5 -20t-20.5 -49v-576q0 -22 -14.5 -37t-36.5 -15t-36.5 15t-14.5 37v576q0 71 50.5 121.5t121.5 50.5h416q71 0 121.5 -50.5t50.5 -121.5v-576q0 -22 -15 -37t-37 -15q-20 0 -35.5 15t-15.5 37z" />
    <glyph glyph-name="O" unicode="O" horiz-adv-x="922" 
d="M172 800h450q71 0 121.5 -50.5t50.5 -121.5v-456q0 -71 -50.5 -121.5t-121.5 -50.5h-450q-71 0 -121.5 50.5t-50.5 121.5v456q0 71 50.5 121.5t121.5 50.5zM104 628v-456q0 -28 20 -48.5t48 -20.5h450q28 0 48.5 20.5t20.5 48.5v456q0 28 -20.5 48t-48.5 20h-450
q-28 0 -48 -20t-20 -48z" />
    <glyph glyph-name="P" unicode="P" horiz-adv-x="844" 
d="M173 800h395q71 0 121.5 -50.5t50.5 -121.5v-257q0 -71 -50.5 -121.5t-121.5 -50.5h-464v-147q0 -21 -15.5 -36.5t-36.5 -15.5q-22 0 -37 15t-15 37v576q0 71 50.5 121.5t122.5 50.5zM104 628v-326h464q29 0 49.5 20.5t20.5 48.5v257q0 28 -20.5 48t-49.5 20h-395
q-28 0 -48.5 -20t-20.5 -48z" />
    <glyph glyph-name="Q" unicode="Q" horiz-adv-x="945" 
d="M171 801h474q71 0 121.5 -50t50.5 -121v-459q0 -71 -50.5 -121t-121.5 -50h-185q1 -28 20.5 -47.5t47.5 -19.5q22 0 36.5 -14.5t14.5 -36.5t-14.5 -36.5t-36.5 -14.5q-71 0 -120.5 49t-50.5 120h-186q-71 0 -121 50t-50 121v459q0 71 50 121t121 50zM714 171v459
q0 28 -20.5 48t-48.5 20h-474q-28 0 -48.5 -20t-20.5 -48v-459q0 -28 20.5 -48t48.5 -20h186v127q0 22 15 36.5t37 14.5q21 0 36 -14.5t15 -36.5v-127h185q28 0 48.5 20t20.5 48z" />
    <glyph glyph-name="R" unicode="R" horiz-adv-x="870" 
d="M568 801q71 0 121.5 -50.5t50.5 -121.5v-163q0 -71 -50 -121t-121 -51q34 -87 90 -222q4 -8 4 -18q0 -35 -33 -49q-8 -4 -19 -4q-35 0 -48 32l-103 261h-356v-241q0 -21 -15.5 -36.5t-36.5 -15.5q-22 0 -37 15t-15 37v576q0 71 50.5 121.5t122.5 50.5h395zM638 466v163
q0 28 -20.5 48t-49.5 20h-395q-28 0 -48.5 -20t-20.5 -48v-232h464q29 0 49.5 20.5t20.5 48.5z" />
    <glyph glyph-name="S" unicode="S" horiz-adv-x="839" 
d="M171 800h477q22 0 37 -15t15 -37q0 -21 -15.5 -36.5t-36.5 -15.5h-477q-29 0 -49.5 -20t-20.5 -48v-108q0 -28 20.5 -48t49.5 -20h358q71 0 121 -50.5t50 -122.5v-107q0 -71 -50 -121.5t-121 -50.5h-479q-22 0 -36.5 15t-14.5 37q0 21 14.5 36t36.5 15h479q28 0 48 20.5
t20 48.5v107q0 28 -20 48.5t-48 20.5h-358q-71 0 -121.5 50.5t-50.5 121.5v108q0 71 50.5 121.5t121.5 50.5z" />
    <glyph glyph-name="T" unicode="T" horiz-adv-x="851" 
d="M39 801h654q22 0 37 -15t15 -37q0 -21 -15 -36.5t-37 -15.5h-275v-644q0 -22 -15 -37t-36 -15q-22 0 -37 15t-15 37v644h-276q-21 0 -36 15.5t-15 36.5q0 22 14.5 37t36.5 15z" />
    <glyph glyph-name="U" unicode="U" horiz-adv-x="902" 
d="M658 172v576q0 22 15 37t36 15q22 0 37 -15t15 -37v-576q0 -71 -50.5 -121.5t-121.5 -50.5h-417q-71 0 -121.5 50.5t-50.5 121.5v576q0 22 14.5 37t36.5 15t36.5 -15t14.5 -37v-576q0 -29 20.5 -49t49.5 -20h417q28 0 48.5 20.5t20.5 48.5z" />
    <glyph glyph-name="V" unicode="V" horiz-adv-x="803" 
d="M358 191l265 578q13 33 47 33q11 0 20 -4q33 -13 33 -47q0 -11 -4 -20l-313 -697q-11 -34 -48 -34t-48 33l-321 698q-4 8 -4 19q0 34 33 48q8 3 16 3q15 0 29.5 -9t21.5 -22z" />
    <glyph glyph-name="W" unicode="W" horiz-adv-x="1279" 
d="M430 0h-258q-71 0 -121.5 50t-50.5 121v578q0 21 15 36.5t37 15.5q20 0 35.5 -15.5t15.5 -36.5v-578q0 -28 20.5 -48t48.5 -20h258q28 0 48.5 20t20.5 48v578q0 21 15 36.5t37 15.5q20 0 35.5 -15.5t15.5 -36.5v-578q0 -28 20.5 -48t48.5 -20h258q28 0 48.5 20t20.5 48
v578q0 21 15 36.5t36 15.5t36.5 -15.5t15.5 -36.5v-578q0 -71 -50.5 -121t-121.5 -50h-258q-69 0 -121 49q-51 -49 -120 -49z" />
    <glyph glyph-name="X" unicode="X" horiz-adv-x="865" 
d="M751 528q0 -68 -50 -120q50 -53 50 -121v-235q0 -22 -15 -37t-36 -15q-22 0 -37 15t-15 37v235q0 29 -20.5 49t-49.5 20h-405q-29 0 -49 -20t-20 -49v-235q0 -21 -15.5 -36.5t-36.5 -15.5q-22 0 -37 15t-15 37v235q0 69 49 121q-49 51 -49 120v220q0 22 15 37t37 15
q21 0 36.5 -15.5t15.5 -36.5v-220q0 -28 20 -48.5t49 -20.5h405q29 0 49.5 20t20.5 49v220q0 22 15 37t37 15q21 0 36 -15t15 -37v-220z" />
    <glyph glyph-name="Y" unicode="Y" horiz-adv-x="854" 
d="M682 801q22 0 36.5 -15t14.5 -37v-219q0 -71 -50.5 -121.5t-121.5 -50.5h-129v-305q0 -22 -14.5 -37t-36.5 -15t-36.5 15t-14.5 37v305h-158q-71 0 -121.5 50.5t-50.5 121.5v219q0 22 15 37t37 15q21 0 36.5 -15.5t15.5 -36.5v-219q0 -28 20 -48.5t48 -20.5h389
q29 0 49 20.5t20 48.5v219q0 22 15.5 37t36.5 15z" />
    <glyph glyph-name="Z" unicode="Z" horiz-adv-x="814" 
d="M52 800h597q33 0 47 -31q8 -28 -9 -53l-523 -612h505q21 0 36.5 -15.5t15.5 -36.5q0 -22 -15 -37t-37 -15h-617q-21 0 -36.5 15.5t-15.5 36.5t12 33l524 612h-484q-21 0 -36.5 15t-15.5 36t15.5 36.5t36.5 15.5z" />
    <glyph glyph-name="bracketleft" unicode="[" horiz-adv-x="270" 
d="M127 825q20 0 34.5 -14.5t14.5 -34.5t-14.5 -34.5t-34.5 -14.5h-29v-747h29q20 0 34.5 -14.5t14.5 -34.5q0 -21 -14.5 -35.5t-34.5 -14.5h-78q-20 0 -34.5 14.5t-14.5 35.5v845q0 20 14.5 34.5t34.5 14.5h78z" />
    <glyph glyph-name="backslash" unicode="\" horiz-adv-x="464" 
d="M77 750l300 -676q5 -13 5 -24q0 -27 -21 -42q-13 -7 -29 -7q-32 0 -42 25l-301 675q-6 12 -6 25q0 28 23 42q13 8 28 8q32 0 43 -26z" />
    <glyph glyph-name="bracketright" unicode="]" horiz-adv-x="198" 
d="M-29 825h78q20 0 34.5 -14.5t14.5 -34.5v-845q0 -21 -14.5 -35.5t-34.5 -14.5h-78q-20 0 -34.5 14.5t-14.5 35.5q0 20 14.5 34.5t34.5 14.5h29v747h-29q-20 0 -34.5 14.5t-14.5 34.5t14.5 34.5t34.5 14.5z" />
    <glyph glyph-name="asciicircum" unicode="^" horiz-adv-x="399" 
d="M194 772l123 -165q10 -13 10 -29q0 -25 -19 -38q-13 -10 -29 -10q-23 0 -38 18l-85 115q-7 -10 -37.5 -52t-45.5 -64q-15 -15 -38 -15q-16 0 -28 8q-17 12 -17 38q0 18 8 29q21 29 62 85.5t57 78.5q18 20 39 20q23 0 38 -19z" />
    <glyph glyph-name="underscore" unicode="_" horiz-adv-x="452" 
d="M382 0h-330q-20 0 -35 14.5t-15 34.5q0 21 15 35.5t35 14.5h330q20 0 34.5 -14.5t14.5 -35.5q0 -20 -14.5 -34.5t-34.5 -14.5z" />
    <glyph glyph-name="grave" unicode="`" horiz-adv-x="229" 
d="M19 675q14 12 33 12q26 0 39 -19q8 -9 17 -19.5t20 -23.5t17 -20q11 -14 11 -33q0 -24 -17 -39q-14 -12 -33 -12q-24 0 -39 18l-55 63q-11 14 -11 33q0 23 18 40z" />
    <glyph glyph-name="a" unicode="a" horiz-adv-x="708" 
d="M54 520h393q68 0 116 -48t48 -116v-192q0 -68 -47.5 -116t-115.5 -48h-284q-68 0 -116 48t-48 116q0 69 48.5 117t116.5 48h348v27q0 28 -19.5 47t-46.5 19h-393q-21 0 -35.5 14.5t-14.5 34.5t14.5 34.5t35.5 14.5zM99 164q0 -26 19 -45.5t46 -19.5h284q27 0 46 19.5
t19 45.5v66h-348q-28 0 -47 -19.5t-19 -46.5z" />
    <glyph glyph-name="b" unicode="b" horiz-adv-x="709" 
d="M98 726v-206h352q69 0 118 -48.5t49 -118.5v-186q0 -69 -49 -118t-118 -49h-285q-69 0 -117 49t-48 118v559q0 21 14.5 35.5t35.5 14.5q20 0 34 -14.5t14 -35.5zM517 167v188q0 28 -19.5 47.5t-47.5 19.5h-352v-255q0 -28 19.5 -47.5t47.5 -19.5h285q28 0 47.5 19.5
t19.5 47.5z" />
    <glyph glyph-name="c" unicode="c" horiz-adv-x="688" 
d="M168 520h388q20 0 35 -14.5t15 -35.5q0 -19 -15 -33.5t-35 -14.5h-391q-27 0 -47 -20t-20 -48v-186q0 -28 19.5 -48t47.5 -20h389q21 0 35.5 -14.5t14.5 -35.5t-14.5 -35.5t-35.5 -14.5h-386q-70 0 -119 49t-49 119v186q0 70 49 118t119 48z" />
    <glyph glyph-name="d" unicode="d" horiz-adv-x="708" 
d="M500 726q0 21 14.5 35.5t34.5 14.5q21 0 35 -14.5t14 -35.5v-559q0 -69 -48.5 -118t-117.5 -49h-268q-69 0 -116.5 49t-47.5 118v186q0 69 47.5 118t116.5 49h336v206zM98 355v-188q0 -28 19.5 -47.5t46.5 -19.5h268q28 0 48 19.5t20 47.5v255h-336q-27 0 -46.5 -19.5
t-19.5 -47.5z" />
    <glyph glyph-name="e" unicode="e" horiz-adv-x="711" 
d="M166 520h282q68 0 117 -48.5t49 -117.5v-105q0 -21 -14.5 -35.5t-35.5 -14.5h-466v-33q0 -27 19.5 -47t47.5 -20h382q20 0 35 -14t15 -35t-15 -35.5t-35 -14.5h-381q-69 0 -117.5 48.5t-48.5 117.5v188q0 69 48.5 117.5t117.5 48.5zM98 355v-57h417v57q0 28 -19.5 47.5
t-47.5 19.5h-283q-28 0 -47.5 -19.5t-19.5 -47.5z" />
    <glyph glyph-name="f" unicode="f" horiz-adv-x="377" 
d="M328 676h-161q-27 0 -46.5 -20t-19.5 -47v-90h162q21 0 35.5 -14.5t14.5 -36.5q0 -20 -14.5 -35t-35.5 -15h-162v-368q0 -21 -15 -35.5t-36 -14.5t-35.5 14.5t-14.5 35.5v559q0 69 49 118t118 49h161q21 0 35.5 -14.5t14.5 -35.5q0 -20 -14.5 -35t-35.5 -15z" />
    <glyph glyph-name="g" unicode="g" horiz-adv-x="729" 
d="M167 99h351v257q0 27 -19.5 46.5t-46.5 19.5h-285q-28 0 -47.5 -20t-19.5 -48v-187q0 -28 19.5 -48t47.5 -20zM452 -260h-362q-21 0 -35.5 14.5t-14.5 35.5t14.5 35.5t35.5 14.5h362q27 0 46.5 20t19.5 47v93h-351q-69 0 -118 48.5t-49 118.5v185q0 70 49 119t118 49h285
q69 0 118 -49t49 -119v-445q0 -69 -49 -118t-118 -49z" />
    <glyph glyph-name="h" unicode="h" horiz-adv-x="687" 
d="M98 356v-307q0 -20 -14 -34.5t-34 -14.5q-21 0 -35.5 14.5t-14.5 34.5v678q0 20 14.5 34.5t35.5 14.5q20 0 34 -14.5t14 -34.5v-220q33 13 65 13h267q68 0 115.5 -48t47.5 -116v-307q0 -20 -14 -34.5t-35 -14.5q-20 0 -34.5 14.5t-14.5 34.5v307q0 27 -19 46t-46 19h-267
q-27 0 -46 -19t-19 -46z" />
    <glyph glyph-name="i" unicode="i" horiz-adv-x="204" 
d="M51 520q20 0 35 -14.5t15 -34.5v-421q0 -21 -15 -35.5t-35 -14.5q-22 0 -36.5 14.5t-14.5 35.5v421q0 20 14.5 34.5t36.5 14.5zM0 615v32q0 21 14.5 35.5t36.5 14.5q20 0 35 -14.5t15 -35.5v-32q0 -20 -15 -35t-35 -15q-21 0 -36 14.5t-15 35.5z" />
    <glyph glyph-name="j" unicode="j" horiz-adv-x="227" 
d="M130 471v-559q0 -69 -48.5 -118t-118.5 -49h-90q-21 0 -35.5 14.5t-14.5 35.5t14.5 36t35.5 15h90q28 0 47.5 19.5t19.5 46.5v559q0 21 14.5 35.5t35.5 14.5q20 0 35 -14.5t15 -35.5zM32 615v32q0 21 15 35.5t35 14.5q21 0 35.5 -14.5t14.5 -35.5v-32q0 -20 -14.5 -35
t-35.5 -15q-20 0 -35 15t-15 35z" />
    <glyph glyph-name="k" unicode="k" horiz-adv-x="652" 
d="M560 470v-72q0 -69 -48 -119q48 -50 48 -117v-112q0 -20 -15 -35t-35 -15t-35 15t-15 35v112q0 28 -20 47.5t-48 19.5h-291v-179q0 -20 -14.5 -35t-35.5 -15q-20 0 -35.5 15t-15.5 35v676q0 20 15.5 35t35.5 15q21 0 35.5 -15t14.5 -35v-396h291q28 0 48 20t20 48v72
q0 21 15 35.5t35 14.5t35 -14.5t15 -35.5z" />
    <glyph glyph-name="l" unicode="l" horiz-adv-x="365" 
d="M0 167v559q0 21 14.5 35.5t36.5 14.5q20 0 35 -14.5t15 -35.5v-559q0 -28 19.5 -47.5t46.5 -19.5h91q20 0 35 -15t15 -35t-15 -35t-35 -15h-91q-69 0 -118 49t-49 118z" />
    <glyph glyph-name="m" unicode="m" horiz-adv-x="1039" 
d="M584 520h190q71 0 120.5 -50t49.5 -120v-301q0 -20 -14.5 -34.5t-36.5 -14.5q-21 0 -35.5 14.5t-14.5 34.5v301q0 28 -19.5 47.5t-49.5 19.5h-190q-27 0 -46 -19.5t-19 -47.5v-301q0 -17 -11.5 -29.5t-27.5 -17.5q-4 -2 -15 -2q-21 0 -35.5 14.5t-14.5 34.5v301
q0 28 -19.5 47.5t-47.5 19.5h-182q-27 0 -46.5 -19.5t-19.5 -47.5v-301q0 -20 -15.5 -34.5t-35.5 -14.5q-21 0 -35 14.5t-14 34.5v301q0 70 48.5 120t117.5 50h182q68 0 118 -52q54 52 118 52z" />
    <glyph glyph-name="n" unicode="n" horiz-adv-x="664" 
d="M49 520h355q70 0 118.5 -49t48.5 -118v-303q0 -21 -14.5 -35.5t-35.5 -14.5q-20 0 -34.5 14.5t-14.5 35.5v303q0 28 -20 47.5t-48 19.5h-304v-370q0 -21 -15 -35.5t-35 -14.5q-21 0 -35.5 14.5t-14.5 35.5v420q0 21 14 35t35 15z" />
    <glyph glyph-name="o" unicode="o" horiz-adv-x="774" 
d="M167 520h345q70 0 119 -49t49 -118v-185q0 -69 -49 -118t-119 -49h-345q-69 0 -118 49t-49 118v185q0 69 49 118t118 49zM101 355v-187q0 -28 19.5 -47.5t46.5 -19.5h345q28 0 47.5 19.5t19.5 47.5v187q0 28 -19.5 47.5t-47.5 19.5h-345q-27 0 -46.5 -19.5t-19.5 -47.5z
" />
    <glyph glyph-name="p" unicode="p" horiz-adv-x="708" 
d="M100 -207q0 -21 -15 -35.5t-35 -14.5q-21 0 -35.5 14.5t-14.5 35.5v562q0 69 49 117t118 48h280q69 0 118 -48t49 -117v-188q0 -69 -49 -118t-118 -49h-347v-207zM515 167v188q0 28 -20 47.5t-48 19.5h-280q-28 0 -47.5 -19.5t-19.5 -47.5v-255h347q28 0 48 19.5t20 47.5
z" />
    <glyph glyph-name="q" unicode="q" horiz-adv-x="726" 
d="M517 -205v207h-350q-69 0 -118 49t-49 118v186q0 69 49 117t118 48h283q69 0 118 -48t49 -117v-560q0 -21 -14.5 -35.5t-35.5 -14.5t-35.5 14.5t-14.5 35.5zM100 355v-186q0 -28 19.5 -47.5t47.5 -19.5h350v253q0 28 -19.5 47.5t-47.5 19.5h-283q-28 0 -47.5 -19.5
t-19.5 -47.5z" />
    <glyph glyph-name="r" unicode="r" horiz-adv-x="649" 
d="M162 520h246q67 0 114.5 -47.5t47.5 -114.5q0 -21 -14.5 -35t-34.5 -14t-34 14t-14 35q0 26 -19.5 45t-45.5 19h-246q-26 0 -45 -19t-19 -45v-309q0 -20 -14.5 -34.5t-34.5 -14.5t-34.5 14.5t-14.5 34.5v309q0 67 47.5 114.5t114.5 47.5z" />
    <glyph glyph-name="s" unicode="s" horiz-adv-x="719" 
d="M157 520h394q20 0 35 -15t15 -35q0 -19 -15 -33.5t-35 -14.5h-394q-29 0 -48 -17t-19 -40q0 -22 19 -38.5t48 -16.5h283q72 0 121 -44.5t49 -109.5q0 -64 -49.5 -110t-120.5 -46h-398q-20 0 -34.5 14.5t-14.5 35.5t14.5 35t34.5 14h398q29 0 49 17t20 40q0 22 -20 38.5
t-49 16.5h-283q-71 0 -118.5 45t-47.5 109q0 65 47.5 110t118.5 45z" />
    <glyph glyph-name="t" unicode="t" horiz-adv-x="391" 
d="M167 100h96q21 0 36 -15t15 -35q0 -21 -14.5 -35.5t-36.5 -14.5h-96q-70 0 -118.5 49t-48.5 118v559q0 21 14 35.5t36 14.5q20 0 35 -14.5t15 -35.5v-205h163q21 0 35.5 -14.5t14.5 -35.5q0 -20 -14.5 -34.5t-35.5 -14.5h-163v-255q0 -28 19.5 -47.5t47.5 -19.5z" />
    <glyph glyph-name="u" unicode="u" horiz-adv-x="703" 
d="M540 0h-373q-69 0 -118 49t-49 118v303q0 20 14.5 35t35.5 15q20 0 35.5 -15t15.5 -35v-303q0 -28 19.5 -47.5t46.5 -19.5h323v369q0 20 14.5 35t35.5 15t35.5 -15t14.5 -35v-419q0 -20 -14.5 -35t-35.5 -15z" />
    <glyph glyph-name="v" unicode="v" horiz-adv-x="697" 
d="M519 499q14 26 43 26q13 0 25 -6q26 -15 26 -44q0 -14 -7 -25l-234 -424q-16 -26 -44 -26h-50q-28 0 -43 26l-238 424q-6 12 -6 24q0 29 25 45q11 6 24 6q31 0 45 -26l217 -389q1 2 2.5 4.5t2.5 4.5q59 104 212 380z" />
    <glyph glyph-name="w" unicode="w" horiz-adv-x="979" 
d="M326 0h-159q-69 0 -118 49t-49 118v303q0 21 14.5 35.5t35.5 14.5q20 0 35 -14.5t15 -35.5v-303q0 -28 19.5 -47.5t47.5 -19.5h159q27 0 47 19.5t20 47.5v303q0 21 14 35.5t36 14.5q20 0 35 -14.5t15 -35.5v-303q0 -28 19.5 -47.5t47.5 -19.5h149q28 0 47.5 19.5
t19.5 47.5v303q0 21 14.5 35.5t35.5 14.5q20 0 35 -14.5t15 -35.5v-303q0 -69 -48.5 -118t-118.5 -49h-149q-67 0 -117 47q-49 -47 -117 -47z" />
    <glyph glyph-name="x" unicode="x" horiz-adv-x="695" 
d="M600 368q0 -67 -48 -117q48 -50 48 -117v-84q0 -21 -14.5 -35.5t-34.5 -14.5q-21 0 -35.5 14.5t-14.5 35.5v84q0 28 -20 47.5t-48 19.5h-266q-27 0 -46.5 -19.5t-19.5 -47.5v-84q0 -21 -15 -35.5t-35 -14.5q-22 0 -36.5 14.5t-14.5 35.5v84q0 67 48 117q-48 50 -48 117
v102q0 21 14.5 35.5t36.5 14.5q20 0 35 -14.5t15 -35.5v-102q0 -28 19.5 -47.5t46.5 -19.5h266q28 0 48 19.5t20 47.5v102q0 21 14.5 35.5t35.5 14.5q20 0 34.5 -14.5t14.5 -35.5v-102z" />
    <glyph glyph-name="y" unicode="y" horiz-adv-x="698" 
d="M606 471v-558q0 -70 -49 -118.5t-118 -48.5h-345q-22 0 -36.5 14.5t-14.5 34.5q0 22 14.5 36.5t36.5 14.5h345q27 0 46.5 19.5t19.5 47.5v101q-33 -14 -66 -14h-272q-70 0 -118.5 49t-48.5 118v304q0 21 14 35.5t36 14.5q20 0 35 -14.5t15 -35.5v-304q0 -27 19.5 -47
t47.5 -20h272q27 0 46.5 20t19.5 47v304q0 21 14.5 35.5t36.5 14.5q20 0 35 -14.5t15 -35.5z" />
    <glyph glyph-name="z" unicode="z" horiz-adv-x="687" 
d="M549 520q19 0 32.5 -16.5t13.5 -38.5q0 -27 -22 -43q-302 -250 -392 -325h369q20 0 34 -14.5t14 -34.5q0 -21 -13.5 -34.5t-34.5 -13.5h-511q-18 0 -32.5 14.5t-14.5 32.5q0 26 19 41q310 259 401 334h-368q-22 0 -37 13t-15 36q0 20 14.5 34.5t36.5 14.5h506z" />
    <glyph glyph-name="braceleft" unicode="{" horiz-adv-x="354" 
d="M242 19q20 0 35 -15.5t15 -34.5q0 -20 -15 -34.5t-35 -14.5h-74q-70 0 -118.5 48.5t-48.5 117.5v263h-11q-21 0 -36.5 15t-15.5 35q0 23 15 36t37 13h11v215q0 69 48.5 117.5t118.5 48.5h74q21 0 35.5 -13.5t14.5 -36.5q0 -21 -15 -35t-35 -14h-74q-28 0 -47.5 -20
t-19.5 -47v-577q0 -28 19.5 -47.5t47.5 -19.5h74z" />
    <glyph glyph-name="bar" unicode="|" horiz-adv-x="193" 
d="M-1 -122v849q0 21 14.5 35.5t36.5 14.5q20 0 35 -14.5t15 -35.5v-849q0 -21 -15 -36t-35 -15q-22 0 -36.5 14.5t-14.5 36.5z" />
    <glyph glyph-name="braceright" unicode="}" horiz-adv-x="354" 
d="M36 19h75q28 0 47 19.5t19 47.5v577q0 27 -19.5 47t-46.5 20h-75q-20 0 -35 14t-15 35q0 23 14.5 36.5t35.5 13.5h75q69 0 118 -49t49 -117v-215h10q22 0 37 -13t15 -36q0 -20 -15.5 -35t-36.5 -15h-10v-263q0 -69 -49 -117.5t-118 -48.5h-75q-20 0 -35 14.5t-15 34.5
q0 19 15 34.5t35 15.5z" />
    <glyph glyph-name="asciitilde" unicode="~" horiz-adv-x="729" 
d="M109 208q59 33 125 33q47 0 87 -17q27 -13 63 -13q41 0 74 18q19 11 40 5t32 -26q11 -19 4.5 -40t-25.5 -32q-58 -32 -127 -32q-54 0 -104 21q-21 9 -45 9q-38 0 -73 -19q-19 -11 -40.5 -4t-31.5 26v-1q-11 20 -5 40.5t26 31.5z" />
    <glyph glyph-name="exclamdown" unicode="&#xa1;" horiz-adv-x="101" 
d="M-22 49v530q0 21 14.5 35.5t36.5 14.5q20 0 35 -14.5t15 -35.5v-530q0 -21 -15 -35.5t-35 -14.5q-22 0 -36.5 14.5t-14.5 35.5zM-22 688v37q0 21 14.5 35.5t36.5 14.5q20 0 35 -14.5t15 -35.5v-37q0 -21 -15 -35.5t-35 -14.5q-22 0 -36.5 14.5t-14.5 35.5z" />
    <glyph glyph-name="cent" unicode="&#xa2;" horiz-adv-x="617" 
d="M169 104h313q21 0 35.5 -14.5t14.5 -35.5t-14.5 -35.5t-35.5 -14.5h-130v-55q0 -21 -14.5 -35.5t-35.5 -14.5q-20 0 -35 14.5t-15 35.5v55h-83q-70 0 -119.5 49t-49.5 119v180q0 70 49.5 119t119.5 49h83v60q0 21 15 35.5t35 14.5q21 0 35.5 -14.5t14.5 -35.5v-60h130
q20 0 35 -14.5t15 -35.5t-15 -35.5t-35 -14.5h-313q-28 0 -48.5 -20t-20.5 -48v-180q0 -28 20.5 -48t48.5 -20z" />
    <glyph glyph-name="sterling" unicode="&#xa3;" horiz-adv-x="542" 
 />
    <glyph glyph-name="currency" unicode="&#xa4;" horiz-adv-x="667" 
d="M529 617l75 -75l-70 -69l4 -6q11 -16 18 -34q9 -24 14 -43q6 -27 6 -59q0 -30 -6 -57q-6 -25 -15 -44q-7 -17 -20 -35l1 2l-4 -6q38 -40 71 -71l-74 -73l-71 72q-6 -6 -12 -9l1 1q-15 -10 -33 -19q-28 -10 -42 -13q-21 -3 -53 -3q-26 0 -52 4q-23 5 -42 13q-24 11 -33 17
q-4 3 -6 3.5t-7 4.5q-39 -38 -70 -70l-74 74l69 70q-2 3 -8 15q-4 6 -17 34v-1q-12 33 -13 42q-4 19 -4 51q0 30 6 57q4 17 15 44v-1q7 20 19 35l-2 -2l1 1q2 1 3 2q2 4 0 2l1 2l-69 69l73 74l70 -69l1 1l8 5q9 5 36 18q35 12 42 13q26 6 54 6q31 0 56 -7l-1 1q16 -2 44 -14
h-1q21 -9 36 -19q3 -3 4 -5zM477 536h-2q4 -3 5 -4zM520 492h-1q1 -1 1 -2v2zM320 175q31 0 61 12q28 10 48 32q20 20 34 50q12 30 12 64q0 35 -13 66q-16 33 -34 49q-20 20 -49 31q-25 11 -58 11q-34 0 -60 -11q-25 -8 -51 -33v1q-22 -19 -34 -49q-13 -29 -13 -66
q0 -32 12 -61q11 -27 33 -51v1q20 -20 50 -34q33 -12 62 -12z" />
    <glyph glyph-name="yen" unicode="&#xa5;" horiz-adv-x="804" 
d="M320 138h-104q-21 0 -35.5 14.5t-14.5 34.5q0 29 24 43q-27 13 -27 44q0 21 14.5 35.5t36.5 14.5h106v5h-153q-69 0 -118 48.5t-49 118.5v230q0 21 14.5 35.5t35.5 14.5q20 0 35 -14.5t15 -35.5v-230q0 -28 20 -47.5t47 -19.5h377q28 0 47.5 19.5t19.5 47.5v230
q0 21 15 35.5t35 14.5q21 0 35.5 -14.5t14.5 -35.5v-230q0 -70 -49 -118.5t-118 -48.5h-125v-5h96q21 0 35.5 -14.5t14.5 -35.5q0 -28 -24 -42q27 -14 27 -45q0 -20 -14.5 -34.5t-35.5 -14.5h-99v-88q0 -21 -14.5 -35.5t-34.5 -14.5q-22 0 -36 14.5t-14 35.5v88z" />
    <glyph glyph-name="brokenbar" unicode="&#xa6;" horiz-adv-x="229" 
d="M-22 -124v267q0 22 14.5 36.5t36.5 14.5q20 0 35 -15t15 -36v-267q0 -21 -15 -35.5t-35 -14.5q-22 0 -36.5 14.5t-14.5 35.5zM-22 329v267q0 22 14.5 36t36.5 14q20 0 35 -14.5t15 -35.5v-267q0 -21 -15 -36t-35 -15q-22 0 -36.5 14.5t-14.5 36.5z" />
    <glyph glyph-name="section" unicode="&#xa7;" 
 />
    <glyph glyph-name="dieresis" unicode="&#xa8;" horiz-adv-x="443" 
d="M22 566v32q0 21 14.5 35.5t35.5 14.5q20 0 35 -14.5t15 -35.5v-32q0 -20 -15 -35t-35 -15q-21 0 -35.5 15t-14.5 35zM241 566v32q0 21 14.5 35.5t35.5 14.5t36 -14.5t15 -35.5v-32q0 -20 -15.5 -35t-35.5 -15q-21 0 -35.5 15t-14.5 35z" />
    <glyph glyph-name="copyright" unicode="&#xa9;" horiz-adv-x="833" 
d="M688 437q0 -102 -55 -190q-45 -69 -122.5 -112.5t-170.5 -43.5q-140 0 -243.5 98.5t-103.5 248.5q0 147 101 248t247 101t246.5 -100.5t100.5 -249.5zM614 437q0 113 -78 194t-195 81q-114 0 -193.5 -79.5t-79.5 -195.5q0 -112 78.5 -191.5t194.5 -79.5q111 0 191.5 77
t81.5 194zM476 380l73 -62q-48 -59 -83 -79h1q-59 -33 -122 -33q-94 0 -163 65t-69 169q0 98 67 166.5t168 68.5q109 0 201 -111l-73 -64q-67 78 -127 78q-57 0 -97 -39t-40 -97q0 -62 40.5 -100.5t96.5 -38.5q60 0 127 77z" />
    <glyph glyph-name="ordfeminine" unicode="&#xaa;" horiz-adv-x="354" 
 />
    <glyph glyph-name="guillemotleft" unicode="&#xab;" horiz-adv-x="479" 
 />
    <glyph glyph-name="logicalnot" unicode="&#xac;" horiz-adv-x="667" 
 />
    <glyph glyph-name="registered" unicode="&#xae;" horiz-adv-x="833" 
d="M236 611h148q74 0 103 -11q37 -15 57 -46t20 -67q0 -73 -61 -104q26 -23 35 -80q6 -37 8.5 -50.5t11 -37.5t24.5 -56h-120q-20 44 -24 74q-4 24 -6 37q-1 6 -2.5 16t-1.5 12q-6 31 -24 40t-57 10h-6v-189h-105v452zM342 520v-79h46q70 0 70 41q0 17 -12 27q-11 11 -71 11
h-33zM738 382q-1 -145 -101.5 -245.5t-248.5 -100.5q-140 0 -243.5 98.5t-103.5 248.5q0 148 102.5 248t245.5 100q149 0 249.5 -102.5t99.5 -246.5zM663 383q1 113 -77.5 193t-194.5 80t-195.5 -80t-79.5 -193q0 -114 80.5 -193.5t192.5 -79.5q116 0 194.5 79t79.5 194z
" />
    <glyph glyph-name="macron" unicode="&#xaf;" horiz-adv-x="443" 
d="M293 533h-255q-22 0 -36.5 14.5t-14.5 35.5t14.5 35.5t36.5 14.5h255q22 0 36.5 -14.5t14.5 -35.5t-14.5 -35.5t-36.5 -14.5z" />
    <glyph glyph-name="degree" unicode="&#xb0;" horiz-adv-x="354" 
d="M169 729q29 0 62 -13q29 -12 50 -33q21 -23 33 -51t12 -60t-12 -62v1q-12 -28 -33 -51q-20 -20 -51 -34q-28 -11 -61 -11t-61 12h1q-31 13 -51 33q-22 22 -34 50q-12 34 -12 62q0 27 13 62q13 29 33 49q22 22 50 34q33 12 61 12zM169 628q-23 0 -40 -17q-16 -16 -16 -39
q0 -25 16 -41t40 -16q25 0 40 17q17 17 17 40t-17 40q-16 16 -40 16z" />
    <glyph glyph-name="plusminus" unicode="&#xb1;" 
d="M462 312h-172v-173h-99v173h-175v100h175v173h99v-173h172v-100zM16 100h446v-100h-446v100z" />
    <glyph glyph-name="acute" unicode="&#xb4;" horiz-adv-x="342" 
d="M246 675q18 -17 18 -38q0 -19 -13 -35l-54 -63q-15 -18 -39 -18q-20 0 -33 12q-16 15 -16 39q0 19 11 33q10 12 30 35t23 27q15 20 40 20q19 0 33 -12z" />
    <glyph glyph-name="mu" unicode="&#xb5;" 
 />
    <glyph glyph-name="paragraph" unicode="&#xb6;" horiz-adv-x="667" 
d="M297 690h224v-86h-30v-756h-88v756h-97v-756h-88v457q-25 6 -34 10q-30 9 -63 43q-27 32 -37 65q-11 32 -11 67q0 22 8 59q9 34 32 65q21 28 47 42q23 15 49 23q27 9 50 9q24 2 38 2z" />
    <glyph glyph-name="periodcentered" unicode="&#xb7;" horiz-adv-x="329" 
d="M110 216q-44 0 -74 30t-30 74t30 74t74 30t74 -30t30 -74t-30 -74t-74 -30z" />
    <glyph glyph-name="cedilla" unicode="&#xb8;" horiz-adv-x="229" 
d="M29 63q18 0 34 -15.5t16 -34.5v-66q0 -16 -16 -36q-17 -15 -34 -15h-2q0 -6 9 -6q20 2 37.5 -14.5t17.5 -35.5q0 -21 -15 -35.5t-35 -14.5q-44 0 -79 28t-36 77q-1 26 14 50t38 39v29q0 20 14.5 35t36.5 15z" />
    <glyph glyph-name="onesuperior" unicode="&#xb9;" horiz-adv-x="333" 
d="M238 691v-449h-89v307q-32 -4 -72 -2v84q26 0 41.5 5t21.5 15.5t7.5 18.5t0.5 21h90z" />
    <glyph glyph-name="ordmasculine" unicode="&#xba;" horiz-adv-x="333" 
d="M-1 516q0 31 10 61v-1q9 30 29 59v-1q20 28 50 45q33 19 72 19q40 0 70 -18h-1q30 -16 50 -43l-1 1q20 -25 31 -58q10 -26 10 -65t-10 -69q-11 -28 -33 -57q-23 -28 -51 -42q-35 -15 -67 -15q-38 0 -71 19q-23 13 -50 45q-20 31 -29 58q-9 33 -9 62zM166 411v202
q0 15 -3 25v-1q1 -1 0 -1.5t-4 -0.5h-5q-2 -6 -2 -22v-219h12q1 1 1 9q1 4 1 8zM155 637q0 -1 -0.5 -1t-0.5 -1q0 1 1 2z" />
    <glyph glyph-name="guillemotright" unicode="&#xbb;" horiz-adv-x="573" 
d="M229 254l-165 -123q-12 -9 -29 -9q-26 0 -38 19q-10 13 -10 28q0 22 18 37l115 86q-69 51 -116 83q-15 15 -15 38q0 16 8 28q12 17 38 17q18 0 29 -8q29 -21 85.5 -62t78.5 -57q20 -17 20 -39q0 -24 -19 -38zM456 254l-165 -123q-12 -9 -29 -9q-26 0 -38 19
q-10 13 -10 28q0 22 18 37l115 86q-1 1 -4 3.5t-5 3.5q-61 46 -107 76q-15 15 -15 38q0 16 8 28q12 17 38 17q18 0 29 -8q29 -21 85.5 -62t78.5 -57q20 -17 20 -39q0 -24 -19 -38z" />
    <glyph glyph-name="onequarter" unicode="&#xbc;" horiz-adv-x="814" 
d="M682 97v-97h-87v97h-195v81l185 250h97v-256h47v-75h-47zM595 172v158h-2l-117 -158h119zM0 577v58q54 0 91.5 17.5t46.5 52.5h70v-432h-87v304h-121zM104 -24l419 748h78l-418 -748h-79z" />
    <glyph glyph-name="onehalf" unicode="&#xbd;" horiz-adv-x="891" 
d="M101 -24l419 748h78l-418 -748h-79zM0 577v58q54 0 91.5 17.5t46.5 52.5h70v-432h-87v304h-121zM752 70v-70h-315q0 67 31.5 108t87.5 76q9 6 33.5 20.5t34.5 21.5t25 20.5t20.5 28.5t5.5 34q0 31 -20.5 49t-52.5 18q-69 0 -73 -98h-87q0 78 43 123t121 45
q68 0 112 -34.5t44 -100.5q0 -46 -27 -78t-75 -63q-9 -6 -30.5 -19t-31.5 -19.5t-24.5 -17.5t-22.5 -22t-12 -22h213z" />
    <glyph glyph-name="threequarters" unicode="&#xbe;" horiz-adv-x="875" 
d="M756 97v-97h-87v97h-195v81l183 250h99v-256h47v-75h-47zM669 172v158h-2l-117 -158h119zM196 -24l419 748h78l-418 -748h-79zM146 474v58q42 -2 71.5 13.5t29.5 48.5q0 25 -21 37.5t-48 12.5q-33 0 -53.5 -21.5t-19.5 -54.5h-80q3 69 44 107.5t110 38.5q62 0 105 -28.5
t43 -87.5q0 -68 -64 -90v-2q38 -7 60 -35.5t22 -69.5q0 -64 -47 -100.5t-118 -36.5q-80 0 -121 40.5t-43 114.5h80q-2 -37 20.5 -61t63.5 -24q36 0 60.5 19.5t24.5 51.5q0 73 -119 69z" />
    <glyph glyph-name="questiondown" unicode="&#xbf;" horiz-adv-x="396" 
d="M469 0h-303q-69 0 -117.5 48.5t-48.5 117.5v38q0 69 48.5 118t117.5 49h86q28 0 47 19.5t19 46.5v83q0 21 15 35.5t35 14.5t35 -14.5t15 -35.5v-83q0 -69 -48.5 -118t-117.5 -49h-86q-27 0 -46.5 -19.5t-19.5 -46.5v-38q0 -27 19.5 -46.5t46.5 -19.5h303q27 0 46 19.5
t19 46.5v54q0 21 15 35.5t36 14.5t35.5 -14.5t14.5 -35.5v-54q0 -69 -48.5 -117.5t-117.5 -48.5zM418 724v-68q0 -22 -14.5 -36.5t-35.5 -14.5q-20 0 -35 15t-15 36v68q0 20 15 35t35 15q21 0 35.5 -15t14.5 -35z" />
    <glyph glyph-name="Agrave" unicode="&#xc0;" horiz-adv-x="802" 
d="M545 801h-373q-71 0 -121.5 -50.5t-50.5 -121.5v-576q0 -21 15 -36.5t36 -15.5t36.5 15t15.5 37v304h510v-304q0 -21 15.5 -36.5t36.5 -15.5t36.5 15.5t15.5 36.5v576q0 71 -50.5 121.5t-121.5 50.5zM103 459v170q0 28 20 48t49 20h373q28 0 48 -20t20 -48v-170h-510z
M287 985q13 12 33 12q26 0 39 -19l54 -63q11 -14 11 -33q0 -24 -17 -39q-13 -12 -33 -12q-24 0 -39 18l-55 63q-11 14 -11 33q0 23 18 40z" />
    <glyph glyph-name="Aacute" unicode="&#xc1;" horiz-adv-x="802" 
d="M545 801h-373q-71 0 -121.5 -50.5t-50.5 -121.5v-576q0 -21 15 -36.5t36 -15.5t36.5 15t15.5 37v304h510v-304q0 -21 15.5 -36.5t36.5 -15.5t36.5 15.5t15.5 36.5v576q0 71 -50.5 121.5t-121.5 50.5zM103 459v170q0 28 20 48t49 20h373q28 0 48 -20t20 -48v-170h-510z
M410 993q18 -17 18 -38q0 -19 -13 -35l-54 -63q-15 -18 -39 -18q-20 0 -33 12q-16 15 -16 39q0 19 11 33q10 12 30 35t23 27q15 20 40 20q19 0 33 -12z" />
    <glyph glyph-name="Acircumflex" unicode="&#xc2;" horiz-adv-x="802" 
d="M172 801h373q71 0 121.5 -50.5t50.5 -121.5v-576q0 -21 -15.5 -36.5t-36.5 -15.5t-36.5 15.5t-15.5 36.5v304h-510v-304q0 -22 -15.5 -37t-36.5 -15t-36 15.5t-15 36.5v576q0 71 50.5 121.5t121.5 50.5zM103 629v-170h510v170q0 28 -20 48t-48 20h-373q-29 0 -49 -20
t-20 -48zM404 994l59 -78q12 -16 9 -36t-18 -31q-16 -12 -35 -9.5t-31 17.5l-22 29q-5 -5 -11.5 -14.5t-8.5 -12.5q-14 -15 -33.5 -18.5t-35.5 8.5q-16 11 -18.5 31t9.5 36l59 78q16 19 39 19q24 0 38 -19z" />
    <glyph glyph-name="Atilde" unicode="&#xc3;" horiz-adv-x="802" 
d="M172 801h373q71 0 121.5 -50.5t50.5 -121.5v-576q0 -21 -15.5 -36.5t-36.5 -15.5t-36.5 15.5t-15.5 36.5v304h-510v-304q0 -22 -15.5 -37t-36.5 -15t-36 15.5t-15 36.5v576q0 71 50.5 121.5t121.5 50.5zM103 629v-170h510v170q0 28 -20 48t-48 20h-373q-29 0 -49 -20
t-20 -48zM180 937q53 30 114 30q44 0 82 -16h-1q23 -11 57 -11q39 0 68 16q19 10 39 4.5t30 -24.5q10 -18 3.5 -38t-23.5 -31q-50 -29 -116 -29q-51 0 -97 20q-21 8 -41 8q-31 0 -67 -18q-19 -10 -39 -4.5t-30 24.5t-3.5 39t24.5 30z" />
    <glyph glyph-name="Adieresis" unicode="&#xc4;" horiz-adv-x="802" 
d="M545 801h-373q-71 0 -121.5 -50.5t-50.5 -121.5v-576q0 -21 15 -36.5t36 -15.5t36.5 15t15.5 37v304h510v-304q0 -21 15.5 -36.5t36.5 -15.5t36.5 15.5t15.5 36.5v576q0 71 -50.5 121.5t-121.5 50.5zM103 459v170q0 28 20 48t49 20h373q28 0 48 -20t20 -48v-170h-510z
M199 878v32q0 21 14.5 35.5t35.5 14.5q20 0 35 -14.5t15 -35.5v-32q0 -20 -15 -35t-35 -15q-21 0 -35.5 15t-14.5 35zM418 878v32q0 21 14.5 35.5t35.5 14.5t36 -14.5t15 -35.5v-32q0 -20 -15.5 -35t-35.5 -15q-21 0 -35.5 15t-14.5 35z" />
    <glyph glyph-name="Aring" unicode="&#xc5;" horiz-adv-x="852" 
d="M172 801h373q71 0 121.5 -50.5t50.5 -121.5v-576q0 -21 -15.5 -36.5t-36.5 -15.5t-36.5 15.5t-15.5 36.5v304h-510v-304q0 -22 -15.5 -37t-36.5 -15t-36 15.5t-15 36.5v576q0 71 50.5 121.5t121.5 50.5zM103 629v-170h510v170q0 28 -20 48t-48 20h-373q-29 0 -49 -20
t-20 -48zM356 823q-45 0 -75 29q-30 32 -30 75q0 23 9 41v-1q6 20 23 35q16 14 32 21h-1q19 8 42 8q21 0 40 -8h-1q17 -6 35 -22q15 -15 21 -35v1q9 -18 9 -40q0 -24 -9 -41v1q-5 -17 -21 -33q-18 -18 -34 -23h1q-16 -8 -41 -8zM336 927q0 -7 7 -13q4 -6 13 -6q8 0 12 5
q7 7 7 14q0 8 -7 12q-4 7 -12 7t-14 -7q-6 -5 -6 -12z" />
    <glyph glyph-name="AE" unicode="&#xc6;" horiz-adv-x="1172" 
d="M672 105h351q20 0 35.5 -16t15.5 -36q0 -21 -15 -36.5t-36 -15.5h-351q-44 0 -81 20q-16 -21 -41 -21q-21 0 -36.5 15.5t-15.5 36.5v289h-394v-289q0 -22 -15.5 -37t-36.5 -15t-36.5 15.5t-15.5 36.5v576q0 71 51 121.5t122 50.5h257q66 0 119 -51q47 52 123 52h351
q21 0 35.5 -15t14.5 -37q0 -21 -14.5 -36t-35.5 -15h-351q-28 0 -48.5 -20.5t-20.5 -48.5v-176h407q22 0 37 -15.5t15 -36.5t-15 -36.5t-37 -15.5h-407v-176q0 -28 20.5 -48t48.5 -20zM104 628v-185h394v185q0 28 -20 48.5t-48 20.5h-257q-29 0 -49 -20.5t-20 -48.5z" />
    <glyph glyph-name="Ccedilla" unicode="&#xc7;" horiz-adv-x="731" 
d="M628 104q21 0 36.5 -15.5t15.5 -36.5q0 -22 -15 -37t-37 -15h-206v-40q0 -18 -16 -36q-16 -16 -36 -16h-2q0 -7 10 -7q21 3 38.5 -14t17.5 -37q0 -21 -15.5 -36t-36.5 -15q-45 0 -80.5 28.5t-36.5 80.5q-1 26 14 50.5t39 39.5v2h-145q-71 0 -122 50.5t-51 121.5v456
q0 71 51 121.5t122 50.5h455q22 0 37 -15t15 -37q0 -20 -15 -35.5t-37 -15.5h-455q-28 0 -48.5 -20.5t-20.5 -48.5v-456q0 -28 20.5 -48t48.5 -20h455z" />
    <glyph glyph-name="Egrave" unicode="&#xc8;" horiz-adv-x="714" 
d="M627 103h-455q-28 0 -48 20.5t-20 48.5v184h511q21 0 36 15.5t15 36.5t-15 36t-36 15h-511v169q0 28 20 48t48 20h455q21 0 36 15.5t15 36.5q0 22 -15 37t-36 15h-455q-71 0 -121.5 -50.5t-50.5 -121.5v-456q0 -71 50.5 -121.5t121.5 -50.5h455q21 0 36.5 15.5t15.5 36.5
q0 20 -16 35.5t-36 15.5zM287 986q13 12 33 12q26 0 39 -19q8 -9 17 -19.5t20 -23.5t17 -20q11 -14 11 -33q0 -24 -17 -39q-13 -12 -33 -12q-24 0 -39 18l-55 63q-11 14 -11 33q0 24 18 40z" />
    <glyph glyph-name="Eacute" unicode="&#xc9;" horiz-adv-x="760" 
d="M627 103h-455q-28 0 -48 20.5t-20 48.5v184h511q21 0 36 15.5t15 36.5t-15 36t-36 15h-511v169q0 28 20 48t48 20h455q21 0 36 15.5t15 36.5q0 22 -15 37t-36 15h-455q-71 0 -121.5 -50.5t-50.5 -121.5v-456q0 -71 50.5 -121.5t121.5 -50.5h455q21 0 36.5 15.5t15.5 36.5
q0 20 -16 35.5t-36 15.5zM430 990q18 -16 18 -38q0 -19 -13 -35l-54 -63q-15 -18 -39 -18q-20 0 -33 12q-16 15 -16 39q0 19 11 33q10 12 30 35t23 27q15 20 40 20q20 0 33 -12z" />
    <glyph glyph-name="Ecircumflex" unicode="&#xca;" horiz-adv-x="760" 
d="M172 103h455q20 0 36 -15.5t16 -35.5q0 -21 -15.5 -36.5t-36.5 -15.5h-455q-71 0 -121.5 50.5t-50.5 121.5v456q0 71 50.5 121.5t121.5 50.5h455q21 0 36 -15t15 -37q0 -21 -15 -36.5t-36 -15.5h-455q-28 0 -48 -20t-20 -48v-169h511q21 0 36 -15t15 -36t-15 -36.5
t-36 -15.5h-511v-184q0 -28 20 -48.5t48 -20.5zM401 997l59 -78q12 -16 9 -36t-18 -31q-16 -12 -35 -9.5t-31 17.5l-22 29q-5 -5 -11.5 -14.5t-8.5 -12.5q-14 -15 -33.5 -18.5t-35.5 8.5q-16 11 -18.5 31t9.5 36l59 78q16 19 39 19q24 0 38 -19z" />
    <glyph glyph-name="Edieresis" unicode="&#xcb;" horiz-adv-x="760" 
d="M627 103h-455q-28 0 -48 20.5t-20 48.5v184h511q21 0 36 15.5t15 36.5t-15 36t-36 15h-511v169q0 28 20 48t48 20h455q21 0 36 15.5t15 36.5q0 22 -15 37t-36 15h-455q-71 0 -121.5 -50.5t-50.5 -121.5v-456q0 -71 50.5 -121.5t121.5 -50.5h455q21 0 36.5 15.5t15.5 36.5
q0 20 -16 35.5t-36 15.5zM200 891v32q0 21 14.5 35.5t35.5 14.5q20 0 35 -14.5t15 -35.5v-32q0 -20 -15 -35t-35 -15q-21 0 -35.5 15t-14.5 35zM419 891v32q0 21 14.5 35.5t35.5 14.5t36 -14.5t15 -35.5v-32q0 -20 -15.5 -35t-35.5 -15q-21 0 -35.5 15t-14.5 35z" />
    <glyph glyph-name="Igrave" unicode="&#xcc;" horiz-adv-x="179" 
d="M0 748v-696q0 -22 15 -37t37 -15q21 0 36.5 15.5t15.5 36.5v696q0 21 -15.5 36.5t-36.5 15.5q-22 0 -37 -15t-15 -37zM-4 990q14 12 33 12q26 0 39 -19l54 -63q11 -14 11 -33q0 -24 -17 -39q-14 -12 -33 -12q-24 0 -39 18l-55 63q-11 14 -11 33q0 24 18 40z" />
    <glyph glyph-name="Iacute" unicode="&#xcd;" horiz-adv-x="179" 
d="M0 748v-696q0 -22 15 -37t37 -15q21 0 36.5 15.5t15.5 36.5v696q0 21 -15.5 36.5t-36.5 15.5q-22 0 -37 -15t-15 -37zM112 990q18 -16 18 -38q0 -19 -13 -35l-54 -63q-15 -18 -39 -18q-20 0 -33 12q-16 15 -16 39q0 19 11 33q10 12 30 35t23 27q15 20 40 20q19 0 33 -12z
" />
    <glyph glyph-name="Icircumflex" unicode="&#xce;" horiz-adv-x="179" 
d="M0 52v696q0 22 15 37t37 15q21 0 36.5 -15.5t15.5 -36.5v-696q0 -21 -15.5 -36.5t-36.5 -15.5q-22 0 -37 15t-15 37zM89 997l59 -78q12 -16 9 -36t-18 -31q-16 -12 -35 -9.5t-31 17.5l-22 29q-5 -5 -11.5 -14.5t-8.5 -12.5q-14 -15 -33.5 -18.5t-35.5 8.5
q-16 11 -18.5 31t9.5 36l59 78q16 19 39 19q24 0 38 -19z" />
    <glyph glyph-name="Idieresis" unicode="&#xcf;" horiz-adv-x="179" 
d="M-79 888v32q0 21 14.5 35.5t35.5 14.5q20 0 35 -14.5t15 -35.5v-32q0 -20 -15 -35t-35 -15q-21 0 -35.5 15t-14.5 35zM73 888v32q0 21 14.5 35.5t35.5 14.5t36 -14.5t15 -35.5v-32q0 -20 -15.5 -35t-35.5 -15q-21 0 -35.5 15t-14.5 35zM0 748v-696q0 -22 15 -37t37 -15
q21 0 36.5 15.5t15.5 36.5v696q0 21 -15.5 36.5t-36.5 15.5q-22 0 -37 -15t-15 -37z" />
    <glyph glyph-name="Eth" unicode="&#xd0;" horiz-adv-x="825" 
d="M-14 337h-45q-22 0 -37 15t-15 36q0 22 15 37t37 15h45v309q0 23 16 36q13 16 36 16h516q71 0 122 -50.5t51 -121.5v-456q0 -71 -51 -121.5t-122 -50.5h-516q-22 0 -37 15t-15 37v284zM554 697h-465v-257h206q22 0 37 -15t15 -37q0 -21 -15 -36t-37 -15h-206v-233h465
q28 0 48.5 20.5t20.5 48.5v456q0 28 -20.5 48t-48.5 20z" />
    <glyph glyph-name="Ntilde" unicode="&#xd1;" horiz-adv-x="844" 
d="M657 52v576q0 28 -20.5 48.5t-48.5 20.5h-416q-29 0 -49.5 -20t-20.5 -49v-576q0 -22 -14.5 -37t-36.5 -15t-36.5 15t-14.5 37v576q0 71 50.5 121.5t121.5 50.5h416q71 0 121.5 -50.5t50.5 -121.5v-576q0 -22 -15 -37t-37 -15q-20 0 -35.5 15t-15.5 37zM194 924
q53 30 114 30q44 0 82 -16h-1q23 -11 57 -11q39 0 68 16q19 10 39 4.5t30 -24.5q10 -18 3.5 -38t-23.5 -31q-50 -29 -116 -29q-51 0 -97 20q-21 8 -41 8q-31 0 -67 -18q-19 -10 -39 -4.5t-30 24.5t-3.5 39t24.5 30z" />
    <glyph glyph-name="Ograve" unicode="&#xd2;" horiz-adv-x="886" 
d="M172 800h450q71 0 121.5 -50.5t50.5 -121.5v-456q0 -71 -50.5 -121.5t-121.5 -50.5h-450q-71 0 -121.5 50.5t-50.5 121.5v456q0 71 50.5 121.5t121.5 50.5zM104 628v-456q0 -28 20 -48.5t48 -20.5h450q28 0 48.5 20.5t20.5 48.5v456q0 28 -20.5 48t-48.5 20h-450
q-28 0 -48 -20t-20 -48zM345 979q13 12 33 12q26 0 39 -19q8 -9 17 -19.5t20 -23.5t17 -20q11 -14 11 -33q0 -24 -17 -39q-13 -12 -33 -12q-24 0 -39 18l-55 63q-11 14 -11 33q0 24 18 40z" />
    <glyph glyph-name="Oacute" unicode="&#xd3;" horiz-adv-x="886" 
d="M172 800h450q71 0 121.5 -50.5t50.5 -121.5v-456q0 -71 -50.5 -121.5t-121.5 -50.5h-450q-71 0 -121.5 50.5t-50.5 121.5v456q0 71 50.5 121.5t121.5 50.5zM104 628v-456q0 -28 20 -48.5t48 -20.5h450q28 0 48.5 20.5t20.5 48.5v456q0 28 -20.5 48t-48.5 20h-450
q-28 0 -48 -20t-20 -48zM459 982q18 -16 18 -38q0 -19 -13 -35l-54 -63q-15 -18 -39 -18q-20 0 -33 12q-16 15 -16 39q0 19 11 33q10 12 30 35t23 27q15 20 40 20q20 0 33 -12z" />
    <glyph glyph-name="Ocircumflex" unicode="&#xd4;" horiz-adv-x="886" 
d="M172 800h450q71 0 121.5 -50.5t50.5 -121.5v-456q0 -71 -50.5 -121.5t-121.5 -50.5h-450q-71 0 -121.5 50.5t-50.5 121.5v456q0 71 50.5 121.5t121.5 50.5zM104 628v-456q0 -28 20 -48.5t48 -20.5h450q28 0 48.5 20.5t20.5 48.5v456q0 28 -20.5 48t-48.5 20h-450
q-28 0 -48 -20t-20 -48zM416 980l59 -78q12 -16 9 -36t-18 -31q-16 -12 -35 -9.5t-31 17.5l-22 29q-5 -5 -11.5 -14.5t-8.5 -12.5q-14 -15 -33.5 -18.5t-35.5 8.5q-16 11 -18.5 31t9.5 36l59 78q16 19 39 19q24 0 38 -19z" />
    <glyph glyph-name="Otilde" unicode="&#xd5;" horiz-adv-x="886" 
d="M172 800h450q71 0 121.5 -50.5t50.5 -121.5v-456q0 -71 -50.5 -121.5t-121.5 -50.5h-450q-71 0 -121.5 50.5t-50.5 121.5v456q0 71 50.5 121.5t121.5 50.5zM104 628v-456q0 -28 20 -48.5t48 -20.5h450q28 0 48.5 20.5t20.5 48.5v456q0 28 -20.5 48t-48.5 20h-450
q-28 0 -48 -20t-20 -48zM214 947q52 30 114 30q44 0 82 -16h-1q23 -11 57 -11q39 0 68 16q19 10 39 4.5t30 -24.5q10 -18 3.5 -38t-23.5 -31q-50 -29 -116 -29q-51 0 -97 20q-21 8 -41 8q-31 0 -67 -18q-19 -10 -39 -4.5t-30 24.5t-3.5 39t24.5 30z" />
    <glyph glyph-name="Odieresis" unicode="&#xd6;" horiz-adv-x="865" 
d="M224 830v33q0 22 15 37t37 15q21 0 36.5 -15.5t15.5 -36.5v-33q0 -20 -16 -36t-36 -16q-21 0 -36.5 15.5t-15.5 36.5zM450 830v33q0 22 15 37t37 15q21 0 36.5 -15.5t15.5 -36.5v-33q0 -20 -16 -36t-36 -16q-21 0 -36.5 15.5t-15.5 36.5zM160 801h450q71 0 121.5 -50.5
t50.5 -121.5v-456q0 -71 -50.5 -121.5t-121.5 -50.5h-450q-71 0 -121.5 50.5t-50.5 121.5v456q0 71 50.5 121.5t121.5 50.5zM92 629v-456q0 -28 20 -48.5t48 -20.5h450q28 0 48.5 20.5t20.5 48.5v456q0 28 -20.5 48t-48.5 20h-450q-28 0 -48 -20t-20 -48z" />
    <glyph glyph-name="multiply" unicode="&#xd7;" 
d="M445 424l-135 -135l135 -136l-71 -71l-135 135l-135 -135l-71 71l135 136l-135 135l71 71l135 -135l135 135z" />
    <glyph glyph-name="Oslash" unicode="&#xd8;" horiz-adv-x="867" 
d="M161 788h413q3 4 9 14l9 15q11 17 32 21.5t40 -6.5q15 -10 20.5 -27.5t-0.5 -33.5q44 -21 71.5 -63.5t27.5 -91.5v-456q0 -71 -50.5 -121.5t-121.5 -50.5h-421q-7 -12 -31 -49q-12 -19 -32.5 -23t-38.5 8q-18 11 -22.5 32.5t7.5 38.5v-1l3 7l4 7q-41 21 -66 62t-25 90
v456q0 71 50.5 121.5t121.5 50.5zM255 91h356q29 0 49 20.5t20 48.5v456q0 25 -14.5 43t-37.5 23q-56 -89 -178.5 -283.5t-194.5 -307.5zM93 616v-456q0 -22 12 -39.5t32 -24.5q77 121 204.5 323t167.5 265h-348q-28 0 -48 -20t-20 -48z" />
    <glyph glyph-name="Ugrave" unicode="&#xd9;" horiz-adv-x="818" 
d="M657 173v576q0 21 15.5 36.5t35.5 15.5q22 0 37 -15t15 -37v-576q0 -71 -50.5 -121.5t-121.5 -50.5h-417q-71 0 -121.5 50.5t-50.5 121.5v576q0 22 14.5 37t36.5 15t36.5 -15t14.5 -37v-576q0 -29 20.5 -49t49.5 -20h417q28 0 48.5 20.5t20.5 48.5zM305 905v1
q16 14 39 12.5t37 -19.5l-1 1q9 -11 27.5 -32.5t27.5 -32.5q13 -16 11.5 -38.5t-16.5 -35.5q-17 -14 -39 -12.5t-36 17.5l-56 65q-14 18 -12 39t18 35z" />
    <glyph glyph-name="Uacute" unicode="&#xda;" horiz-adv-x="822" 
d="M658 173v576q0 21 15 36.5t36 15.5q22 0 37 -15t15 -37v-576q0 -71 -50.5 -121.5t-121.5 -50.5h-417q-71 0 -121.5 50.5t-50.5 121.5v576q0 22 14.5 37t36.5 15t36.5 -15t14.5 -37v-576q0 -29 20.5 -49t49.5 -20h417q28 0 48.5 20.5t20.5 48.5zM455 906l1 -1
q16 -14 17.5 -35t-12.5 -39l-56 -65q-14 -16 -35.5 -17.5t-38.5 12.5q-16 13 -17.5 35.5t11.5 38.5q9 11 28 32.5t28 32.5l-1 -1q14 18 37 19.5t38 -12.5z" />
    <glyph glyph-name="Ucircumflex" unicode="&#xdb;" horiz-adv-x="852" 
d="M658 172v576q0 22 15 37t36 15q22 0 37 -15t15 -37v-576q0 -71 -50.5 -121.5t-121.5 -50.5h-417q-71 0 -121.5 50.5t-50.5 121.5v576q0 22 14.5 37t36.5 15t36.5 -15t14.5 -37v-576q0 -29 20.5 -49t49.5 -20h417q28 0 48.5 20.5t20.5 48.5zM417 934l59 -78q12 -16 9 -36
t-18 -31q-16 -12 -35 -9.5t-31 17.5l-22 29q-5 -5 -11.5 -14.5t-8.5 -12.5q-14 -15 -33.5 -18.5t-35.5 8.5q-16 11 -18.5 31t9.5 36l59 78q16 19 39 19q24 0 38 -19z" />
    <glyph glyph-name="Udieresis" unicode="&#xdc;" horiz-adv-x="842" 
d="M657 173v576q0 21 15.5 36.5t35.5 15.5q22 0 37 -15t15 -37v-576q0 -71 -50.5 -121.5t-121.5 -50.5h-417q-71 0 -121.5 50.5t-50.5 121.5v576q0 22 14.5 37t36.5 15t36.5 -15t14.5 -37v-576q0 -29 20.5 -49t49.5 -20h417q28 0 48.5 20.5t20.5 48.5zM228 829v33
q0 22 15 37t37 15q21 0 36.5 -15.5t15.5 -36.5v-33q0 -20 -16 -36t-36 -16q-21 0 -36.5 15.5t-15.5 36.5zM454 829v33q0 22 15 37t37 15q21 0 36.5 -15.5t15.5 -36.5v-33q0 -20 -16 -36t-36 -16q-21 0 -36.5 15.5t-15.5 36.5z" />
    <glyph glyph-name="Yacute" unicode="&#xdd;" horiz-adv-x="542" 
d="M430 855l1 -1q16 -15 17.5 -36t-12.5 -39l-56 -65q-14 -16 -35.5 -17.5t-38.5 12.5q-16 13 -17.5 35.5t11.5 38.5q9 11 28 32.5t28 32.5l-1 -1q14 18 37 20t38 -12zM682 801q22 0 36.5 -15t14.5 -37v-219q0 -71 -50.5 -121.5t-121.5 -50.5h-129v-305q0 -22 -14.5 -37
t-36.5 -15t-36.5 15t-14.5 37v305h-158q-71 0 -121.5 50.5t-50.5 121.5v219q0 22 15 37t37 15q21 0 36.5 -15.5t15.5 -36.5v-219q0 -28 20 -48.5t48 -20.5h389q29 0 49 20.5t20 48.5v219q0 22 15.5 37t36.5 15z" />
    <glyph glyph-name="Thorn" unicode="&#xde;" horiz-adv-x="542" 
 />
    <glyph glyph-name="germandbls" unicode="&#xdf;" horiz-adv-x="479" 
 />
    <glyph glyph-name="agrave" unicode="&#xe0;" horiz-adv-x="708" 
d="M54 520h393q68 0 116 -48t48 -116v-192q0 -68 -47.5 -116t-115.5 -48h-284q-68 0 -116 48t-48 116q0 69 48.5 117t116.5 48h348v27q0 28 -19.5 47t-46.5 19h-393q-21 0 -35.5 14.5t-14.5 34.5t14.5 34.5t35.5 14.5zM99 164q0 -26 19 -45.5t46 -19.5h284q27 0 46 19.5
t19 45.5v66h-348q-28 0 -47 -19.5t-19 -46.5zM249 710q13 12 33 12q26 0 39 -19q8 -9 17 -19.5t20 -23.5t17 -20q11 -14 11 -33q0 -24 -17 -39q-13 -12 -33 -12q-24 0 -39 18l-55 63q-11 14 -11 33q0 24 18 40z" />
    <glyph glyph-name="aacute" unicode="&#xe1;" horiz-adv-x="708" 
d="M54 520h393q68 0 116 -48t48 -116v-192q0 -68 -47.5 -116t-115.5 -48h-284q-68 0 -116 48t-48 116q0 69 48.5 117t116.5 48h348v27q0 28 -19.5 47t-46.5 19h-393q-21 0 -35.5 14.5t-14.5 34.5t14.5 34.5t35.5 14.5zM99 164q0 -26 19 -45.5t46 -19.5h284q27 0 46 19.5
t19 45.5v66h-348q-28 0 -47 -19.5t-19 -46.5zM354 715q18 -17 18 -38q0 -19 -13 -35l-54 -63q-15 -18 -39 -18q-20 0 -33 12q-16 15 -16 39q0 19 11 33q10 12 30 35t23 27q15 20 40 20q19 0 33 -12z" />
    <glyph glyph-name="acircumflex" unicode="&#xe2;" horiz-adv-x="708" 
d="M54 520h393q68 0 116 -48t48 -116v-192q0 -68 -47.5 -116t-115.5 -48h-284q-68 0 -116 48t-48 116q0 69 48.5 117t116.5 48h348v27q0 28 -19.5 47t-46.5 19h-393q-21 0 -35.5 14.5t-14.5 34.5t14.5 34.5t35.5 14.5zM99 164q0 -26 19 -45.5t46 -19.5h284q27 0 46 19.5
t19 45.5v66h-348q-28 0 -47 -19.5t-19 -46.5zM325 724l59 -78q12 -16 9 -36t-18 -31q-16 -12 -35 -9.5t-31 17.5l-22 29q-5 -5 -11.5 -14.5t-8.5 -12.5q-14 -15 -33.5 -18.5t-35.5 8.5q-16 11 -18.5 31t9.5 36l59 78q16 19 39 19q24 0 38 -19z" />
    <glyph glyph-name="atilde" unicode="&#xe3;" horiz-adv-x="708" 
d="M54 520h393q68 0 116 -48t48 -116v-192q0 -68 -47.5 -116t-115.5 -48h-284q-68 0 -116 48t-48 116q0 69 48.5 117t116.5 48h348v27q0 28 -19.5 47t-46.5 19h-393q-21 0 -35.5 14.5t-14.5 34.5t14.5 34.5t35.5 14.5zM99 164q0 -26 19 -45.5t46 -19.5h284q27 0 46 19.5
t19 45.5v66h-348q-28 0 -47 -19.5t-19 -46.5zM116 674q52 30 114 30q44 0 82 -16h-1q23 -11 57 -11q39 0 68 16q19 10 39 4.5t30 -24.5q10 -18 3.5 -38t-23.5 -31q-50 -29 -116 -29q-51 0 -97 20q-21 8 -41 8q-31 0 -67 -18q-19 -10 -39 -4.5t-30 24.5t-3.5 39t24.5 30z" />
    <glyph glyph-name="adieresis" unicode="&#xe4;" horiz-adv-x="708" 
d="M54 520h393q68 0 116 -48t48 -116v-192q0 -68 -47.5 -116t-115.5 -48h-284q-68 0 -116 48t-48 116q0 69 48.5 117t116.5 48h348v27q0 28 -19.5 47t-46.5 19h-393q-21 0 -35.5 14.5t-14.5 34.5t14.5 34.5t35.5 14.5zM99 164q0 -26 19 -45.5t46 -19.5h284q27 0 46 19.5
t19 45.5v66h-348q-28 0 -47 -19.5t-19 -46.5zM133 624v32q0 21 14.5 35.5t35.5 14.5q20 0 35 -14.5t15 -35.5v-32q0 -20 -15 -35t-35 -15q-21 0 -35.5 15t-14.5 35zM352 624v32q0 21 14.5 35.5t35.5 14.5t36 -14.5t15 -35.5v-32q0 -20 -15.5 -35t-35.5 -15q-21 0 -35.5 15
t-14.5 35z" />
    <glyph glyph-name="aring" unicode="&#xe5;" horiz-adv-x="708" 
d="M54 520h393q68 0 116 -48t48 -116v-192q0 -68 -47.5 -116t-115.5 -48h-284q-68 0 -116 48t-48 116q0 69 48.5 117t116.5 48h348v27q0 28 -19.5 47t-46.5 19h-393q-21 0 -35.5 14.5t-14.5 34.5t14.5 34.5t35.5 14.5zM99 164q0 -26 19 -45.5t46 -19.5h284q27 0 46 19.5
t19 45.5v66h-348q-28 0 -47 -19.5t-19 -46.5zM299 548q-45 0 -75 29q-30 31 -30 75q0 23 9 41v-1q6 20 23 35q16 14 32 21h-1q19 8 42 8q21 0 40 -8h-1q17 -6 35 -22q15 -15 21 -35v1q9 -18 9 -40q0 -24 -9 -41v1q-5 -17 -21 -33q-18 -18 -34 -23h1q-16 -8 -41 -8zM279 652
q0 -7 7 -13q4 -6 13 -6q8 0 12 5q7 7 7 14q0 8 -7 12q-4 7 -12 7t-14 -7q-6 -4 -6 -12z" />
    <glyph glyph-name="ae" unicode="&#xe6;" horiz-adv-x="989" 
d="M404 230h-239q-27 0 -46 -19.5t-19 -46.5q0 -26 19 -45.5t45 -19.5h176q25 0 43.5 17t20.5 42v72zM570 519h172q69 0 118 -48.5t49 -118.5v-103q0 -21 -14.5 -35.5t-36.5 -14.5h-355v-41q0 -25 20 -42t47 -17h271q20 0 35 -14t15 -35t-15 -35.5t-35 -14.5h-271
q-67 0 -116 46q-49 -46 -114 -46h-176q-68 0 -116 48t-48 116q0 69 48.5 117t116.5 48h239v32q-2 26 -21 43.5t-44 17.5h-284q-21 0 -35.5 14.5t-14.5 34.5t14.5 34.5t35.5 14.5h284q66 0 116 -47q53 46 115 46zM503 298h306v54q0 28 -19.5 47.5t-47.5 19.5h-172
q-27 0 -46 -18.5t-21 -44.5v-58z" />
    <glyph glyph-name="ccedilla" unicode="&#xe7;" horiz-adv-x="691" 
d="M554 100q20 0 34.5 -14.5t14.5 -36.5q0 -21 -14.5 -35.5t-34.5 -14.5h-181v-33q0 -17 -16 -35q-16 -16 -36 -16q0 -6 9 -6h4q19 0 35 -16t16 -34q0 -21 -15 -35.5t-35 -14.5q-46 0 -80 31t-34 78q0 51 44 81h-97q-70 0 -119 49t-49 119v184q0 70 49 119t119 49h387
q21 0 36 -14.5t15 -36.5q0 -20 -15 -35t-36 -15h-387q-28 0 -47.5 -19.5t-19.5 -47.5v-184q0 -28 19.5 -47.5t47.5 -19.5h386z" />
    <glyph glyph-name="egrave" unicode="&#xe8;" horiz-adv-x="698" 
d="M166 520h282q68 0 117 -48.5t49 -117.5v-105q0 -21 -14.5 -35.5t-35.5 -14.5h-466v-33q0 -27 19.5 -47t47.5 -20h382q20 0 35 -14t15 -35t-15 -35.5t-35 -14.5h-381q-69 0 -117.5 48.5t-48.5 117.5v188q0 69 48.5 117.5t117.5 48.5zM98 355v-57h417v57q0 28 -19.5 47.5
t-47.5 19.5h-283q-28 0 -47.5 -19.5t-19.5 -47.5zM237 696q13 12 33 12q26 0 39 -19l54 -63q11 -14 11 -33q0 -24 -17 -39q-13 -12 -33 -12q-24 0 -39 18l-55 63q-11 14 -11 33q0 24 18 40z" />
    <glyph glyph-name="eacute" unicode="&#xe9;" horiz-adv-x="698" 
d="M166 520h282q68 0 117 -48.5t49 -117.5v-105q0 -21 -14.5 -35.5t-35.5 -14.5h-466v-33q0 -27 19.5 -47t47.5 -20h382q20 0 35 -14t15 -35t-15 -35.5t-35 -14.5h-381q-69 0 -117.5 48.5t-48.5 117.5v188q0 69 48.5 117.5t117.5 48.5zM98 355v-57h417v57q0 28 -19.5 47.5
t-47.5 19.5h-283q-28 0 -47.5 -19.5t-19.5 -47.5zM371 695q18 -17 18 -38q0 -19 -13 -35l-54 -63q-15 -18 -39 -18q-19 0 -33 12q-16 15 -16 39q0 19 11 33q10 12 30 35t23 27q15 20 40 20q20 0 33 -12z" />
    <glyph glyph-name="ecircumflex" unicode="&#xea;" horiz-adv-x="698" 
d="M166 520h282q68 0 117 -48.5t49 -117.5v-105q0 -21 -14.5 -35.5t-35.5 -14.5h-466v-33q0 -27 19.5 -47t47.5 -20h382q20 0 35 -14t15 -35t-15 -35.5t-35 -14.5h-381q-69 0 -117.5 48.5t-48.5 117.5v188q0 69 48.5 117.5t117.5 48.5zM98 355v-57h417v57q0 28 -19.5 47.5
t-47.5 19.5h-283q-28 0 -47.5 -19.5t-19.5 -47.5zM341 703l59 -78q12 -16 9 -36t-18 -31q-16 -12 -35 -9.5t-31 17.5l-22 29q-5 -5 -11.5 -14.5t-8.5 -12.5q-14 -15 -33.5 -18.5t-35.5 8.5q-16 11 -18.5 31t9.5 36l59 78q16 19 39 19q24 0 38 -19z" />
    <glyph glyph-name="edieresis" unicode="&#xeb;" horiz-adv-x="698" 
d="M166 520h282q68 0 117 -48.5t49 -117.5v-105q0 -21 -14.5 -35.5t-35.5 -14.5h-466v-33q0 -27 19.5 -47t47.5 -20h382q20 0 35 -14t15 -35t-15 -35.5t-35 -14.5h-381q-69 0 -117.5 48.5t-48.5 117.5v188q0 69 48.5 117.5t117.5 48.5zM98 355v-57h417v57q0 28 -19.5 47.5
t-47.5 19.5h-283q-28 0 -47.5 -19.5t-19.5 -47.5zM146 595v32q0 21 14.5 35.5t35.5 14.5q20 0 35 -14.5t15 -35.5v-32q0 -20 -15 -35t-35 -15q-21 0 -35.5 15t-14.5 35zM365 595v32q0 21 14.5 35.5t35.5 14.5t36 -14.5t15 -35.5v-32q0 -20 -15.5 -35t-35.5 -15
q-21 0 -35.5 15t-14.5 35z" />
    <glyph glyph-name="igrave" unicode="&#xec;" horiz-adv-x="240" 
d="M103 517q20 0 35 -14.5t15 -35.5v-417q0 -21 -15 -35.5t-35 -14.5q-22 0 -36.5 14.5t-14.5 35.5v417q0 21 14.5 35.5t36.5 14.5zM18 697q14 12 33 12q26 0 39 -19q8 -9 17 -19.5t20 -23.5t17 -20q11 -14 11 -33q0 -24 -17 -39q-14 -12 -33 -12q-24 0 -39 18l-55 63
q-11 14 -11 33q0 23 18 40z" />
    <glyph glyph-name="iacute" unicode="&#xed;" horiz-adv-x="242" 
d="M138 690q18 -16 18 -38q0 -19 -13 -35l-54 -63q-15 -18 -39 -18q-20 0 -33 12q-16 15 -16 39q0 19 11 33q10 12 30 35t23 27q15 20 40 20q19 0 33 -12zM77 517q20 0 35 -14.5t15 -35.5v-417q0 -21 -15 -35.5t-35 -14.5q-22 0 -36.5 14.5t-14.5 35.5v417q0 21 14.5 35.5
t36.5 14.5z" />
    <glyph glyph-name="icircumflex" unicode="&#xee;" horiz-adv-x="300" 
d="M108 517q20 0 35 -14.5t15 -35.5v-417q0 -21 -15 -35.5t-35 -14.5q-22 0 -36.5 14.5t-14.5 35.5v417q0 21 14.5 35.5t36.5 14.5zM146 682l59 -78q12 -16 9 -36t-18 -31q-16 -12 -35 -9.5t-31 17.5l-22 29q-5 -5 -11.5 -14.5t-8.5 -12.5q-14 -15 -33.5 -18.5t-35.5 8.5
q-16 11 -18.5 31t9.5 36l59 78q16 19 39 19q24 0 38 -19z" />
    <glyph glyph-name="idieresis" unicode="&#xef;" horiz-adv-x="332" 
d="M0 597v32q0 21 14.5 35.5t35.5 14.5q20 0 35 -14.5t15 -35.5v-32q0 -20 -15 -35t-35 -15q-21 0 -35.5 15t-14.5 35zM146 597v32q0 21 14.5 35.5t35.5 14.5t36 -14.5t15 -35.5v-32q0 -20 -15.5 -35t-35.5 -15q-21 0 -35.5 15t-14.5 35zM119 517q20 0 35 -14.5t15 -35.5
v-417q0 -21 -15 -35.5t-35 -14.5q-22 0 -36.5 14.5t-14.5 35.5v417q0 21 14.5 35.5t36.5 14.5z" />
    <glyph glyph-name="eth" unicode="&#xf0;" horiz-adv-x="458" 
 />
    <glyph glyph-name="ntilde" unicode="&#xf1;" horiz-adv-x="680" 
d="M49 520h355q70 0 118.5 -49t48.5 -118v-303q0 -21 -14.5 -35.5t-35.5 -14.5q-20 0 -34.5 14.5t-14.5 35.5v303q0 28 -20 47.5t-48 19.5h-304v-370q0 -21 -15 -35.5t-35 -14.5q-21 0 -35.5 14.5t-14.5 35.5v420q0 21 14 35t35 15zM73 659q52 30 114 30q44 0 82 -16h-1
q23 -11 57 -11q39 0 68 16q19 10 39 4.5t30 -24.5q10 -18 3.5 -38t-23.5 -31q-50 -29 -116 -29q-51 0 -97 20q-21 8 -41 8q-31 0 -67 -18q-19 -10 -39 -4.5t-30 24.5t-3.5 39t24.5 30z" />
    <glyph glyph-name="ograve" unicode="&#xf2;" horiz-adv-x="774" 
d="M167 520h345q70 0 119 -49t49 -118v-185q0 -69 -49 -118t-119 -49h-345q-69 0 -118 49t-49 118v185q0 69 49 118t118 49zM101 355v-187q0 -28 19.5 -47.5t46.5 -19.5h345q28 0 47.5 19.5t19.5 47.5v187q0 28 -19.5 47.5t-47.5 19.5h-345q-27 0 -46.5 -19.5t-19.5 -47.5z
M263 701q13 12 33 12q26 0 39 -19q8 -9 17 -19.5t20 -23.5t17 -20q11 -14 11 -33q0 -24 -17 -39q-14 -12 -33 -12q-24 0 -39 18l-55 63q-11 14 -11 33q0 23 18 40z" />
    <glyph glyph-name="oacute" unicode="&#xf3;" horiz-adv-x="765" 
d="M167 520h345q70 0 119 -49t49 -118v-185q0 -69 -49 -118t-119 -49h-345q-69 0 -118 49t-49 118v185q0 69 49 118t118 49zM101 355v-187q0 -28 19.5 -47.5t46.5 -19.5h345q28 0 47.5 19.5t19.5 47.5v187q0 28 -19.5 47.5t-47.5 19.5h-345q-27 0 -46.5 -19.5t-19.5 -47.5z
M387 697q18 -17 18 -38q0 -19 -13 -35l-54 -63q-15 -18 -39 -18q-19 0 -33 12q-16 15 -16 39q0 19 11 33q10 12 30 35t23 27q15 20 40 20q20 0 33 -12z" />
    <glyph glyph-name="ocircumflex" unicode="&#xf4;" horiz-adv-x="774" 
d="M167 520h345q70 0 119 -49t49 -118v-185q0 -69 -49 -118t-119 -49h-345q-69 0 -118 49t-49 118v185q0 69 49 118t118 49zM101 355v-187q0 -28 19.5 -47.5t46.5 -19.5h345q28 0 47.5 19.5t19.5 47.5v187q0 28 -19.5 47.5t-47.5 19.5h-345q-27 0 -46.5 -19.5t-19.5 -47.5z
M377 714l59 -78q12 -16 9 -36t-18 -31q-16 -12 -35 -9.5t-31 17.5l-22 29q-5 -5 -11.5 -14.5t-8.5 -12.5q-14 -15 -33.5 -18.5t-35.5 8.5q-16 11 -18.5 31t9.5 36l59 78q16 19 39 19q24 0 38 -19z" />
    <glyph glyph-name="otilde" unicode="&#xf5;" horiz-adv-x="766" 
d="M167 520h345q70 0 119 -49t49 -118v-185q0 -69 -49 -118t-119 -49h-345q-69 0 -118 49t-49 118v185q0 69 49 118t118 49zM101 355v-187q0 -28 19.5 -47.5t46.5 -19.5h345q28 0 47.5 19.5t19.5 47.5v187q0 28 -19.5 47.5t-47.5 19.5h-345q-27 0 -46.5 -19.5t-19.5 -47.5z
M143 654q52 30 114 30q44 0 82 -16h-1q23 -11 57 -11q39 0 68 16q19 10 39 4.5t30 -24.5q10 -18 3.5 -38t-23.5 -31q-50 -29 -116 -29q-51 0 -97 20q-21 8 -41 8q-31 0 -67 -18q-19 -10 -39 -4.5t-30 24.5t-3.5 39t24.5 30z" />
    <glyph glyph-name="odieresis" unicode="&#xf6;" horiz-adv-x="774" 
d="M167 520h345q70 0 119 -49t49 -118v-185q0 -69 -49 -118t-119 -49h-345q-69 0 -118 49t-49 118v185q0 69 49 118t118 49zM101 355v-187q0 -28 19.5 -47.5t46.5 -19.5h345q28 0 47.5 19.5t19.5 47.5v187q0 28 -19.5 47.5t-47.5 19.5h-345q-27 0 -46.5 -19.5t-19.5 -47.5z
M175 603v32q0 21 14.5 35.5t35.5 14.5q20 0 35 -14.5t15 -35.5v-32q0 -20 -15 -35t-35 -15q-21 0 -35.5 15t-14.5 35zM394 603v32q0 21 14.5 35.5t35.5 14.5t36 -14.5t15 -35.5v-32q0 -20 -15.5 -35t-35.5 -15q-21 0 -35.5 15t-14.5 35z" />
    <glyph glyph-name="divide" unicode="&#xf7;" horiz-adv-x="514" 
d="M380 242h-329q-21 0 -36 14.5t-15 35.5t15 35.5t36 14.5h329q21 0 35 -14.5t14 -35.5t-14 -35.5t-35 -14.5zM167 429v68q0 22 14 36.5t36 14.5q20 0 35 -15t15 -36v-68q0 -19 -15.5 -34.5t-34.5 -15.5q-21 0 -35.5 15t-14.5 35zM167 93v69q0 21 14 35.5t36 14.5
q20 0 35 -14.5t15 -35.5v-69q0 -19 -15.5 -34.5t-34.5 -15.5q-21 0 -35.5 15t-14.5 35z" />
    <glyph glyph-name="oslash" unicode="&#xf8;" horiz-adv-x="765" 
d="M610 489l6 5q18 20 45 20q13 0 22 -6q24 -14 24 -43q0 -17 -9 -30l-30 -22q11 -26 11 -60v-186q0 -69 -49 -118t-118 -49h-345q-25 0 -47 6l-11 -10q-16 -19 -38 -19q-15 0 -29 9q-22 16 -22 43q0 16 7 27l9 7q-36 44 -36 104v186q0 70 49 118.5t118 48.5h345
q54 0 98 -31zM100 353v-186q0 -23 16 -44q75 56 205 152t196 145h-350q-27 0 -47 -19.5t-20 -47.5zM246 100h266q28 0 47.5 20t19.5 47v179q-91 -66 -333 -246z" />
    <glyph glyph-name="ugrave" unicode="&#xf9;" horiz-adv-x="703" 
d="M540 0h-373q-69 0 -118 49t-49 118v303q0 20 14.5 35t35.5 15q20 0 35.5 -15t15.5 -35v-303q0 -28 19.5 -47.5t46.5 -19.5h323v369q0 20 14.5 35t35.5 15t35.5 -15t14.5 -35v-419q0 -20 -14.5 -35t-35.5 -15zM209 635q13 12 33 12q26 0 39 -19q8 -9 17 -19.5t20 -23.5
t17 -20q11 -14 11 -33q0 -24 -17 -39q-14 -12 -33 -12q-24 0 -39 18l-55 63q-11 14 -11 33q0 23 18 40z" />
    <glyph glyph-name="uacute" unicode="&#xfa;" horiz-adv-x="703" 
d="M540 0h-373q-69 0 -118 49t-49 118v303q0 20 14.5 35t35.5 15q20 0 35.5 -15t15.5 -35v-303q0 -28 19.5 -47.5t46.5 -19.5h323v369q0 20 14.5 35t35.5 15t35.5 -15t14.5 -35v-419q0 -20 -14.5 -35t-35.5 -15zM362 635q18 -17 18 -38q0 -19 -13 -35l-54 -63
q-15 -18 -39 -18q-20 0 -33 12q-16 15 -16 39q0 19 11 33q10 12 30 35t23 27q15 20 40 20q19 0 33 -12z" />
    <glyph glyph-name="ucircumflex" unicode="&#xfb;" horiz-adv-x="693" 
d="M540 0h-373q-69 0 -118 49t-49 118v303q0 20 14.5 35t35.5 15q20 0 35.5 -15t15.5 -35v-303q0 -28 19.5 -47.5t46.5 -19.5h323v369q0 20 14.5 35t35.5 15t35.5 -15t14.5 -35v-419q0 -20 -14.5 -35t-35.5 -15zM334 662l59 -78q12 -16 9 -36t-18 -31q-16 -12 -35 -9.5
t-31 17.5l-22 29q-5 -5 -11.5 -14.5t-8.5 -12.5q-14 -15 -33.5 -18.5t-35.5 8.5q-16 11 -18.5 31t9.5 36l59 78q16 19 39 19q24 0 38 -19z" />
    <glyph glyph-name="udieresis" unicode="&#xfc;" horiz-adv-x="703" 
d="M540 0h-373q-69 0 -118 49t-49 118v303q0 20 14.5 35t35.5 15q20 0 35.5 -15t15.5 -35v-303q0 -28 19.5 -47.5t46.5 -19.5h323v369q0 20 14.5 35t35.5 15t35.5 -15t14.5 -35v-419q0 -20 -14.5 -35t-35.5 -15zM132 558v32q0 21 14.5 35.5t35.5 14.5q20 0 35 -14.5
t15 -35.5v-32q0 -20 -15 -35t-35 -15q-21 0 -35.5 15t-14.5 35zM351 558v32q0 21 14.5 35.5t35.5 14.5t36 -14.5t15 -35.5v-32q0 -20 -15.5 -35t-35.5 -15q-21 0 -35.5 15t-14.5 35z" />
    <glyph glyph-name="yacute" unicode="&#xfd;" horiz-adv-x="698" 
d="M606 471v-558q0 -70 -49 -118.5t-118 -48.5h-345q-22 0 -36.5 14.5t-14.5 34.5q0 22 14.5 36.5t36.5 14.5h345q27 0 46.5 19.5t19.5 47.5v101q-33 -14 -66 -14h-272q-70 0 -118.5 49t-48.5 118v304q0 21 14 35.5t36 14.5q20 0 35 -14.5t15 -35.5v-304q0 -27 19.5 -47
t47.5 -20h272q27 0 46.5 20t19.5 47v304q0 21 14.5 35.5t36.5 14.5q20 0 35 -14.5t15 -35.5zM369 675q18 -17 18 -38q0 -19 -13 -35l-54 -63q-15 -18 -39 -18q-19 0 -33 12q-16 15 -16 39q0 19 11 33q10 12 30 35t23 27q15 20 40 20q20 0 33 -12z" />
    <glyph glyph-name="thorn" unicode="&#xfe;" horiz-adv-x="600" 
d="M166 520h180q69 0 118 -48.5t49 -118.5v-186q0 -69 -49 -118t-118 -49h-180q-33 0 -66 14v-197q0 -21 -15 -35.5t-35 -14.5q-22 0 -36.5 14.5t-14.5 35.5v868q0 21 14.5 35.5t36.5 14.5q20 0 35 -14.5t15 -35.5v-178q33 13 66 13zM166 420q-26 0 -45.5 -18.5t-20.5 -45.5
v-193q2 -26 21 -44.5t45 -18.5h180q28 0 47.5 20t19.5 47v186q0 28 -19.5 47.5t-47.5 19.5h-180z" />
    <glyph glyph-name="ydieresis" unicode="&#xff;" horiz-adv-x="698" 
d="M606 471v-558q0 -70 -49 -118.5t-118 -48.5h-345q-22 0 -36.5 14.5t-14.5 34.5q0 22 14.5 36.5t36.5 14.5h345q27 0 46.5 19.5t19.5 47.5v101q-33 -14 -66 -14h-272q-70 0 -118.5 49t-48.5 118v304q0 21 14 35.5t36 14.5q20 0 35 -14.5t15 -35.5v-304q0 -27 19.5 -47
t47.5 -20h272q27 0 46.5 20t19.5 47v304q0 21 14.5 35.5t36.5 14.5q20 0 35 -14.5t15 -35.5zM142 566v32q0 21 14.5 35.5t35.5 14.5q20 0 35 -14.5t15 -35.5v-32q0 -20 -15 -35t-35 -15q-21 0 -35.5 15t-14.5 35zM361 566v32q0 21 14.5 35.5t35.5 14.5t36 -14.5t15 -35.5
v-32q0 -20 -15.5 -35t-35.5 -15q-21 0 -35.5 15t-14.5 35z" />
    <glyph glyph-name="Amacron" unicode="&#x100;" horiz-adv-x="781" 
d="M485 839h-264q-22 0 -37 14.5t-15 36.5t15 36.5t37 14.5h264q22 0 36.5 -14.5t14.5 -36.5t-14.5 -36.5t-36.5 -14.5zM545 801h-373q-71 0 -121.5 -50.5t-50.5 -121.5v-576q0 -21 15 -36.5t36 -15.5t36.5 15t15.5 37v304h510v-304q0 -21 15.5 -36.5t36.5 -15.5t36.5 15.5
t15.5 36.5v576q0 71 -50.5 121.5t-121.5 50.5zM103 459v170q0 28 20 48t49 20h373q28 0 48 -20t20 -48v-170h-510z" />
    <glyph glyph-name="amacron" unicode="&#x101;" horiz-adv-x="708" 
d="M54 520h393q68 0 116 -48t48 -116v-192q0 -68 -47.5 -116t-115.5 -48h-284q-68 0 -116 48t-48 116q0 69 48.5 117t116.5 48h348v27q0 28 -19.5 47t-46.5 19h-393q-21 0 -35.5 14.5t-14.5 34.5t14.5 34.5t35.5 14.5zM99 164q0 -26 19 -45.5t46 -19.5h284q27 0 46 19.5
t19 45.5v66h-348q-28 0 -47 -19.5t-19 -46.5zM423 563h-255q-22 0 -36.5 14.5t-14.5 35.5t14.5 35.5t36.5 14.5h255q22 0 36.5 -14.5t14.5 -35.5t-14.5 -35.5t-36.5 -14.5z" />
    <glyph glyph-name="Cacute" unicode="&#x106;" horiz-adv-x="731" 
d="M425 1000l1 -1q16 -15 17.5 -36t-12.5 -38l-56 -65q-14 -17 -36 -18.5t-38 12.5q-16 13 -17.5 36t11.5 39q3 4 24 28t32 37l-1 -1q13 18 36 19.5t39 -12.5zM627 801h-455q-71 0 -121.5 -50.5t-50.5 -121.5v-456q0 -71 50.5 -121.5t121.5 -50.5h455q22 0 37 15t15 37
q0 21 -15 36t-37 15h-455q-28 0 -48.5 20.5t-20.5 48.5v456q0 28 20.5 48t48.5 20h455q22 0 37 15.5t15 36.5q0 22 -15 37t-37 15z" />
    <glyph glyph-name="cacute" unicode="&#x107;" horiz-adv-x="677" 
d="M168 520h388q20 0 35 -14.5t15 -35.5q0 -19 -15 -33.5t-35 -14.5h-391q-27 0 -47 -20t-20 -48v-186q0 -28 19.5 -48t47.5 -20h389q21 0 35.5 -14.5t14.5 -35.5t-14.5 -35.5t-35.5 -14.5h-386q-70 0 -119 49t-49 119v186q0 70 49 118t119 48zM388 698q18 -16 18 -38
q0 -19 -13 -35l-54 -63q-15 -18 -39 -18q-20 0 -33 12q-16 15 -16 39q0 19 11 33q10 12 30 35t23 27q15 20 40 20q19 0 33 -12z" />
    <glyph glyph-name="Ccaron" unicode="&#x10c;" horiz-adv-x="750" 
d="M172 801h455q22 0 37 -15t15 -37q0 -21 -15 -36.5t-37 -15.5h-455q-28 0 -48.5 -20t-20.5 -48v-456q0 -28 20.5 -48.5t48.5 -20.5h455q22 0 37 -15t15 -36q0 -22 -15 -37t-37 -15h-455q-71 0 -121.5 50.5t-50.5 121.5v456q0 71 50.5 121.5t121.5 50.5zM331 853l-59 79
q-8 13 -8 27q0 27 18 40q12 9 28 9q26 0 39 -18l22 -29l21 29q14 18 37 18q15 0 29 -9q18 -13 18 -38q0 -16 -9 -29q-9 -12 -59 -78q-14 -19 -38 -19t-39 18z" />
    <glyph glyph-name="ccaron" unicode="&#x10d;" horiz-adv-x="677" 
d="M168 520h388q20 0 35 -14.5t15 -35.5q0 -19 -15 -33.5t-35 -14.5h-391q-27 0 -47 -20t-20 -48v-186q0 -28 19.5 -48t47.5 -20h389q21 0 35.5 -14.5t14.5 -35.5t-14.5 -35.5t-35.5 -14.5h-386q-70 0 -119 49t-49 119v186q0 70 49 118t119 48zM293 569l-59 79q-8 13 -8 27
q0 27 18 40q12 9 28 9q26 0 39 -18l22 -29l21 29q14 18 37 18q15 0 29 -9q18 -13 18 -38q0 -15 -9 -29q-9 -12 -59 -78q-14 -19 -38 -19t-39 18z" />
    <glyph glyph-name="Dcaron" unicode="&#x10e;" horiz-adv-x="812" 
d="M52 800h517q71 0 121.5 -50.5t50.5 -121.5v-456q0 -71 -50.5 -121.5t-121.5 -50.5h-517q-22 0 -37 15t-15 37v696q0 20 16 36t36 16zM569 696h-465v-593h465q28 0 48.5 20.5t20.5 48.5v456q0 28 -20.5 48t-48.5 20zM299 858l-59 79q-8 13 -8 27q0 26 18 40q12 9 28 9
q26 0 39 -18l22 -29l21 29q14 18 37 18q15 0 29 -9q18 -14 18 -38q0 -16 -9 -29q-9 -12 -59 -78q-14 -19 -38 -19t-39 18z" />
    <glyph glyph-name="Dcroat" unicode="&#x110;" horiz-adv-x="923" 
d="M97 337h-45q-22 0 -37 15t-15 36q0 22 15 37t37 15h45v309q0 23 16 36q13 16 36 16h516q71 0 122 -50.5t51 -121.5v-456q0 -71 -51 -121.5t-122 -50.5h-516q-22 0 -37 15t-15 37v284zM665 697h-465v-257h206q22 0 37 -15t15 -37q0 -21 -15 -36t-37 -15h-206v-233h465
q28 0 48.5 20.5t20.5 48.5v456q0 28 -20.5 48t-48.5 20z" />
    <glyph glyph-name="Emacron" unicode="&#x112;" horiz-adv-x="760" 
d="M627 103h-455q-28 0 -48 20.5t-20 48.5v184h511q21 0 36 15.5t15 36.5t-15 36t-36 15h-511v169q0 28 20 48t48 20h455q21 0 36 15.5t15 36.5q0 22 -15 37t-36 15h-455q-71 0 -121.5 -50.5t-50.5 -121.5v-456q0 -71 50.5 -121.5t121.5 -50.5h455q21 0 36.5 15.5t15.5 36.5
q0 20 -16 35.5t-36 15.5zM498 841h-255q-22 0 -36.5 14.5t-14.5 35.5t14.5 35.5t36.5 14.5h255q22 0 36.5 -14.5t14.5 -35.5t-14.5 -35.5t-36.5 -14.5z" />
    <glyph glyph-name="emacron" unicode="&#x113;" horiz-adv-x="698" 
d="M166 520h282q68 0 117 -48.5t49 -117.5v-105q0 -21 -14.5 -35.5t-35.5 -14.5h-466v-33q0 -27 19.5 -47t47.5 -20h382q20 0 35 -14t15 -35t-15 -35.5t-35 -14.5h-381q-69 0 -117.5 48.5t-48.5 117.5v188q0 69 48.5 117.5t117.5 48.5zM98 355v-57h417v57q0 28 -19.5 47.5
t-47.5 19.5h-283q-28 0 -47.5 -19.5t-19.5 -47.5zM443 551h-255q-22 0 -36.5 14.5t-14.5 35.5t14.5 35.5t36.5 14.5h255q22 0 36.5 -14.5t14.5 -35.5t-14.5 -35.5t-36.5 -14.5z" />
    <glyph glyph-name="Ecaron" unicode="&#x11a;" horiz-adv-x="760" 
d="M172 103h455q20 0 36 -15.5t16 -35.5q0 -21 -15.5 -36.5t-36.5 -15.5h-455q-71 0 -121.5 50.5t-50.5 121.5v456q0 71 50.5 121.5t121.5 50.5h455q21 0 36 -15t15 -37q0 -21 -15 -36.5t-36 -15.5h-455q-28 0 -48 -20t-20 -48v-169h511q21 0 36 -15t15 -36t-15 -36.5
t-36 -15.5h-511v-184q0 -28 20 -48.5t48 -20.5zM322 844l-59 79q-8 13 -8 27q0 26 18 40q12 9 28 9q25 0 39 -18l22 -29l21 29q13 18 37 18q16 0 29 -9q18 -14 18 -38q0 -16 -9 -29q-9 -12 -59 -78q-14 -19 -38 -19t-39 18z" />
    <glyph glyph-name="ecaron" unicode="&#x11b;" horiz-adv-x="698" 
d="M166 520h282q68 0 117 -48.5t49 -117.5v-105q0 -21 -14.5 -35.5t-35.5 -14.5h-466v-33q0 -27 19.5 -47t47.5 -20h382q20 0 35 -14t15 -35t-15 -35.5t-35 -14.5h-381q-69 0 -117.5 48.5t-48.5 117.5v188q0 69 48.5 117.5t117.5 48.5zM98 355v-57h417v57q0 28 -19.5 47.5
t-47.5 19.5h-283q-28 0 -47.5 -19.5t-19.5 -47.5zM267 565l-59 79q-8 13 -8 27q0 27 18 40q12 9 28 9q26 0 39 -18l22 -29l21 29q14 18 37 18q15 0 29 -9q18 -13 18 -38q0 -15 -9 -29q-10 -12 -59 -78q-14 -19 -38 -19t-39 18z" />
    <glyph glyph-name="Gbreve" unicode="&#x11e;" horiz-adv-x="838" 
d="M705 801h-528q-73 0 -125 -52.5t-52 -125.5v-444q0 -73 52 -125.5t125 -52.5h402q74 0 126 52t52 126v230q0 22 -15 36t-37 14h-424q-22 0 -37.5 -14t-15.5 -36t15.5 -37.5t37.5 -15.5h371v-177q0 -30 -21 -51.5t-52 -21.5h-402q-29 0 -50.5 21.5t-21.5 51.5v444
q0 30 21.5 51.5t50.5 21.5h528q22 0 37 15t15 37t-15 37.5t-37 15.5zM200 945q14 32 46 32q10 0 22 -5q64 -27 124 -27q41 0 112 27q9 4 21 4q36 0 47 -34l-1 3q5 -12 5 -22q0 -33 -33 -47q-110 -37 -151 -37q-72 0 -165 37q-32 13 -32 46q0 10 5 23z" />
    <glyph glyph-name="gbreve" unicode="&#x11f;" horiz-adv-x="729" 
d="M177 99h351v257q0 27 -19.5 46.5t-46.5 19.5h-285q-28 0 -47.5 -20t-19.5 -48v-187q0 -28 19.5 -48t47.5 -20zM462 -260h-362q-21 0 -35.5 14.5t-14.5 35.5t14.5 35.5t35.5 14.5h362q27 0 46.5 20t19.5 47v93h-351q-69 0 -118 48.5t-49 118.5v185q0 70 49 119t118 49h285
q69 0 118 -49t49 -119v-445q0 -69 -49 -118t-118 -49zM120 651q14 32 46 32q10 0 22 -5q64 -27 124 -27q41 0 112 27q9 4 21 4q36 0 47 -34l-1 3q5 -12 5 -22q0 -33 -33 -47q-110 -37 -151 -37q-72 0 -165 37q-32 13 -32 46q0 10 5 23z" />
    <glyph glyph-name="imacron" unicode="&#x12b;" horiz-adv-x="442" 
d="M198 517q20 0 35 -14.5t15 -35.5v-417q0 -21 -15 -35.5t-35 -14.5q-22 0 -36.5 14.5t-14.5 35.5v417q0 21 14.5 35.5t36.5 14.5zM306 553h-255q-22 0 -36.5 14.5t-14.5 35.5t14.5 35.5t36.5 14.5h255q22 0 36.5 -14.5t14.5 -35.5t-14.5 -35.5t-36.5 -14.5z" />
    <glyph glyph-name="Idotaccent" unicode="&#x130;" horiz-adv-x="190" 
d="M0 748v-696q0 -22 15 -37t37 -15q21 0 36.5 15.5t15.5 36.5v696q0 21 -15.5 36.5t-36.5 15.5q-22 0 -37 -15t-15 -37zM77 974q20 0 34 -14.5t14 -33.5v-38q0 -22 -14 -36.5t-34 -14.5q-23 0 -37.5 14t-14.5 37v38q0 19 15 33.5t37 14.5z" />
    <glyph glyph-name="dotlessi" unicode="&#x131;" horiz-adv-x="186" 
d="M51 517q20 0 35 -14.5t15 -35.5v-417q0 -21 -15 -35.5t-35 -14.5q-22 0 -36.5 14.5t-14.5 35.5v417q0 21 14.5 35.5t36.5 14.5z" />
    <glyph glyph-name="Lacute" unicode="&#x139;" horiz-adv-x="721" 
d="M0 172v576q0 22 14.5 37t36.5 15q21 0 36.5 -15t15.5 -37v-576q0 -28 20.5 -48.5t48.5 -20.5h469q21 0 36.5 -15.5t15.5 -35.5q0 -22 -15.5 -37t-36.5 -15h-469q-71 0 -121.5 50.5t-50.5 121.5zM283 784q18 -16 18 -38q0 -19 -13 -35l-54 -63q-15 -18 -39 -18
q-19 0 -33 12q-16 15 -16 39q0 19 11 33q10 12 30 35t23 27q15 20 40 20q20 0 33 -12z" />
    <glyph glyph-name="lacute" unicode="&#x13a;" horiz-adv-x="242" 
d="M24 748v-696q0 -22 15 -37t37 -15q21 0 36.5 15.5t15.5 36.5v696q0 21 -15.5 36.5t-36.5 15.5q-22 0 -37 -15t-15 -37zM138 979q18 -16 18 -38q0 -19 -13 -35l-54 -63q-15 -18 -39 -18q-20 0 -33 12q-16 15 -16 39q0 19 11 33q10 12 30 35t23 27q15 20 40 20q19 0 33 -12
z" />
    <glyph glyph-name="Lslash" unicode="&#x141;" horiz-adv-x="881" 
d="M155 506l31 24q13 10 31 10q25 0 42 -19q10 -15 10 -31q0 -26 -19 -42q-16 -12 -46.5 -35.5t-48.5 -37.5v-203q0 -28 20.5 -48t48.5 -20h470q20 0 36 -16t16 -36q0 -21 -15.5 -36.5t-36.5 -15.5h-470q-71 0 -121.5 50.5t-50.5 121.5v121q-4 -3 -10 -8t-10 -8
q-14 -11 -31 -11q-26 0 -41 20q-10 13 -10 32q0 27 19 41q24 18 83 65v324q0 22 15 37t37 15q20 0 35.5 -15t15.5 -37v-242z" />
    <glyph glyph-name="lslash" unicode="&#x142;" horiz-adv-x="443" 
d="M145 500l24 21q16 12 33 12q21 0 35.5 -15.5t14.5 -35.5t-17 -36q-37 -35 -90 -78v-201q0 -27 19.5 -47t47.5 -20h90q20 0 35 -15t15 -35t-15 -35t-35 -15h-90q-69 0 -118 49t-49 118v114q-5 -4 -15.5 -13t-16.5 -14q-13 -12 -31 -12q-20 0 -36 15.5t-16 35.5q0 21 20 38
q13 12 44.5 39t50.5 44v312q0 21 14.5 35.5t35.5 14.5q20 0 35 -14.5t15 -35.5v-226z" />
    <glyph glyph-name="Nacute" unicode="&#x143;" horiz-adv-x="844" 
d="M657 52v576q0 28 -20.5 48.5t-48.5 20.5h-416q-29 0 -49.5 -20t-20.5 -49v-576q0 -22 -14.5 -37t-36.5 -15t-36.5 15t-14.5 37v576q0 71 50.5 121.5t121.5 50.5h416q71 0 121.5 -50.5t50.5 -121.5v-576q0 -22 -15 -37t-37 -15q-20 0 -35.5 15t-15.5 37zM450 982
q18 -16 18 -38q0 -19 -13 -35l-54 -63q-15 -18 -39 -18q-20 0 -33 12q-16 15 -16 39q0 19 11 33q10 12 30 35t23 27q15 20 40 20q19 0 33 -12z" />
    <glyph glyph-name="nacute" unicode="&#x144;" horiz-adv-x="680" 
d="M49 520h355q70 0 118.5 -49t48.5 -118v-303q0 -21 -14.5 -35.5t-35.5 -14.5q-20 0 -34.5 14.5t-14.5 35.5v303q0 28 -20 47.5t-48 19.5h-304v-370q0 -21 -15 -35.5t-35 -14.5q-21 0 -35.5 14.5t-14.5 35.5v420q0 21 14 35t35 15zM339 698q18 -16 18 -38q0 -19 -13 -35
l-54 -63q-15 -18 -39 -18q-19 0 -33 12q-16 15 -16 39q0 19 11 33q10 12 30 35t23 27q15 20 40 20q20 0 33 -12z" />
    <glyph glyph-name="Ncaron" unicode="&#x147;" horiz-adv-x="844" 
d="M657 52v576q0 28 -20.5 48.5t-48.5 20.5h-416q-29 0 -49.5 -20t-20.5 -49v-576q0 -22 -14.5 -37t-36.5 -15t-36.5 15t-14.5 37v576q0 71 50.5 121.5t121.5 50.5h416q71 0 121.5 -50.5t50.5 -121.5v-576q0 -22 -15 -37t-37 -15q-20 0 -35.5 15t-15.5 37zM330 839l-59 79
q-8 13 -8 27q0 27 18 40q12 9 28 9q25 0 39 -18l22 -29l21 29q13 18 37 18q15 0 29 -9q18 -13 18 -38q0 -15 -9 -29q-10 -12 -59 -78q-14 -19 -38 -19t-39 18z" />
    <glyph glyph-name="ncaron" unicode="&#x148;" horiz-adv-x="656" 
d="M49 520h355q70 0 118.5 -49t48.5 -118v-303q0 -21 -14.5 -35.5t-35.5 -14.5q-20 0 -34.5 14.5t-14.5 35.5v303q0 28 -20 47.5t-48 19.5h-304v-370q0 -21 -15 -35.5t-35 -14.5q-21 0 -35.5 14.5t-14.5 35.5v420q0 21 14 35t35 15zM216 561l-59 79q-8 13 -8 27q0 27 18 40
q12 9 28 9q25 0 39 -18l22 -29l21 29q13 18 37 18q16 0 29 -9q18 -14 18 -38q0 -15 -9 -29q-9 -12 -59 -78q-14 -19 -38 -19t-39 18z" />
    <glyph glyph-name="omacron" unicode="&#x14d;" horiz-adv-x="766" 
d="M167 520h345q70 0 119 -49t49 -118v-185q0 -69 -49 -118t-119 -49h-345q-69 0 -118 49t-49 118v185q0 69 49 118t118 49zM101 355v-187q0 -28 19.5 -47.5t46.5 -19.5h345q28 0 47.5 19.5t19.5 47.5v187q0 28 -19.5 47.5t-47.5 19.5h-345q-27 0 -46.5 -19.5t-19.5 -47.5z
M467 547h-255q-22 0 -36.5 14.5t-14.5 35.5t14.5 35.5t36.5 14.5h255q22 0 36.5 -14.5t14.5 -35.5t-14.5 -35.5t-36.5 -14.5z" />
    <glyph glyph-name="Ohungarumlaut" unicode="&#x150;" 
 />
    <glyph glyph-name="OE" unicode="&#x152;" horiz-adv-x="1282" 
d="M743 97h344q21 0 36 -15.5t15 -36.5q0 -20 -15.5 -36t-35.5 -16h-344q-72 0 -124 54q-54 -47 -118 -47h-328q-71 0 -122 50.5t-51 121.5v459q0 71 51 121.5t122 50.5h328q75 0 125 -53q50 47 117 47h344q21 0 36 -15t15 -37q0 -20 -15.5 -35.5t-35.5 -15.5h-344
q-29 0 -49.5 -20.5t-20.5 -48.5v-178h401q22 0 37 -14.5t15 -37.5q0 -21 -15 -36t-37 -15h-401v-177q0 -29 20.5 -49.5t49.5 -20.5zM173 104h328q29 0 49.5 20t20.5 48v459q0 28 -20.5 48t-49.5 20h-328q-28 0 -48.5 -20t-20.5 -48v-459q0 -28 20.5 -48t48.5 -20z" />
    <glyph glyph-name="oe" unicode="&#x153;" horiz-adv-x="1083" 
d="M615 520h182q68 0 117 -48.5t49 -117.5v-103q0 -21 -14.5 -35.5t-35.5 -14.5h-363q0 -41 -1 -46q5 -23 23.5 -38.5t42.5 -15.5h281q20 0 35 -14.5t15 -34.5q0 -21 -15 -35.5t-35 -14.5h-281q-68 0 -116 45q-49 -47 -116 -47h-217q-69 0 -118 49t-49 118v186q0 69 49 118
t118 49h217q65 0 115 -48q50 48 117 48zM99 353v-186q0 -28 20 -47.5t47 -19.5h217q27 0 46.5 19.5t19.5 47.5v189q-2 26 -21 45t-45 19h-217q-27 0 -47 -19.5t-20 -47.5zM550 368v-68h314v54q0 28 -19.5 47.5t-47.5 19.5h-182q-24 0 -42 -15t-23 -38z" />
    <glyph glyph-name="Rcaron" unicode="&#x158;" horiz-adv-x="820" 
d="M568 800q71 0 121.5 -50.5t50.5 -121.5v-163q0 -71 -50 -121t-121 -51q34 -87 90 -222q4 -8 4 -18q0 -35 -33 -49q-8 -4 -19 -4q-35 0 -48 32l-103 261h-356v-241q0 -21 -15.5 -36.5t-36.5 -15.5q-22 0 -37 15t-15 37v576q0 71 50.5 121.5t122.5 50.5h395zM638 465v163
q0 28 -20.5 48t-49.5 20h-395q-28 0 -48.5 -20t-20.5 -48v-232h464q29 0 49.5 20.5t20.5 48.5zM299 859l-59 79q-8 13 -8 27q0 27 18 40q12 9 28 9q26 0 39 -18l22 -29l21 29q14 18 37 18q15 0 29 -9q18 -13 18 -38q0 -16 -9 -29q-9 -12 -59 -78q-14 -19 -38 -19t-39 18z
" />
    <glyph glyph-name="rcaron" unicode="&#x159;" horiz-adv-x="655" 
d="M162 520h246q67 0 114.5 -47.5t47.5 -114.5q0 -21 -14.5 -35t-34.5 -14t-34 14t-14 35q0 26 -19.5 45t-45.5 19h-246q-26 0 -45 -19t-19 -45v-309q0 -20 -14.5 -34.5t-34.5 -14.5t-34.5 14.5t-14.5 34.5v309q0 67 47.5 114.5t114.5 47.5zM263 584l-59 79q-8 13 -8 27
q0 26 18 40q12 9 28 9q26 0 39 -18l22 -29l21 29q14 18 37 18q15 0 29 -9q18 -14 18 -38q0 -16 -9 -29q-10 -12 -59 -78q-14 -19 -38 -19t-39 18z" />
    <glyph glyph-name="Sacute" unicode="&#x15a;" horiz-adv-x="771" 
d="M171 800h477q22 0 37 -15t15 -37q0 -21 -15.5 -36.5t-36.5 -15.5h-477q-29 0 -49.5 -20t-20.5 -48v-108q0 -28 20.5 -48t49.5 -20h358q71 0 121 -50.5t50 -122.5v-107q0 -71 -50 -121.5t-121 -50.5h-479q-22 0 -36.5 15t-14.5 37q0 21 14.5 36t36.5 15h479q28 0 48 20.5
t20 48.5v107q0 28 -20 48.5t-48 20.5h-358q-71 0 -121.5 50.5t-50.5 121.5v108q0 71 50.5 121.5t121.5 50.5zM429 992q18 -17 18 -38q0 -19 -13 -35l-54 -63q-15 -18 -39 -18q-19 0 -33 12q-16 15 -16 39q0 19 11 33q10 12 30 35t23 27q15 20 40 20q20 0 33 -12z" />
    <glyph glyph-name="sacute" unicode="&#x15b;" horiz-adv-x="719" 
d="M157 520h394q20 0 35 -15t15 -35q0 -19 -15 -33.5t-35 -14.5h-394q-29 0 -48 -17t-19 -40q0 -22 19 -38.5t48 -16.5h283q72 0 121 -44.5t49 -109.5q0 -64 -49.5 -110t-120.5 -46h-398q-20 0 -34.5 14.5t-14.5 35.5t14.5 35t34.5 14h398q29 0 49 17t20 40q0 22 -20 38.5
t-49 16.5h-283q-71 0 -118.5 45t-47.5 109q0 65 47.5 110t118.5 45zM344 705q18 -17 18 -38q0 -19 -13 -35l-54 -63q-15 -18 -39 -18q-20 0 -33 12q-16 15 -16 39q0 19 11 33q10 12 30 35t23 27q15 20 40 20q19 0 33 -12z" />
    <glyph glyph-name="Scedilla" unicode="&#x15e;" horiz-adv-x="771" 
d="M517 452q71 0 121 -50.5t50 -121.5v-108q0 -71 -50 -121.5t-121 -50.5h-121v-36q0 -18 -16 -36q-16 -16 -38 -16q0 -7 10 -7h5q20 0 35.5 -16t15.5 -35q0 -22 -15 -37t-36 -15q-46 0 -81.5 29.5t-36.5 82.5q0 53 49 86h-250q-22 0 -36.5 15t-14.5 37q0 21 14.5 36
t36.5 15h479q28 0 48 20.5t20 48.5v108q0 28 -20 48t-48 20h-358q-71 0 -121.5 50.5t-50.5 122.5v107q0 71 50.5 121.5t121.5 50.5h477q22 0 37 -15t15 -37q0 -20 -15 -35.5t-37 -15.5h-477q-29 0 -49.5 -20t-20.5 -49v-107q0 -29 20.5 -49t49.5 -20h358z" />
    <glyph glyph-name="scedilla" unicode="&#x15f;" horiz-adv-x="719" 
d="M434 309q72 0 123 -45.5t51 -109.5t-51 -109t-123 -45h-93v-42q0 -15 -15 -36q-17 -15 -35 -15h-2q0 -7 9 -7q21 3 38 -13t17 -36q0 -21 -15 -35.5t-35 -14.5q-44 0 -78.5 28t-35.5 77q-1 26 13.5 50t37.5 39v5h-200q-20 0 -34.5 14.5t-14.5 35.5t14.5 35.5t34.5 14.5
h394q30 0 52 16t22 38t-22 38.5t-52 16.5h-272q-71 0 -122 45t-51 109t51 110t122 46h387q20 0 35 -15.5t15 -35.5t-15.5 -35t-34.5 -15h-387q-30 0 -52 -16.5t-22 -38.5t22 -38t52 -16h272z" />
    <glyph glyph-name="Scaron" unicode="&#x160;" horiz-adv-x="786" 
d="M172 800h477q22 0 37 -15t15 -37q0 -21 -15.5 -36.5t-36.5 -15.5h-477q-29 0 -49.5 -20t-20.5 -48v-108q0 -28 20.5 -48t49.5 -20h358q71 0 121 -50.5t50 -122.5v-107q0 -71 -50 -121.5t-121 -50.5h-479q-22 0 -36.5 15t-14.5 37q0 21 14.5 36t36.5 15h479q28 0 48 20.5
t20 48.5v107q0 28 -20 48.5t-48 20.5h-358q-71 0 -121.5 50.5t-50.5 121.5v108q0 71 50.5 121.5t121.5 50.5zM303 854l-59 79q-8 13 -8 27q0 26 18 40q12 9 28 9q26 0 39 -18l22 -29l21 29q14 18 37 18q15 0 29 -9q18 -14 18 -38q0 -16 -9 -29q-9 -12 -59 -78
q-14 -19 -38 -19t-39 18z" />
    <glyph glyph-name="scaron" unicode="&#x161;" horiz-adv-x="719" 
d="M157 520h394q20 0 35 -15t15 -35q0 -19 -15 -33.5t-35 -14.5h-394q-29 0 -48 -17t-19 -40q0 -22 19 -38.5t48 -16.5h283q72 0 121 -44.5t49 -109.5q0 -64 -49.5 -110t-120.5 -46h-398q-20 0 -34.5 14.5t-14.5 35.5t14.5 35t34.5 14h398q29 0 49 17t20 40q0 22 -20 38.5
t-49 16.5h-283q-71 0 -118.5 45t-47.5 109q0 65 47.5 110t118.5 45zM260 563l-59 79q-8 13 -8 27q0 27 18 40q12 9 28 9q25 0 39 -18l22 -29l21 29q13 18 37 18q16 0 29 -9q18 -13 18 -38q0 -15 -9 -29q-9 -12 -59 -78q-14 -19 -38 -19t-39 18z" />
    <glyph glyph-name="Umacron" unicode="&#x16a;" horiz-adv-x="852" 
d="M658 172v576q0 22 15 37t36 15q22 0 37 -15t15 -37v-576q0 -71 -50.5 -121.5t-121.5 -50.5h-417q-71 0 -121.5 50.5t-50.5 121.5v576q0 22 14.5 37t36.5 15t36.5 -15t14.5 -37v-576q0 -29 20.5 -49t49.5 -20h417q28 0 48.5 20.5t20.5 48.5zM501 775h-255
q-22 0 -36.5 14.5t-14.5 35.5t14.5 35.5t36.5 14.5h255q22 0 36.5 -14.5t14.5 -35.5t-14.5 -35.5t-36.5 -14.5z" />
    <glyph glyph-name="umacron" unicode="&#x16b;" horiz-adv-x="683" 
d="M540 0h-373q-69 0 -118 49t-49 118v303q0 20 14.5 35t35.5 15q20 0 35.5 -15t15.5 -35v-303q0 -28 19.5 -47.5t46.5 -19.5h323v369q0 20 14.5 35t35.5 15t35.5 -15t14.5 -35v-419q0 -20 -14.5 -35t-35.5 -15zM424 492h-255q-22 0 -36.5 14.5t-14.5 35.5t14.5 35.5
t36.5 14.5h255q22 0 36.5 -14.5t14.5 -35.5t-14.5 -35.5t-36.5 -14.5z" />
    <glyph glyph-name="Ydieresis" unicode="&#x178;" horiz-adv-x="797" 
d="M682 801q22 0 36.5 -15t14.5 -37v-219q0 -71 -50.5 -121.5t-121.5 -50.5h-129v-305q0 -22 -14.5 -37t-36.5 -15t-36.5 15t-14.5 37v305h-158q-71 0 -121.5 50.5t-50.5 121.5v219q0 22 15 37t37 15q21 0 36.5 -15.5t15.5 -36.5v-219q0 -28 20 -48.5t48 -20.5h389
q29 0 49 20.5t20 48.5v219q0 22 15.5 37t36.5 15zM201 736v33q0 22 14.5 37t36.5 15q21 0 36.5 -15t15.5 -37v-33q0 -20 -15.5 -36t-36.5 -16t-36 15.5t-15 36.5zM427 736v33q0 22 14.5 37t36.5 15q21 0 36.5 -15t15.5 -37v-33q0 -20 -15.5 -36t-36.5 -16t-36 15.5t-15 36.5
z" />
    <glyph glyph-name="Zacute" unicode="&#x179;" horiz-adv-x="764" 
d="M52 800h597q33 0 47 -31q8 -28 -9 -53l-523 -612h505q21 0 36.5 -15.5t15.5 -36.5q0 -22 -15 -37t-37 -15h-617q-21 0 -36.5 15.5t-15.5 36.5t12 33l524 612h-484q-21 0 -36.5 15t-15.5 36t15.5 36.5t36.5 15.5zM420 989q18 -17 18 -38q0 -19 -13 -35l-54 -63
q-15 -18 -39 -18q-20 0 -33 12q-16 15 -16 39q0 19 11 33q10 12 30 35t23 27q15 20 40 20q19 0 33 -12z" />
    <glyph glyph-name="zacute" unicode="&#x17a;" horiz-adv-x="687" 
d="M549 520q19 0 32.5 -16.5t13.5 -38.5q0 -27 -22 -43q-302 -250 -392 -325h369q20 0 34 -14.5t14 -34.5q0 -21 -13.5 -34.5t-34.5 -13.5h-511q-18 0 -32.5 14.5t-14.5 32.5q0 26 19 41q310 259 401 334h-368q-22 0 -37 13t-15 36q0 20 14.5 34.5t36.5 14.5h506zM346 698
q18 -16 18 -38q0 -19 -13 -35l-54 -63q-15 -18 -39 -18q-20 0 -33 12q-16 15 -16 39q0 19 11 33q10 12 30 35t23 27q15 20 40 20q19 0 33 -12z" />
    <glyph glyph-name="Zcaron" unicode="&#x17d;" horiz-adv-x="754" 
d="M52 800h597q33 0 47 -31q8 -28 -9 -53l-523 -612h505q21 0 36.5 -15.5t15.5 -36.5q0 -22 -15 -37t-37 -15h-617q-21 0 -36.5 15.5t-15.5 36.5t12 33l524 612h-484q-21 0 -36.5 15t-15.5 36t15.5 36.5t36.5 15.5zM304 857l-59 79q-8 13 -8 27q0 27 18 40q12 9 28 9
q25 0 39 -18l22 -29l21 29q13 18 37 18q16 0 29 -9q18 -13 18 -38q0 -15 -9 -29q-9 -12 -59 -78q-14 -19 -38 -19t-39 18z" />
    <glyph glyph-name="zcaron" unicode="&#x17e;" horiz-adv-x="687" 
d="M549 520q19 0 32.5 -16.5t13.5 -38.5q0 -27 -22 -43q-302 -250 -392 -325h369q20 0 34 -14.5t14 -34.5q0 -21 -13.5 -34.5t-34.5 -13.5h-511q-18 0 -32.5 14.5t-14.5 32.5q0 26 19 41q310 259 401 334h-368q-22 0 -37 13t-15 36q0 20 14.5 34.5t36.5 14.5h506zM257 572
l-59 79q-8 13 -8 27q0 26 18 40q12 9 28 9q26 0 39 -18l22 -29l21 29q14 18 37 18q15 0 29 -9q18 -14 18 -38q0 -16 -9 -29q-9 -12 -59 -78q-14 -19 -38 -19t-39 18z" />
    <glyph glyph-name="florin" unicode="&#x192;" horiz-adv-x="479" 
 />
    <glyph glyph-name="circumflex" unicode="&#x2c6;" horiz-adv-x="430" 
d="M243 662l59 -78q12 -16 9 -36t-18 -31q-16 -12 -35 -9.5t-31 17.5l-22 29q-5 -5 -11.5 -14.5t-8.5 -12.5q-14 -15 -33.5 -18.5t-35.5 8.5q-16 11 -18.5 31t9.5 36l59 78q16 19 39 19q24 0 38 -19z" />
    <glyph glyph-name="caron" unicode="&#x2c7;" horiz-adv-x="325" 
d="M76 479l-59 79q-8 13 -8 27q0 27 18 40q12 9 28 9q25 0 39 -18l22 -29l21 29q13 18 37 18q15 0 29 -9q18 -13 18 -38q0 -15 -9 -29q-9 -12 -59 -78q-14 -19 -38 -19t-39 18z" />
    <glyph glyph-name="breve" unicode="&#x2d8;" horiz-adv-x="470" 
d="M-10 601q14 32 46 32q10 0 22 -5q64 -27 124 -27q41 0 112 27q9 4 21 4q36 0 47 -34l-1 3q5 -12 5 -22q0 -33 -33 -47q-110 -37 -151 -37q-73 0 -165 37q-32 13 -32 46q0 10 5 23z" />
    <glyph glyph-name="dotaccent" unicode="&#x2d9;" horiz-adv-x="237" 
d="M50 930q20 0 34 -14.5t14 -33.5v-38q0 -22 -14 -36.5t-34 -14.5q-23 0 -37.5 14t-14.5 37v38q0 19 15 33.5t37 14.5z" />
    <glyph glyph-name="ring" unicode="&#x2da;" horiz-adv-x="391" 
d="M186 498q-45 0 -75 29q-30 31 -30 75q0 23 9 41v-1q6 20 23 35q16 14 32 21h-1q19 8 42 8q21 0 40 -8h-1q17 -6 35 -22q15 -15 21 -35v1q9 -18 9 -40q0 -24 -9 -41v1q-5 -17 -21 -33q-18 -18 -34 -23h1q-16 -8 -41 -8zM166 602q0 -7 7 -13q4 -6 13 -6q8 0 12 5q7 7 7 14
q0 8 -7 12q-4 7 -12 7t-14 -7q-6 -4 -6 -12z" />
    <glyph glyph-name="ogonek" unicode="&#x2db;" horiz-adv-x="229" 
d="M111 50h65l9 -38q-8 -4 -10 -6q-25 -17 -39 -41v1q-10 -17 -10 -29q0 -8 4 -16h10q10 0 17 2q1 0 5 1.5t12 5t17 7.5l24 -69q-8 -4 -33 -14.5t-26 -10.5l-8 -3q-11 -4 -14 -4q-2 0 -8.5 -1t-8.5 -2l-2 -1h-3h4q-4 -1 -18 -1q-34 0 -60 19q-29 22 -29 62q0 36 29 74
q24 34 73 64z" />
    <glyph glyph-name="tilde" unicode="&#x2dc;" horiz-adv-x="729" 
d="M-51 619q53 30 114 30q44 0 82 -16h-1q23 -11 57 -11q39 0 68 16q19 10 39 4.5t30 -24.5q10 -18 3.5 -38t-23.5 -31q-50 -29 -116 -29q-51 0 -97 20q-21 8 -41 8q-31 0 -67 -18q-19 -10 -39 -4.5t-30 24.5t-3.5 39t24.5 30z" />
    <glyph glyph-name="hungarumlaut" unicode="&#x2dd;" horiz-adv-x="531" 
d="M249 675q18 -17 18 -39q0 -20 -13 -34l-54 -63q-15 -18 -39 -18q-19 0 -33 12q-16 15 -16 39q0 19 11 33q10 12 30 35t23 27q15 20 40 20q20 0 33 -12zM416 675q19 -16 19 -40q0 -19 -13 -33l-54 -63q-15 -18 -39 -18q-19 0 -33 12q-17 15 -17 39q0 19 11 33q51 60 53 62
q17 20 40 20q19 0 33 -12z" />
    <glyph glyph-name="uni0401" unicode="&#x401;" 
 />
    <glyph glyph-name="uni0405" unicode="&#x405;" horiz-adv-x="786" 
d="M172 801h477q22 0 37 -15t15 -37q0 -21 -15.5 -36.5t-36.5 -15.5h-477q-29 0 -49.5 -20t-20.5 -48v-108q0 -28 20.5 -48t49.5 -20h358q71 0 121 -50.5t50 -122.5v-107q0 -71 -50 -121.5t-121 -50.5h-479q-22 0 -36.5 15t-14.5 37q0 21 14.5 36t36.5 15h479q28 0 48 20.5
t20 48.5v107q0 28 -20 48.5t-48 20.5h-358q-71 0 -121.5 50.5t-50.5 121.5v108q0 71 50.5 121.5t121.5 50.5z" />
    <glyph glyph-name="uni0406" unicode="&#x406;" horiz-adv-x="206" 
d="M0 53v696q0 22 15 37t37 15q21 0 36.5 -15.5t15.5 -36.5v-696q0 -21 -15.5 -36.5t-36.5 -15.5q-22 0 -37 15t-15 37z" />
    <glyph glyph-name="uni0407" unicode="&#x407;" horiz-adv-x="228" 
d="M1 748v-696q0 -22 15 -37t37 -15q21 0 36.5 15.5t15.5 36.5v696q0 21 -15.5 36.5t-36.5 15.5q-22 0 -37 -15t-15 -37zM-106 872v32q0 21 14.5 35.5t35.5 14.5q20 0 35 -14.5t15 -35.5v-32q0 -20 -15 -35t-35 -15q-21 0 -35.5 15t-14.5 35zM113 872v32q0 21 14.5 35.5
t35.5 14.5t36 -14.5t15 -35.5v-32q0 -20 -15.5 -35t-35.5 -15q-21 0 -35.5 15t-14.5 35z" />
    <glyph glyph-name="uni0408" unicode="&#x408;" horiz-adv-x="777" 
d="M680 749v-576q0 -71 -50.5 -121.5t-121.5 -50.5h-470q-22 0 -36.5 15t-14.5 37q0 21 15 36t36 15h470q28 0 48.5 20.5t20.5 48.5v576q0 22 14.5 37t36.5 15q21 0 36.5 -15t15.5 -37z" />
    <glyph glyph-name="afii10061" unicode="&#x40c;" horiz-adv-x="750" 
d="M596 735q-8 -31 -23.5 -88t-28 -103.5t-23.5 -87.5q79 -7 116 -58t37 -110v-236q0 -23 -16 -37.5t-37 -14.5t-36 14.5t-15 37.5v236q0 28 -19 46.5t-48 18.5h-399v-301q0 -23 -15.5 -37.5t-35.5 -14.5q-24 0 -38.5 14t-14.5 38v696q0 21 15 36.5t38 15.5q20 0 35.5 -16
t15.5 -36v-291h310q41 148 83 305q13 37 51 37q8 0 12 -1q16 -5 27.5 -18t11.5 -30q0 -8 -3 -15zM383 840q18 -16 18 -38q0 -19 -13 -35l-54 -63q-15 -18 -39 -18q-19 0 -33 12q-16 15 -16 39q0 19 11 33q10 12 30 35t23 27q15 20 40 20q19 0 33 -12z" />
    <glyph glyph-name="afii10062" unicode="&#x40e;" 
 />
    <glyph glyph-name="afii10017" unicode="&#x410;" horiz-adv-x="802" 
d="M172 801h373q71 0 121.5 -50.5t50.5 -121.5v-576q0 -21 -15.5 -36.5t-36.5 -15.5t-36.5 15.5t-15.5 36.5v304h-510v-304q0 -22 -15.5 -37t-36.5 -15t-36 15.5t-15 36.5v576q0 71 50.5 121.5t121.5 50.5zM103 629v-170h510v170q0 28 -20 48t-48 20h-373q-29 0 -49 -20
t-20 -48z" />
    <glyph glyph-name="afii10018" unicode="&#x411;" horiz-adv-x="794" 
d="M709 288v-117q0 -71 -50.5 -121.5t-121.5 -50.5h-365q-71 0 -121.5 50t-50.5 121v459q0 71 50 121t121 50h442q21 0 36.5 -15t15.5 -37q0 -21 -15.5 -36t-36.5 -15h-442q-28 0 -48 -20t-20 -48v-169h434q71 0 121.5 -50.5t50.5 -121.5zM606 171v117q0 28 -20 48.5
t-49 20.5h-434v-187q0 -28 20 -47.5t49 -19.5h365q28 0 48.5 20t20.5 48z" />
    <glyph glyph-name="afii10019" unicode="&#x412;" horiz-adv-x="788" 
d="M502 1h-330q-73 0 -122.5 52t-49.5 128v568q0 20 15.5 36t36.5 16h486q71 0 121.5 -50.5t50.5 -121.5v-100q0 -67 -48 -120q49 -51 49 -121v-115q0 -48 -19 -83.5t-51.5 -54t-66.5 -26.5t-72 -8zM539 357h-436v-176q0 -33 20 -55t49 -22h367q28 0 49 20.5t21 48.5v115
q0 28 -20.5 48.5t-49.5 20.5zM538 697h-435v-237h435q28 0 48.5 20t20.5 49v100q0 28 -20.5 48t-48.5 20z" />
    <glyph glyph-name="afii10020" unicode="&#x413;" horiz-adv-x="722" 
d="M0 52v576q0 71 50.5 121.5t121.5 50.5h413q21 0 36.5 -15.5t15.5 -36.5q0 -20 -16 -35.5t-36 -15.5h-413q-28 0 -48.5 -20.5t-20.5 -48.5v-576q0 -22 -15.5 -37t-36.5 -15q-22 0 -36.5 15t-14.5 37z" />
    <glyph glyph-name="uni0414" unicode="&#x414;" horiz-adv-x="955" 
d="M836 104q20 0 36.5 -17t16.5 -37q0 -21 -16 -35.5t-37 -14.5h-796q-22 0 -36 14.5t-14 35.5q0 20 14.5 37t35.5 17h53v523q0 72 50.5 123t123.5 51h467q20 0 36 -15.5t16 -36.5v-645h50zM199 104h485v593h-417q-29 0 -48.5 -20.5t-19.5 -49.5v-523z" />
    <glyph glyph-name="afii10022" unicode="&#x415;" horiz-adv-x="760" 
d="M172 103h455q20 0 36 -15.5t16 -35.5q0 -21 -15.5 -36.5t-36.5 -15.5h-455q-71 0 -121.5 50.5t-50.5 121.5v456q0 71 50.5 121.5t121.5 50.5h455q21 0 36 -15t15 -37q0 -21 -15 -36.5t-36 -15.5h-455q-28 0 -48 -20t-20 -48v-169h511q21 0 36 -15t15 -36t-15 -36.5
t-36 -15.5h-511v-184q0 -28 20 -48.5t48 -20.5z" />
    <glyph glyph-name="afii10024" unicode="&#x416;" horiz-adv-x="987" 
d="M396 459v289q0 22 15 37t37 15q20 0 35.5 -15t15.5 -37v-289h217q29 0 49.5 20.5t20.5 48.5v220q0 22 14.5 37t36.5 15t36.5 -15t14.5 -37v-220q0 -68 -50 -120q50 -52 50 -121v-235q0 -22 -14.5 -37t-36.5 -15t-36.5 15t-14.5 37v235q0 28 -20.5 48.5t-49.5 20.5h-217
v-304q0 -22 -15.5 -37t-35.5 -15q-22 0 -37 15t-15 37v304h-224q-28 0 -48.5 -20t-20.5 -49v-235q0 -22 -15.5 -37t-36.5 -15q-22 0 -36.5 15t-14.5 37v235q0 70 49 121q-49 49 -49 120v220q0 22 14.5 37t36.5 15q21 0 36.5 -15t15.5 -37v-220q0 -28 20.5 -48.5t48.5 -20.5
h224z" />
    <glyph glyph-name="afii10025" unicode="&#x417;" horiz-adv-x="784" 
d="M699 535q0 -66 -45 -122q45 -56 45 -121v-119q0 -72 -51 -122.5t-123 -50.5h-352q-72 0 -122.5 51t-50.5 122v57q0 21 15 36t36 15q22 0 37 -14.5t15 -36.5v-57q0 -28 21 -48.5t49 -20.5h352q29 0 49.5 20.5t20.5 48.5v119q0 24 -11.5 44.5t-21.5 24.5h-391q-19 0 -34 14
t-18 35q0 23 15.5 39t36.5 16h391q11 9 22 28.5t11 41.5v94q0 28 -20.5 48.5t-49.5 20.5h-352q-29 0 -49.5 -20.5t-20.5 -48.5v-57q0 -22 -15 -36.5t-37 -14.5t-36.5 14.5t-14.5 36.5v57q0 71 50.5 122t122.5 51h352q72 0 123 -50.5t51 -122.5v-94z" />
    <glyph glyph-name="afii10026" unicode="&#x418;" horiz-adv-x="823" 
d="M638 749q0 21 14.5 36.5t38.5 15.5q25 0 38 -15.5t13 -36.5v-706q0 -19 -15.5 -32t-35.5 -13q-25 0 -40 17q-40 -15 -83 -15h-397q-72 0 -121.5 49t-49.5 121v579q0 22 13 37t39 15q25 0 38.5 -15.5t13.5 -36.5v-579q0 -26 20 -46t47 -20h397q28 0 49 20t21 46v579z" />
    <glyph glyph-name="afii10027" unicode="&#x419;" horiz-adv-x="827" 
d="M638 749q0 21 14.5 36.5t38.5 15.5q25 0 38 -15.5t13 -36.5v-706q0 -19 -15.5 -32t-35.5 -13q-25 0 -40 17q-40 -15 -83 -15h-397q-72 0 -121.5 49t-49.5 121v579q0 22 13 37t39 15q25 0 38.5 -15.5t13.5 -36.5v-579q0 -26 20 -46t47 -20h397q28 0 49 20t21 46v579z
M181 842v1q10 21 29 29t42 -1q66 -29 128 -29q42 0 115 29h-1q22 9 43 0t28 -31l-1 2q9 -21 1 -41t-30 -29q-99 -39 -155 -39q-75 0 -171 39q-21 8 -29 28t1 42z" />
    <glyph glyph-name="afii10028" unicode="&#x41a;" horiz-adv-x="759" 
d="M596 735q-8 -31 -23.5 -88t-28 -103.5t-23.5 -87.5q79 -7 116 -58t37 -110v-236q0 -23 -16 -37.5t-37 -14.5t-36 14.5t-15 37.5v236q0 28 -19 46.5t-48 18.5h-399v-301q0 -23 -15.5 -37.5t-35.5 -14.5q-24 0 -38.5 14t-14.5 38v696q0 21 15 36.5t38 15.5q20 0 35.5 -16
t15.5 -36v-291h310q41 148 83 305q13 37 51 37q8 0 12 -1q16 -5 27.5 -18t11.5 -30q0 -8 -3 -15z" />
    <glyph glyph-name="afii10029" unicode="&#x41b;" horiz-adv-x="875" 
d="M273 800h422q20 0 35.5 -15.5t15.5 -36.5v-698q0 -21 -15.5 -36t-35.5 -15q-21 0 -36 15t-15 36v646h-371q-29 0 -48 -20t-19 -50v-453q0 -72 -51.5 -123t-123.5 -51q-21 0 -35.5 15t-14.5 36q0 20 15 37t35 17q30 0 49.5 19t19.5 50v453q0 72 51 123t122 51z" />
    <glyph glyph-name="afii10030" unicode="&#x41c;" horiz-adv-x="1202" 
d="M962 766q14 24 39 32t45 -5t20 -42v-700q0 -21 -15 -36t-37 -15q-21 0 -36 15t-15 36v535l-388 -559q-14 -22 -42 -22t-42 22l-388 559v-535q0 -21 -15 -36t-37 -15q-21 0 -36 15t-15 36v700q0 24 17 38.5t40 12.5t37 -21l439 -634z" />
    <glyph glyph-name="_29" unicode="&#x41d;" horiz-adv-x="831" 
d="M641 801q22 0 36.5 -15t14.5 -37v-696q0 -22 -14.5 -37t-36.5 -15t-36.5 15t-14.5 37v304h-487v-304q0 -22 -15.5 -37t-36.5 -15q-22 0 -36.5 15t-14.5 37v696q0 22 14.5 37t36.5 15q21 0 36.5 -15t15.5 -37v-289h487v289q0 22 14.5 37t36.5 15z" />
    <glyph glyph-name="_30" unicode="&#x41e;" horiz-adv-x="922" 
d="M172 800h450q71 0 121.5 -50.5t50.5 -121.5v-456q0 -71 -50.5 -121.5t-121.5 -50.5h-450q-71 0 -121.5 50.5t-50.5 121.5v456q0 71 50.5 121.5t121.5 50.5zM104 628v-456q0 -28 20 -48.5t48 -20.5h450q28 0 48.5 20.5t20.5 48.5v456q0 28 -20.5 48t-48.5 20h-450
q-28 0 -48 -20t-20 -48z" />
    <glyph glyph-name="afii10033" unicode="&#x41f;" horiz-adv-x="844" 
d="M657 52v576q0 28 -20.5 48.5t-48.5 20.5h-416q-29 0 -49.5 -20t-20.5 -49v-576q0 -22 -14.5 -37t-36.5 -15t-36.5 15t-14.5 37v576q0 71 50.5 121.5t121.5 50.5h416q71 0 121.5 -50.5t50.5 -121.5v-576q0 -22 -15 -37t-37 -15q-20 0 -35.5 15t-15.5 37z" />
    <glyph glyph-name="afii10034" unicode="&#x420;" horiz-adv-x="825" 
d="M173 800h395q71 0 121.5 -50.5t50.5 -121.5v-257q0 -71 -50.5 -121.5t-121.5 -50.5h-464v-147q0 -21 -15.5 -36.5t-36.5 -15.5q-22 0 -37 15t-15 37v576q0 71 50.5 121.5t122.5 50.5zM104 628v-326h464q29 0 49.5 20.5t20.5 48.5v257q0 28 -20.5 48t-49.5 20h-395
q-28 0 -48.5 -20t-20.5 -48z" />
    <glyph glyph-name="afii10035" unicode="&#x421;" horiz-adv-x="764" 
d="M172 801h455q22 0 37 -15t15 -37q0 -21 -15 -36.5t-37 -15.5h-455q-28 0 -48.5 -20t-20.5 -48v-456q0 -28 20.5 -48.5t48.5 -20.5h455q22 0 37 -15t15 -36q0 -22 -15 -37t-37 -15h-455q-71 0 -121.5 50.5t-50.5 121.5v456q0 71 50.5 121.5t121.5 50.5z" />
    <glyph glyph-name="afii10036" unicode="&#x422;" horiz-adv-x="794" 
d="M39 801h654q22 0 37 -15t15 -37q0 -21 -15 -36.5t-37 -15.5h-275v-644q0 -22 -15 -37t-36 -15q-22 0 -37 15t-15 37v644h-276q-21 0 -36 15.5t-15 36.5q0 22 14.5 37t36.5 15z" />
    <glyph glyph-name="afii10037" unicode="&#x423;" horiz-adv-x="763" 
d="M678 749v-576q0 -72 -50.5 -122t-121.5 -50h-409q-22 0 -37 15t-15 36q0 22 15 37t37 15h409q28 0 48 20.5t20 48.5v123q-36 -15 -68 -15h-333q-72 0 -122.5 51t-50.5 122v295q0 22 15 37t37 15q21 0 36.5 -15.5t15.5 -36.5v-295q0 -28 20 -48.5t49 -20.5h333
q28 0 48 20.5t20 48.5v295q0 22 15 37t37 15q21 0 36.5 -15t15.5 -37z" />
    <glyph glyph-name="afii10038" unicode="&#x424;" horiz-adv-x="1194" 
d="M653 800h258q71 0 121 -50.5t50 -121.5v-456q0 -71 -50 -121.5t-121 -50.5h-258q-35 0 -69 14v-74q0 -22 -15 -37t-36 -15q-22 0 -37 15t-15 37v75q-34 -14 -69 -14h-240q-71 0 -121.5 50.5t-50.5 121.5v456q0 71 50.5 121.5t121.5 50.5h240q38 0 69 -14v94q0 22 15 37
t37 15q21 0 36 -15.5t15 -36.5v-95q38 14 69 14zM653 697q-28 0 -47.5 -19.5t-21.5 -46.5v-463q2 -27 21.5 -45.5t47.5 -18.5h258q28 0 48 20t20 48v456q0 28 -20 48.5t-48 20.5h-258zM104 629v-456q0 -28 20 -48.5t48 -20.5h240q28 0 47.5 19.5t21.5 46.5v463q-2 26 -22 45
t-47 19h-240q-28 0 -48 -20t-20 -48z" />
    <glyph glyph-name="afii10039" unicode="&#x425;" horiz-adv-x="865" 
d="M751 528q0 -68 -50 -120q50 -53 50 -121v-235q0 -22 -15 -37t-36 -15q-22 0 -37 15t-15 37v235q0 29 -20.5 49t-49.5 20h-405q-29 0 -49 -20t-20 -49v-235q0 -21 -15.5 -36.5t-36.5 -15.5q-22 0 -37 15t-15 37v235q0 69 49 121q-49 51 -49 120v220q0 22 15 37t37 15
q21 0 36.5 -15.5t15.5 -36.5v-220q0 -28 20 -48.5t49 -20.5h405q29 0 49.5 20t20.5 49v220q0 22 15 37t37 15q21 0 36 -15t15 -37v-220z" />
    <glyph glyph-name="afii10040" unicode="&#x426;" horiz-adv-x="852" 
d="M162 103h456v646q0 21 15.5 36.5t36.5 15.5q22 0 37 -15t15 -37v-646h24q71 0 121.5 -51t50.5 -122v-74q0 -20 -15.5 -36t-35.5 -16q-21 0 -36.5 16t-15.5 36v74q0 28 -20.5 48.5t-48.5 20.5h-584q-72 0 -122 50.5t-50 121.5v578q0 22 15 37t37 15q21 0 36 -15t15 -37
v-578q0 -28 20.5 -48t48.5 -20z" />
    <glyph glyph-name="afii10041" unicode="&#x427;" horiz-adv-x="792" 
d="M575 750q0 20 15.5 36t36.5 16t36 -15.5t15 -36.5v-697q0 -22 -14.5 -37t-36.5 -15q-21 0 -36.5 15t-15.5 37v267q-35 -14 -69 -14h-346q-72 0 -122.5 50.5t-50.5 122.5v271q0 21 15 36.5t36 15.5t36.5 -15.5t15.5 -36.5v-271q0 -29 20.5 -49.5t49.5 -20.5h346
q28 0 48.5 20.5t20.5 49.5v271z" />
    <glyph glyph-name="afii10042" unicode="&#x428;" horiz-adv-x="1417" 
d="M1114 0h-352q-70 0 -121 49q-53 -49 -120 -49h-352q-71 0 -121.5 50.5t-50.5 121.5v576q0 22 15.5 37t36.5 15q22 0 36.5 -15t14.5 -37v-576q0 -28 20 -48t49 -20h352q29 0 49.5 20t20.5 48v576q0 22 14.5 37t36.5 15t36.5 -15t14.5 -37v-576q0 -28 20 -48t49 -20h352
q29 0 49.5 20t20.5 48v576q0 22 14.5 37t36.5 15t36.5 -15t14.5 -37v-576q0 -71 -50.5 -121.5t-121.5 -50.5z" />
    <glyph glyph-name="afii10043" unicode="&#x429;" horiz-adv-x="1355" 
d="M519 169v585q0 21 14.5 36t36.5 15q21 0 35.5 -15t14.5 -36v-585q0 -27 20 -47t48 -20h357q0 13 -0.5 154t-0.5 238q0 195 1 257q2 20 16 35.5t35 15.5t36.5 -15.5t15.5 -35.5v-647q70 0 120.5 -50.5t50.5 -121.5v-73q0 -22 -15 -37t-37 -15q-21 0 -36.5 15.5t-15.5 36.5
v73q0 28 -20 48.5t-48 20.5l-459 -1q-67 0 -117 48q-53 -48 -119 -48h-286q-71 0 -120.5 49.5t-49.5 119.5v581q0 21 15 36t36 15t36 -15t15 -36v-581q0 -27 20 -47t48 -20h286q28 0 47.5 20t19.5 47z" />
    <glyph glyph-name="afii10044" unicode="&#x42a;" horiz-adv-x="946" 
d="M227 172q0 -28 20.5 -48t48.5 -20h395q29 0 49.5 20t20.5 48v198q0 29 -20.5 49t-49.5 20h-464v-267zM691 542q71 0 121.5 -50.5t50.5 -121.5v-198q0 -71 -50.5 -121.5t-121.5 -50.5h-395q-71 0 -122 50.5t-51 121.5v525h-176q-22 0 -37 14.5t-15 36.5q0 21 15 36.5
t37 15.5h228q21 0 36.5 -15t15.5 -37v-206h464z" />
    <glyph glyph-name="afii10045" unicode="&#x42b;" horiz-adv-x="1015" 
d="M172 0q-71 0 -121.5 50.5t-50.5 121.5v576q0 22 15 37t37 15q21 0 36.5 -15.5t15.5 -36.5v-206h464q71 0 121.5 -50.5t50.5 -121.5v-198q0 -71 -50.5 -121.5t-121.5 -50.5h-396zM104 172q0 -28 20 -48t48 -20h396q28 0 48.5 20t20.5 48v198q0 28 -20.5 48.5t-48.5 20.5
h-464v-267zM809 748v-696q0 -22 15 -37t37 -15q21 0 36.5 15.5t15.5 36.5v696q0 21 -15.5 36.5t-36.5 15.5q-22 0 -37 -15t-15 -37z" />
    <glyph glyph-name="afii10046" unicode="&#x42c;" horiz-adv-x="833" 
d="M160 0q-72 0 -122.5 50.5t-50.5 121.5v576q0 22 15 37t37 15q21 0 36.5 -15.5t15.5 -36.5v-206h464q71 0 121.5 -50.5t50.5 -121.5v-198q0 -71 -50.5 -121.5t-121.5 -50.5h-395zM91 172q0 -28 20.5 -48t48.5 -20h395q29 0 49.5 20t20.5 48v198q0 28 -20.5 48.5
t-49.5 20.5h-464v-267z" />
    <glyph glyph-name="afii10047" unicode="&#x42d;" horiz-adv-x="740" 
d="M45 104h454q28 0 48.5 20.5t20.5 48.5v184h-511q-22 0 -37 15.5t-15 36.5t15.5 36t36.5 15h511v169q0 28 -20.5 48t-48.5 20h-454q-21 0 -36 15.5t-15 36.5q0 22 15 37t36 15h454q72 0 122.5 -50.5t50.5 -121.5v-456q0 -71 -50.5 -121.5t-122.5 -50.5h-454
q-21 0 -36.5 15.5t-15.5 36.5q0 20 16 35.5t36 15.5z" />
    <glyph glyph-name="afii10048" unicode="&#x42e;" horiz-adv-x="1010" 
d="M0 52v696q0 22 15 37t37 15q21 0 36.5 -15.5t15.5 -36.5v-289h62v168q0 71 50.5 121.5t121.5 50.5h375q71 0 121.5 -50.5t50.5 -121.5v-455q0 -71 -50.5 -121.5t-121.5 -50.5h-375q-71 0 -121.5 50.5t-50.5 121.5v184h-62v-304q0 -21 -15.5 -36.5t-36.5 -15.5
q-22 0 -37 15t-15 37zM269 627v-455q0 -28 20.5 -48t48.5 -20h375q28 0 48 20t20 48v455q0 28 -20 48.5t-48 20.5h-375q-28 0 -48.5 -20t-20.5 -49z" />
    <glyph glyph-name="afii10049" unicode="&#x42f;" horiz-adv-x="838" 
d="M186 264q-28 0 -47.5 -20t-19.5 -48v-144q0 -21 -15.5 -36.5t-36.5 -15.5q-22 0 -37 15t-15 37v144q0 67 42 112q-59 48 -59 129v191q0 71 50.5 121.5t122.5 50.5h395q71 0 121.5 -50.5t50.5 -121.5v-576q0 -22 -15 -37t-37 -15q-20 0 -35.5 15t-15.5 37v212h-449z
M635 368v260q0 28 -20.5 48.5t-48.5 20.5h-395q-29 0 -49.5 -20.5t-20.5 -48.5v-191q0 -29 20.5 -49t49.5 -20h464z" />
    <glyph glyph-name="afii10065" unicode="&#x430;" horiz-adv-x="708" 
d="M54 520h393q68 0 116 -48t48 -116v-192q0 -68 -47.5 -116t-115.5 -48h-284q-68 0 -116 48t-48 116q0 69 48.5 117t116.5 48h348v27q0 28 -19.5 47t-46.5 19h-393q-21 0 -35.5 14.5t-14.5 34.5t14.5 34.5t35.5 14.5zM99 164q0 -26 19 -45.5t46 -19.5h284q27 0 46 19.5
t19 45.5v66h-348q-28 0 -47 -19.5t-19 -46.5z" />
    <glyph glyph-name="afii10066" unicode="&#x431;" horiz-adv-x="719" 
d="M-9 169v439q0 70 49.5 119.5t119.5 49.5h359q20 0 34.5 -14.5t14.5 -35.5q0 -22 -14.5 -36.5t-34.5 -14.5h-359q-29 0 -49 -19.5t-20 -48.5v-99q31 14 69 14h283q68 0 117 -50t49 -118v-186q0 -70 -48.5 -119.5t-117.5 -49.5h-283q-70 0 -119.5 49t-49.5 120zM91 355
v-186q0 -29 20 -49t49 -20h283q27 0 47 20.5t20 48.5v186q0 26 -20 46.5t-47 20.5h-283q-29 0 -49 -20t-20 -47z" />
    <glyph glyph-name="afii10067" unicode="&#x432;" horiz-adv-x="719" 
d="M-9 169v438q0 71 49.5 120t119.5 49h177q68 0 116.5 -49.5t48.5 -119.5v-92q0 -44 -16 -76q55 -10 89.5 -53.5t34.5 -102.5v-114q0 -70 -48.5 -119.5t-116.5 -49.5h-285q-70 0 -119.5 49t-49.5 120zM91 448h246q27 0 46.5 20t19.5 47v92q0 29 -19.5 48.5t-46.5 19.5h-177
q-29 0 -49 -19.5t-20 -48.5v-159zM91 347v-178q0 -29 20 -49t49 -20h285q27 0 46.5 20.5t19.5 48.5v114q0 25 -19.5 44.5t-46.5 19.5h-354z" />
    <glyph glyph-name="afii10068" unicode="&#x433;" horiz-adv-x="637" 
d="M152 520h246q67 0 114.5 -47.5t47.5 -114.5q0 -20 -14.5 -34.5t-34.5 -14.5t-34 14.5t-14 34.5q0 27 -19 45.5t-46 18.5h-246q-26 0 -45 -18.5t-19 -45.5v-308q0 -20 -14.5 -34.5t-34.5 -14.5t-34.5 14.5t-14.5 34.5v308q0 67 47.5 114.5t114.5 47.5z" />
    <glyph glyph-name="afii10069" unicode="&#x434;" horiz-adv-x="729" 
d="M167 99h351v257q0 27 -19.5 46.5t-46.5 19.5h-285q-28 0 -47.5 -20t-19.5 -48v-187q0 -28 19.5 -48t47.5 -20zM452 -260h-362q-21 0 -35.5 14.5t-14.5 35.5t14.5 35.5t35.5 14.5h362q27 0 46.5 20t19.5 47v93h-351q-69 0 -118 48.5t-49 118.5v185q0 70 49 119t118 49h285
q69 0 118 -49t49 -119v-445q0 -69 -49 -118t-118 -49z" />
    <glyph glyph-name="afii10070" unicode="&#x435;" horiz-adv-x="711" 
d="M166 520h282q68 0 117 -48.5t49 -117.5v-105q0 -21 -14.5 -35.5t-35.5 -14.5h-466v-33q0 -27 19.5 -47t47.5 -20h382q20 0 35 -14t15 -35t-15 -35.5t-35 -14.5h-381q-69 0 -117.5 48.5t-48.5 117.5v188q0 69 48.5 117.5t117.5 48.5zM98 355v-57h417v57q0 28 -19.5 47.5
t-47.5 19.5h-283q-28 0 -47.5 -19.5t-19.5 -47.5z" />
    <glyph glyph-name="afii10072" unicode="&#x436;" horiz-adv-x="817" 
d="M309 317v409q0 21 14.5 35.5t36.5 14.5q20 0 35 -14.5t15 -35.5v-409h144q28 0 48 19.5t20 46.5v87q0 22 14 36t36 14q20 0 34.5 -14t14.5 -36v-87q0 -66 -48 -116q48 -50 48 -117v-100q0 -21 -14.5 -35.5t-34.5 -14.5q-22 0 -36 14.5t-14 35.5v100q0 27 -20 46.5
t-48 19.5h-144v-166q0 -21 -15 -35.5t-35 -14.5q-22 0 -36.5 14.5t-14.5 35.5v166h-149q-27 0 -46.5 -19.5t-19.5 -46.5v-100q0 -21 -15 -35.5t-35 -14.5q-22 0 -36.5 14.5t-14.5 35.5v100q0 66 48 117q-48 50 -48 116v87q0 22 14.5 36t36.5 14q20 0 35 -14.5t15 -35.5v-87
q0 -27 19.5 -46.5t46.5 -19.5h149z" />
    <glyph glyph-name="afii10073" unicode="&#x437;" horiz-adv-x="709" 
d="M603 297q0 -77 -44 -119q44 -46 44 -117v-150q0 -70 -49.5 -119t-119.5 -49h-275q-70 0 -119 49.5t-49 118.5v55q0 21 14.5 35.5t35.5 14.5t35.5 -14t14.5 -36v-55q0 -27 20 -47t48 -20h275q28 0 48 19.5t20 47.5v150q0 29 -19 48t-48 20h-278q-19 0 -33.5 13t-16.5 34
q0 22 15 37.5t35 15.5h277q31 -2 49.5 18t18.5 50v56q0 29 -20 48.5t-48 19.5h-275q-28 0 -48 -20t-20 -48v-54q0 -22 -14.5 -36.5t-35.5 -14.5t-35.5 14.5t-14.5 36.5v54q0 70 49 119t119 49h275q70 0 119.5 -49t49.5 -119v-56z" />
    <glyph glyph-name="_56" unicode="&#x438;" horiz-adv-x="703" 
d="M540 0h-373q-69 0 -118 49t-49 118v303q0 20 14.5 35t35.5 15q20 0 35.5 -15t15.5 -35v-303q0 -28 19.5 -47.5t46.5 -19.5h323v369q0 20 14.5 35t35.5 15t35.5 -15t14.5 -35v-419q0 -20 -14.5 -35t-35.5 -15z" />
    <glyph glyph-name="afii10075" unicode="&#x439;" horiz-adv-x="683" 
d="M540 0h-373q-69 0 -118 49t-49 118v303q0 20 14.5 35t35.5 15q20 0 35.5 -15t15.5 -35v-303q0 -28 19.5 -47.5t46.5 -19.5h323v369q0 20 14.5 35t35.5 15t35.5 -15t14.5 -35v-419q0 -20 -14.5 -35t-35.5 -15zM128 621q14 32 46 32q10 0 22 -5q64 -27 124 -27q41 0 112 27
q9 4 21 4q36 0 47 -34l-1 3q5 -12 5 -22q0 -33 -33 -47q-110 -37 -151 -37q-72 0 -165 37q-32 13 -32 46q0 10 5 23z" />
    <glyph glyph-name="_58" unicode="&#x43a;" horiz-adv-x="652" 
d="M560 470v-72q0 -69 -48 -119q48 -50 48 -117v-112q0 -20 -15 -35t-35 -15t-35 15t-15 35v112q0 28 -20 47.5t-48 19.5h-291v-179q0 -20 -14.5 -35t-35.5 -15q-20 0 -35.5 15t-15.5 35v676q0 20 15.5 35t35.5 15q21 0 35.5 -15t14.5 -35v-396h291q28 0 48 20t20 48v72
q0 21 15 35.5t35 14.5t35 -14.5t15 -35.5z" />
    <glyph glyph-name="afii10077" unicode="&#x43b;" horiz-adv-x="709" 
d="M86 26q-10 -19 -30 -24.5t-39 4.5q-17 11 -23 30.5t4 38.5l234 421q15 25 44 25h49q28 0 44 -25q39 -69 119 -210.5t119 -210.5q10 -19 4.5 -38.5t-23.5 -30.5q-18 -10 -38 -3.5t-30 23.5q-205 364 -220 388q-7 -13 -214 -388z" />
    <glyph glyph-name="afii10078" unicode="&#x43c;" horiz-adv-x="803" 
d="M572 521h58q19 0 33.5 -16t14.5 -35v-417q0 -23 -14.5 -38t-34.5 -15q-23 0 -37 14.5t-14 38.5v320l-197 -347q-13 -26 -43 -26q-36 0 -49 27q-5 8 -40 70.5t-83.5 148t-72.5 128.5v-321q0 -24 -14 -38.5t-35 -14.5q-24 0 -38 14.5t-14 38.5v417q0 20 15 35.5t38 15.5h54
q29 0 46 -28q151 -263 193 -335l192 340q2 1 2 2q16 21 40 21z" />
    <glyph glyph-name="afii10079" unicode="&#x43d;" horiz-adv-x="704" 
d="M499 318v153q0 21 14.5 35.5t35.5 14.5t36 -14.5t15 -35.5v-422q0 -21 -15 -35.5t-36 -14.5t-35.5 14.5t-14.5 35.5v168h-408v-168q0 -21 -15 -35.5t-35 -14.5q-22 0 -36 14.5t-14 35.5v422q0 21 14 35.5t36 14.5q20 0 35 -14.5t15 -35.5v-153h408z" />
    <glyph glyph-name="afii10080" unicode="&#x43e;" horiz-adv-x="774" 
d="M167 520h345q70 0 119 -49t49 -118v-185q0 -69 -49 -118t-119 -49h-345q-69 0 -118 49t-49 118v185q0 69 49 118t118 49zM101 355v-187q0 -28 19.5 -47.5t46.5 -19.5h345q28 0 47.5 19.5t19.5 47.5v187q0 28 -19.5 47.5t-47.5 19.5h-345q-27 0 -46.5 -19.5t-19.5 -47.5z
" />
    <glyph glyph-name="_63" unicode="&#x43f;" horiz-adv-x="664" 
d="M49 520h355q70 0 118.5 -49t48.5 -118v-303q0 -21 -14.5 -35.5t-35.5 -14.5q-20 0 -34.5 14.5t-14.5 35.5v303q0 28 -20 47.5t-48 19.5h-304v-370q0 -21 -15 -35.5t-35 -14.5q-21 0 -35.5 14.5t-14.5 35.5v420q0 21 14 35t35 15z" />
    <glyph glyph-name="_64" unicode="&#x440;" horiz-adv-x="708" 
d="M100 -207q0 -21 -15 -35.5t-35 -14.5q-21 0 -35.5 14.5t-14.5 35.5v562q0 69 49 117t118 48h280q69 0 118 -48t49 -117v-188q0 -69 -49 -118t-118 -49h-347v-207zM515 167v188q0 28 -20 47.5t-48 19.5h-280q-28 0 -47.5 -19.5t-19.5 -47.5v-255h347q28 0 48 19.5t20 47.5
z" />
    <glyph glyph-name="_65" unicode="&#x441;" horiz-adv-x="688" 
d="M168 520h388q20 0 35 -14.5t15 -35.5q0 -19 -15 -33.5t-35 -14.5h-391q-27 0 -47 -20t-20 -48v-186q0 -28 19.5 -48t47.5 -20h389q21 0 35.5 -14.5t14.5 -35.5t-14.5 -35.5t-35.5 -14.5h-386q-70 0 -119 49t-49 119v186q0 70 49 118t119 48z" />
    <glyph glyph-name="afii10084" unicode="&#x442;" horiz-adv-x="1119" 
d="M808 521q70 0 120 -49.5t50 -121.5v-296q0 -23 -15 -37.5t-35 -14.5q-22 0 -37 14.5t-15 37.5v296q0 29 -20 49.5t-48 20.5h-200q-29 0 -49 -20.5t-20 -49.5v-296q0 -22 -14.5 -37t-34.5 -15q-23 0 -37.5 14.5t-14.5 37.5v296q0 29 -20.5 49.5t-50.5 20.5h-197
q-29 0 -49.5 -20.5t-20.5 -49.5v-296q0 -23 -14 -37.5t-35 -14.5q-23 0 -37.5 14.5t-14.5 37.5v416q0 23 14.5 37t37.5 14q26 0 40 -20q35 20 79 20h197q70 0 122 -50q52 50 119 50h200z" />
    <glyph glyph-name="_67" unicode="&#x443;" horiz-adv-x="698" 
d="M606 471v-558q0 -70 -49 -118.5t-118 -48.5h-345q-22 0 -36.5 14.5t-14.5 34.5q0 22 14.5 36.5t36.5 14.5h345q27 0 46.5 19.5t19.5 47.5v101q-33 -14 -66 -14h-272q-70 0 -118.5 49t-48.5 118v304q0 21 14 35.5t36 14.5q20 0 35 -14.5t15 -35.5v-304q0 -27 19.5 -47
t47.5 -20h272q27 0 46.5 20t19.5 47v304q0 21 14.5 35.5t36.5 14.5q20 0 35 -14.5t15 -35.5z" />
    <glyph glyph-name="afii10086" unicode="&#x444;" horiz-adv-x="967" 
d="M382 521v205q0 21 15 35.5t36 14.5t35.5 -14.5t14.5 -35.5v-218q33 13 66 13h162q69 0 118 -49t49 -118v-187q0 -69 -49 -118t-118 -49h-228v-206q0 -21 -15 -36t-35 -15q-22 0 -36.5 14.5t-14.5 36.5v220q-33 -14 -66 -14h-153q-69 0 -118 49t-49 118v187q0 69 49 118
t118 49h219zM779 167v187q0 28 -20 47.5t-48 19.5h-162q-27 0 -46.5 -19.5t-19.5 -47.5v-254h228q28 0 48 20t20 47zM96 354v-187q0 -27 19.5 -47t47.5 -20h153q26 0 45.5 19t20.5 45v257h-219q-28 0 -47.5 -19.5t-19.5 -47.5z" />
    <glyph glyph-name="_69" unicode="&#x445;" horiz-adv-x="695" 
d="M600 368q0 -67 -48 -117q48 -50 48 -117v-84q0 -21 -14.5 -35.5t-34.5 -14.5q-21 0 -35.5 14.5t-14.5 35.5v84q0 28 -20 47.5t-48 19.5h-266q-27 0 -46.5 -19.5t-19.5 -47.5v-84q0 -21 -15 -35.5t-35 -14.5q-22 0 -36.5 14.5t-14.5 35.5v84q0 67 48 117q-48 50 -48 117
v102q0 21 14.5 35.5t36.5 14.5q20 0 35 -14.5t15 -35.5v-102q0 -28 19.5 -47.5t46.5 -19.5h266q28 0 48 19.5t20 47.5v102q0 21 14.5 35.5t35.5 14.5q20 0 34.5 -14.5t14.5 -35.5v-102z" />
    <glyph glyph-name="afii10088" unicode="&#x446;" horiz-adv-x="750" 
d="M583 0h-422q-69 0 -118 49t-49 118v304q0 20 14.5 35t35.5 15q20 0 35.5 -15t15.5 -35v-304q0 -27 19.5 -47t46.5 -20q57 0 161 1t162 2v368q0 20 14.5 35t35.5 15t35.5 -15t14.5 -35v-371q68 0 117 -49t49 -118v-70q0 -21 -14.5 -35.5t-35.5 -14.5q-20 0 -35 14.5
t-15 35.5v70q0 28 -19.5 47.5t-47.5 19.5z" />
    <glyph glyph-name="afii10089" unicode="&#x447;" horiz-adv-x="739" 
d="M509 471q0 20 15.5 35t35.5 15q21 0 35.5 -15t14.5 -35v-421q0 -21 -14.5 -35.5t-35.5 -14.5t-36 14.5t-15 35.5v123q-33 -14 -66 -14h-284q-70 0 -119 49t-49 119v144q0 20 14.5 35t35.5 15t35.5 -15t14.5 -35v-144q0 -29 19.5 -48.5t48.5 -19.5h284q27 0 46.5 20
t19.5 48v144z" />
    <glyph glyph-name="afii10090" unicode="&#x448;" horiz-adv-x="1119" 
d="M169 1q-70 0 -120 50t-50 122v295q0 23 15 37.5t36 14.5q22 0 37 -14.5t15 -37.5v-295q0 -29 19.5 -50t47.5 -21h200q29 0 49.5 21t20.5 50v295q0 23 14.5 37.5t34.5 14.5q22 0 37 -14.5t15 -37.5v-295q0 -29 20.5 -50t49.5 -21h197q30 0 50.5 21t20.5 50v295
q0 23 14 37.5t35 14.5q23 0 37 -14.5t14 -37.5v-416q0 -23 -14 -37t-37 -14q-26 0 -40 20q-38 -20 -80 -20h-197q-69 0 -121 50q-52 -50 -120 -50h-200z" />
    <glyph glyph-name="afii10091" unicode="&#x449;" horiz-adv-x="1106" 
d="M418 164v312q0 20 14.5 34.5t35.5 14.5q20 0 34.5 -14.5t14.5 -34.5v-312q0 -26 19.5 -45.5t46.5 -19.5q44 1 122 1t123 1q0 14 -0.5 83t-0.5 117q0 115 1 172q2 20 15.5 34.5t34.5 14.5t35.5 -14.5t14.5 -34.5v-372q69 -1 117.5 -49.5t48.5 -117.5v-71
q0 -21 -14.5 -35.5t-35.5 -14.5q-20 0 -35 14.5t-15 35.5v71q0 27 -19.5 47t-47.5 20l-344 -1q-67 0 -114 47q-50 -47 -115 -47h-188q-68 0 -116 48t-48 116v308q0 20 14.5 34.5t34.5 14.5q21 0 35.5 -14.5t14.5 -34.5v-308q0 -26 19.5 -45.5t45.5 -19.5h188q26 0 45 19.5
t19 45.5z" />
    <glyph glyph-name="afii10092" unicode="&#x44a;" horiz-adv-x="828" 
d="M-12 521h176q20 0 35 -14.5t15 -35.5v-98h347q69 0 118 -48.5t49 -118.5v-39q0 -69 -49 -118t-118 -49h-280q-69 0 -118 49t-49 118v254h-126q-21 0 -35.5 14.5t-14.5 35.5q0 20 14.5 35t35.5 15zM629 167v39q0 28 -20 47.5t-48 19.5h-347v-106q0 -27 19.5 -47t47.5 -20
h280q28 0 48 20t20 47z" />
    <glyph glyph-name="afii10093" unicode="&#x44b;" horiz-adv-x="820" 
d="M101 471v-98h347q69 0 118 -48.5t49 -118.5v-39q0 -69 -49 -118t-118 -49h-281q-69 0 -118 49t-49 118v304q0 21 14.5 35.5t36.5 14.5q20 0 35 -14.5t15 -35.5zM515 167v39q0 28 -19.5 47.5t-47.5 19.5h-347v-106q0 -27 19.5 -47t46.5 -20h281q28 0 47.5 20t19.5 47z
M689 518q20 0 35 -14.5t15 -35.5v-417q0 -21 -15 -35.5t-35 -14.5q-22 0 -36.5 14.5t-14.5 35.5v417q0 21 14.5 35.5t36.5 14.5z" />
    <glyph glyph-name="afii10094" unicode="&#x44c;" horiz-adv-x="696" 
d="M91 471v-98h347q69 0 118 -48.5t49 -118.5v-39q0 -69 -49 -118t-118 -49h-280q-69 0 -118 49t-49 118v304q0 21 14.5 35.5t35.5 14.5q20 0 35 -14.5t15 -35.5zM506 167v39q0 28 -20 47.5t-48 19.5h-347v-106q0 -27 19.5 -47t47.5 -20h280q28 0 48 20t20 47z" />
    <glyph glyph-name="afii10095" unicode="&#x44d;" horiz-adv-x="578" 
d="M45 101h289q27 0 46.5 19.5t19.5 47.5v41h-343q-21 0 -35.5 15t-14.5 35q0 21 14.5 36t35.5 15h343v44q0 28 -19.5 47.5t-46.5 19.5h-289q-20 0 -34.5 15t-14.5 35q0 21 14.5 35.5t34.5 14.5h289q69 0 118 -49t49 -118v-186q0 -69 -49 -118t-118 -49h-289q-20 0 -35 14.5
t-15 35.5q0 20 15 35t35 15z" />
    <glyph glyph-name="afii10096" unicode="&#x44e;" horiz-adv-x="865" 
d="M0 50v676q0 21 14.5 35.5t35.5 14.5t36 -14.5t15 -35.5v-422h43v50q0 69 49 118t119 49h281q69 0 118 -49t49 -118v-187q0 -69 -49 -118t-118 -49h-281q-70 0 -119 49t-49 118v37h-43v-154q0 -21 -15 -35.5t-36 -14.5t-35.5 14.5t-14.5 35.5zM245 354v-187
q0 -27 19.5 -47t47.5 -20h281q27 0 46.5 20t19.5 47v187q0 28 -19.5 47.5t-46.5 19.5h-281q-28 0 -47.5 -19.5t-19.5 -47.5z" />
    <glyph glyph-name="afii10097" unicode="&#x44f;" horiz-adv-x="750" 
d="M578 521q21 0 36 -15.5t15 -34.5v-420q0 -22 -14.5 -36.5t-36.5 -14.5q-20 0 -35 14.5t-15 36.5v137h-370q-28 0 -48 -20t-20 -48v-69q0 -23 -13 -37t-35 -14t-36.5 14t-14.5 37v69q0 67 48 118q-48 48 -48 116q0 69 48.5 118t118.5 49h420zM158 287h370v133h-370
q-28 0 -48 -19t-20 -47q0 -27 20 -47t48 -20z" />
    <glyph glyph-name="uni0451" unicode="&#x451;" horiz-adv-x="634" 
 />
    <glyph glyph-name="afii10100" unicode="&#x453;" 
 />
    <glyph glyph-name="uni0455" unicode="&#x455;" horiz-adv-x="719" 
d="M164 521h387q20 0 35 -15t15 -35q0 -19 -15.5 -34.5t-34.5 -15.5h-387q-30 0 -52 -16.5t-22 -38.5t22 -38.5t52 -16.5h272q72 0 123 -45t51 -109t-51 -110t-123 -46h-394q-20 0 -34.5 14.5t-14.5 35.5t14.5 35t34.5 14h394q30 0 51.5 17t21.5 40q0 22 -21.5 38.5
t-51.5 16.5h-272q-72 0 -122.5 45t-50.5 109q0 65 50.5 110t122.5 45z" />
    <glyph glyph-name="uni0456" unicode="&#x456;" horiz-adv-x="157" 
d="M29 521q20 0 35 -14.5t15 -34.5v-421q0 -21 -15 -35.5t-35 -14.5q-22 0 -36.5 14.5t-14.5 35.5v421q0 20 14.5 34.5t36.5 14.5zM-22 557v32q0 21 14.5 35.5t36.5 14.5q20 0 35 -14.5t15 -35.5v-32q0 -20 -15 -35t-35 -15q-21 0 -36 14.5t-15 35.5z" />
    <glyph glyph-name="uni0457" unicode="&#x457;" horiz-adv-x="271" 
d="M29 518q20 0 35 -14.5t15 -35.5v-417q0 -21 -15 -35.5t-35 -14.5q-22 0 -36.5 14.5t-14.5 35.5v417q0 21 14.5 35.5t36.5 14.5zM-67 566v32q0 21 14.5 35.5t35.5 14.5q20 0 35 -14.5t15 -35.5v-32q0 -20 -15 -35t-35 -15q-21 0 -35.5 15t-14.5 35zM24 566v32
q0 21 14.5 35.5t35.5 14.5t36 -14.5t15 -35.5v-32q0 -20 -15.5 -35t-35.5 -15q-21 0 -35.5 15t-14.5 35z" />
    <glyph glyph-name="uni0458" unicode="&#x458;" horiz-adv-x="395" 
d="M138 471v-559q0 -69 -49 -118t-118 -49h-91q-21 0 -35.5 14.5t-14.5 35.5t14.5 36t35.5 15h91q27 0 46.5 19.5t19.5 46.5v559q0 21 14.5 35.5t36.5 14.5q20 0 35 -14.5t15 -35.5zM39 597v32q0 21 15 35.5t35 14.5q22 0 36.5 -14.5t14.5 -35.5v-32q0 -21 -15 -35.5
t-36 -14.5q-20 0 -35 15t-15 35z" />
    <glyph glyph-name="uni045D" unicode="&#x45d;" horiz-adv-x="833" 
 />
    <glyph glyph-name="uni0490" unicode="&#x490;" 
 />
    <glyph glyph-name="uni04D2" unicode="&#x4d2;" horiz-adv-x="802" 
d="M545 801h-373q-71 0 -121.5 -50.5t-50.5 -121.5v-576q0 -21 15 -36.5t36 -15.5t36.5 15t15.5 37v304h510v-304q0 -21 15.5 -36.5t36.5 -15.5t36.5 15.5t15.5 36.5v576q0 71 -50.5 121.5t-121.5 50.5zM103 459v170q0 28 20 48t49 20h373q28 0 48 -20t20 -48v-170h-510z
M187 889v32q0 21 14.5 35.5t35.5 14.5q20 0 35 -14.5t15 -35.5v-32q0 -20 -15 -35t-35 -15q-21 0 -35.5 15t-14.5 35zM406 889v32q0 21 14.5 35.5t35.5 14.5t36 -14.5t15 -35.5v-32q0 -20 -15.5 -35t-35.5 -15q-21 0 -35.5 15t-14.5 35z" />
    <glyph glyph-name="uni04D3" unicode="&#x4d3;" horiz-adv-x="708" 
d="M54 520h393q68 0 116 -48t48 -116v-192q0 -68 -47.5 -116t-115.5 -48h-284q-68 0 -116 48t-48 116q0 69 48.5 117t116.5 48h348v27q0 28 -19.5 47t-46.5 19h-393q-21 0 -35.5 14.5t-14.5 34.5t14.5 34.5t35.5 14.5zM99 164q0 -26 19 -45.5t46 -19.5h284q27 0 46 19.5
t19 45.5v66h-348q-28 0 -47 -19.5t-19 -46.5zM136 612v32q0 21 14.5 35.5t35.5 14.5q20 0 35 -14.5t15 -35.5v-32q0 -20 -15 -35t-35 -15q-21 0 -35.5 15t-14.5 35zM355 612v32q0 21 14.5 35.5t35.5 14.5t36 -14.5t15 -35.5v-32q0 -20 -15.5 -35t-35.5 -15q-21 0 -35.5 15
t-14.5 35z" />
    <glyph glyph-name="uni04D6" unicode="&#x4d6;" horiz-adv-x="760" 
d="M627 103h-455q-28 0 -48 20.5t-20 48.5v184h511q21 0 36 15.5t15 36.5t-15 36t-36 15h-511v169q0 28 20 48t48 20h455q21 0 36 15.5t15 36.5q0 22 -15 37t-36 15h-455q-71 0 -121.5 -50.5t-50.5 -121.5v-456q0 -71 50.5 -121.5t121.5 -50.5h455q21 0 36.5 15.5t15.5 36.5
q0 20 -16 35.5t-36 15.5zM164 944q14 32 46 32q10 0 22 -5q64 -27 124 -27q41 0 112 27q9 4 21 4q36 0 47 -34l-1 3q5 -12 5 -22q0 -33 -33 -47q-110 -37 -151 -37q-72 0 -165 37q-32 13 -32 46q0 10 5 23z" />
    <glyph glyph-name="uni04D7" unicode="&#x4d7;" horiz-adv-x="833" 
 />
    <glyph glyph-name="uni04DC" unicode="&#x4dc;" horiz-adv-x="975" 
d="M386 459v289q0 22 15 37t37 15q20 0 35.5 -15t15.5 -37v-289h217q29 0 49.5 20.5t20.5 48.5v220q0 22 14.5 37t36.5 15t36.5 -15t14.5 -37v-220q0 -68 -50 -120q50 -52 50 -121v-235q0 -22 -14.5 -37t-36.5 -15t-36.5 15t-14.5 37v235q0 28 -20.5 48.5t-49.5 20.5h-217
v-304q0 -22 -15.5 -37t-35.5 -15q-22 0 -37 15t-15 37v304h-224q-28 0 -48.5 -20t-20.5 -49v-235q0 -22 -15.5 -37t-36.5 -15q-22 0 -36.5 15t-14.5 37v235q0 70 49 121q-49 49 -49 120v220q0 22 14.5 37t36.5 15q21 0 36.5 -15t15.5 -37v-220q0 -28 20.5 -48.5t48.5 -20.5
h224zM277 842v32q0 21 14.5 35.5t35.5 14.5q20 0 35 -14.5t15 -35.5v-32q0 -20 -15 -35t-35 -15q-21 0 -35.5 15t-14.5 35zM496 842v32q0 21 14.5 35.5t35.5 14.5t36 -14.5t15 -35.5v-32q0 -20 -15.5 -35t-35.5 -15q-21 0 -35.5 15t-14.5 35z" />
    <glyph glyph-name="uni04DD" unicode="&#x4dd;" horiz-adv-x="833" 
 />
    <glyph glyph-name="uni04DE" unicode="&#x4de;" horiz-adv-x="784" 
d="M699 535q0 -66 -45 -122q45 -56 45 -121v-119q0 -72 -51 -122.5t-123 -50.5h-352q-72 0 -122.5 51t-50.5 122v57q0 21 15 36t36 15q22 0 37 -14.5t15 -36.5v-57q0 -28 21 -48.5t49 -20.5h352q29 0 49.5 20.5t20.5 48.5v119q0 24 -11.5 44.5t-21.5 24.5h-391q-19 0 -34 14
t-18 35q0 23 15.5 39t36.5 16h391q11 9 22 28.5t11 41.5v94q0 28 -20.5 48.5t-49.5 20.5h-352q-29 0 -49.5 -20.5t-20.5 -48.5v-57q0 -22 -15 -36.5t-37 -14.5t-36.5 14.5t-14.5 36.5v57q0 71 50.5 122t122.5 51h352q72 0 123 -50.5t51 -122.5v-94zM186 888v32
q0 21 14.5 35.5t35.5 14.5q20 0 35 -14.5t15 -35.5v-32q0 -20 -15 -35t-35 -15q-21 0 -35.5 15t-14.5 35zM405 888v32q0 21 14.5 35.5t35.5 14.5t36 -14.5t15 -35.5v-32q0 -20 -15.5 -35t-35.5 -15q-21 0 -35.5 15t-14.5 35z" />
    <glyph glyph-name="uni04DF" unicode="&#x4df;" horiz-adv-x="709" 
d="M603 297q0 -77 -44 -119q44 -46 44 -117v-150q0 -70 -49.5 -119t-119.5 -49h-275q-70 0 -119 49.5t-49 118.5v55q0 21 14.5 35.5t35.5 14.5t35.5 -14t14.5 -36v-55q0 -27 20 -47t48 -20h275q28 0 48 19.5t20 47.5v150q0 29 -19 48t-48 20h-278q-19 0 -33.5 13t-16.5 34
q0 22 15 37.5t35 15.5h277q31 -2 49.5 18t18.5 50v56q0 29 -20 48.5t-48 19.5h-275q-28 0 -48 -20t-20 -48v-54q0 -22 -14.5 -36.5t-35.5 -14.5t-35.5 14.5t-14.5 36.5v54q0 70 49 119t119 49h275q70 0 119.5 -49t49.5 -119v-56zM131 621v32q0 21 14.5 35.5t35.5 14.5
q20 0 35 -14.5t15 -35.5v-32q0 -20 -15 -35t-35 -15q-21 0 -35.5 15t-14.5 35zM350 621v32q0 21 14.5 35.5t35.5 14.5t36 -14.5t15 -35.5v-32q0 -20 -15.5 -35t-35.5 -15q-21 0 -35.5 15t-14.5 35z" />
    <glyph glyph-name="uni04E4" unicode="&#x4e4;" horiz-adv-x="823" 
d="M638 749q0 21 14.5 36.5t38.5 15.5q25 0 38 -15.5t13 -36.5v-706q0 -19 -15.5 -32t-35.5 -13q-25 0 -40 17q-40 -15 -83 -15h-397q-72 0 -121.5 49t-49.5 121v579q0 22 13 37t39 15q25 0 38.5 -15.5t13.5 -36.5v-579q0 -26 20 -46t47 -20h397q28 0 49 20t21 46v579z
M213 781v32q0 21 14.5 35.5t35.5 14.5q20 0 35 -14.5t15 -35.5v-32q0 -20 -15 -35t-35 -15q-21 0 -35.5 15t-14.5 35zM432 781v32q0 21 14.5 35.5t35.5 14.5t36 -14.5t15 -35.5v-32q0 -20 -15.5 -35t-35.5 -15q-21 0 -35.5 15t-14.5 35z" />
    <glyph glyph-name="uni04E6" unicode="&#x4e6;" horiz-adv-x="886" 
d="M226 886v32q0 21 14.5 35.5t35.5 14.5q20 0 35 -14.5t15 -35.5v-32q0 -20 -15 -35t-35 -15q-21 0 -35.5 15t-14.5 35zM445 886v32q0 21 14.5 35.5t35.5 14.5t36 -14.5t15 -35.5v-32q0 -20 -15.5 -35t-35.5 -15q-21 0 -35.5 15t-14.5 35z" />
    <glyph glyph-name="uni04E7" unicode="&#x4e7;" horiz-adv-x="774" 
d="M167 520h345q70 0 119 -49t49 -118v-185q0 -69 -49 -118t-119 -49h-345q-69 0 -118 49t-49 118v185q0 69 49 118t118 49zM101 355v-187q0 -28 19.5 -47.5t46.5 -19.5h345q28 0 47.5 19.5t19.5 47.5v187q0 28 -19.5 47.5t-47.5 19.5h-345q-27 0 -46.5 -19.5t-19.5 -47.5z
M169 615v32q0 21 14.5 35.5t35.5 14.5q20 0 35 -14.5t15 -35.5v-32q0 -20 -15 -35t-35 -15q-21 0 -35.5 15t-14.5 35zM388 615v32q0 21 14.5 35.5t35.5 14.5t36 -14.5t15 -35.5v-32q0 -20 -15.5 -35t-35.5 -15q-21 0 -35.5 15t-14.5 35z" />
    <glyph glyph-name="uni04ED" unicode="&#x4ed;" horiz-adv-x="578" 
d="M45 101h289q27 0 46.5 19.5t19.5 47.5v41h-343q-21 0 -35.5 15t-14.5 35q0 21 14.5 36t35.5 15h343v44q0 28 -19.5 47.5t-46.5 19.5h-289q-20 0 -34.5 15t-14.5 35q0 21 14.5 35.5t34.5 14.5h289q69 0 118 -49t49 -118v-186q0 -69 -49 -118t-118 -49h-289q-20 0 -35 14.5
t-15 35.5q0 20 15 35t35 15zM66 615v32q0 21 14.5 35.5t35.5 14.5q20 0 35 -14.5t15 -35.5v-32q0 -20 -15 -35t-35 -15q-21 0 -35.5 15t-14.5 35zM285 615v32q0 21 14.5 35.5t35.5 14.5t36 -14.5t15 -35.5v-32q0 -20 -15.5 -35t-35.5 -15q-21 0 -35.5 15t-14.5 35z" />
    <glyph glyph-name="uni04F0" unicode="&#x4f0;" horiz-adv-x="763" 
d="M678 749v-576q0 -72 -50.5 -122t-121.5 -50h-409q-22 0 -37 15t-15 36q0 22 15 37t37 15h409q28 0 48 20.5t20 48.5v123q-36 -15 -68 -15h-333q-72 0 -122.5 51t-50.5 122v295q0 22 15 37t37 15q21 0 36.5 -15.5t15.5 -36.5v-295q0 -28 20 -48.5t49 -20.5h333
q28 0 48 20.5t20 48.5v295q0 22 15 37t37 15q21 0 36.5 -15t15.5 -37zM221 842v32q0 21 14.5 35.5t35.5 14.5q20 0 35 -14.5t15 -35.5v-32q0 -20 -15 -35t-35 -15q-21 0 -35.5 15t-14.5 35zM440 842v32q0 21 14.5 35.5t35.5 14.5t36 -14.5t15 -35.5v-32q0 -20 -15.5 -35
t-35.5 -15q-21 0 -35.5 15t-14.5 35z" />
    <glyph glyph-name="uni04F1" unicode="&#x4f1;" horiz-adv-x="698" 
d="M606 471v-558q0 -70 -49 -118.5t-118 -48.5h-345q-22 0 -36.5 14.5t-14.5 34.5q0 22 14.5 36.5t36.5 14.5h345q27 0 46.5 19.5t19.5 47.5v101q-33 -14 -66 -14h-272q-70 0 -118.5 49t-48.5 118v304q0 21 14 35.5t36 14.5q20 0 35 -14.5t15 -35.5v-304q0 -27 19.5 -47
t47.5 -20h272q27 0 46.5 20t19.5 47v304q0 21 14.5 35.5t36.5 14.5q20 0 35 -14.5t15 -35.5zM189 566v32q0 21 14.5 35.5t35.5 14.5q20 0 35 -14.5t15 -35.5v-32q0 -20 -15 -35t-35 -15q-21 0 -35.5 15t-14.5 35zM408 566v32q0 21 14.5 35.5t35.5 14.5t36 -14.5t15 -35.5
v-32q0 -20 -15.5 -35t-35.5 -15q-21 0 -35.5 15t-14.5 35z" />
    <glyph glyph-name="uni04F2" unicode="&#x4f2;" horiz-adv-x="833" 
 />
    <glyph glyph-name="uni04F4" unicode="&#x4f4;" horiz-adv-x="792" 
d="M575 750q0 20 15.5 36t36.5 16t36 -15.5t15 -36.5v-697q0 -22 -14.5 -37t-36.5 -15q-21 0 -36.5 15t-15.5 37v267q-35 -14 -69 -14h-346q-72 0 -122.5 50.5t-50.5 122.5v271q0 21 15 36.5t36 15.5t36.5 -15.5t15.5 -36.5v-271q0 -29 20.5 -49.5t49.5 -20.5h346
q28 0 48.5 20.5t20.5 49.5v271zM164 842v32q0 21 14.5 35.5t35.5 14.5q20 0 35 -14.5t15 -35.5v-32q0 -20 -15 -35t-35 -15q-21 0 -35.5 15t-14.5 35zM383 842v32q0 21 14.5 35.5t35.5 14.5t36 -14.5t15 -35.5v-32q0 -20 -15.5 -35t-35.5 -15q-21 0 -35.5 15t-14.5 35z" />
    <glyph glyph-name="uni04F5" unicode="&#x4f5;" horiz-adv-x="739" 
d="M509 471q0 20 15.5 35t35.5 15q21 0 35.5 -15t14.5 -35v-421q0 -21 -14.5 -35.5t-35.5 -14.5t-36 14.5t-15 35.5v123q-33 -14 -66 -14h-284q-70 0 -119 49t-49 119v144q0 20 14.5 35t35.5 15t35.5 -15t14.5 -35v-144q0 -29 19.5 -48.5t48.5 -19.5h284q27 0 46.5 20
t19.5 48v144zM131 566v32q0 21 14.5 35.5t35.5 14.5q20 0 35 -14.5t15 -35.5v-32q0 -20 -15 -35t-35 -15q-21 0 -35.5 15t-14.5 35zM350 566v32q0 21 14.5 35.5t35.5 14.5t36 -14.5t15 -35.5v-32q0 -20 -15.5 -35t-35.5 -15q-21 0 -35.5 15t-14.5 35z" />
    <glyph glyph-name="uni04F8" unicode="&#x4f8;" horiz-adv-x="1015" 
d="M347 842v32q0 21 14.5 35.5t35.5 14.5q20 0 35 -14.5t15 -35.5v-32q0 -20 -15 -35t-35 -15q-21 0 -35.5 15t-14.5 35zM566 842v32q0 21 14.5 35.5t35.5 14.5t36 -14.5t15 -35.5v-32q0 -20 -15.5 -35t-35.5 -15q-21 0 -35.5 15t-14.5 35z" />
    <glyph glyph-name="uni04F9" unicode="&#x4f9;" horiz-adv-x="820" 
d="M101 471v-98h347q69 0 118 -48.5t49 -118.5v-39q0 -69 -49 -118t-118 -49h-281q-69 0 -118 49t-49 118v304q0 21 14.5 35.5t36.5 14.5q20 0 35 -14.5t15 -35.5zM515 167v39q0 28 -19.5 47.5t-47.5 19.5h-347v-106q0 -27 19.5 -47t46.5 -20h281q28 0 47.5 20t19.5 47z
M689 518q20 0 35 -14.5t15 -35.5v-417q0 -21 -15 -35.5t-35 -14.5q-22 0 -36.5 14.5t-14.5 35.5v417q0 21 14.5 35.5t36.5 14.5zM250 566v32q0 21 14.5 35.5t35.5 14.5q20 0 35 -14.5t15 -35.5v-32q0 -20 -15 -35t-35 -15q-21 0 -35.5 15t-14.5 35zM469 566v32
q0 21 14.5 35.5t35.5 14.5t36 -14.5t15 -35.5v-32q0 -20 -15.5 -35t-35.5 -15q-21 0 -35.5 15t-14.5 35z" />
    <glyph glyph-name="endash" unicode="&#x2013;" horiz-adv-x="479" 
d="M324 277h-192q-22 0 -36 14.5t-14 34.5q0 21 14 35.5t36 14.5h192q21 0 35.5 -14.5t14.5 -35.5q0 -20 -14.5 -34.5t-35.5 -14.5z" />
    <glyph glyph-name="emdash" unicode="&#x2014;" horiz-adv-x="604" 
d="M436 368h-283q-21 0 -35.5 14.5t-14.5 34.5q0 22 14.5 36t35.5 14h283q21 0 35.5 -14t14.5 -36q0 -20 -14.5 -34.5t-35.5 -14.5z" />
    <glyph glyph-name="quoteleft" unicode="&#x2018;" horiz-adv-x="229" 
d="M222 857l1 -1q15 -14 16.5 -34.5t-11.5 -37.5l-54 -63q-13 -16 -34.5 -17.5t-37.5 12.5t-17.5 34.5t12.5 37.5q17 21 53 63l-1 -1q13 18 35.5 19.5t37.5 -12.5z" />
    <glyph glyph-name="quoteright" unicode="&#x2019;" horiz-adv-x="167" 
d="M126 766l1 -1q15 -14 17 -34.5t-11 -37.5l-54 -63q-14 -16 -35 -17.5t-37 12.5t-18 34.5t12 37.5q36 42 53 63l-1 -1q13 17 35.5 18.5t37.5 -11.5z" />
    <glyph glyph-name="quotesinglbase" unicode="&#x201a;" horiz-adv-x="229" 
d="M-11 100h40q20 0 35 -14t15 -35v-79q0 -21 -15 -36t-35 -15q-22 0 -36.5 14.5t-14.5 36.5v29q-16 3 -27.5 17t-11.5 32q0 20 14.5 35t35.5 15z" />
    <glyph glyph-name="quotedblleft" unicode="&#x201c;" horiz-adv-x="229" 
d="M208 599h-40q-20 0 -35 14.5t-15 34.5v80q0 21 15 35.5t35 14.5q21 0 35.5 -14.5t14.5 -35.5v-30q17 -3 28 -16.5t11 -32.5q0 -20 -14 -35t-35 -15zM75 598h-40q-20 0 -35.5 14.5t-15.5 34.5v80q0 21 15 35.5t36 14.5t35.5 -14.5t14.5 -35.5v-29q17 -4 28 -18t11 -32
q0 -20 -14.5 -35t-34.5 -15z" />
    <glyph glyph-name="quotedblright" unicode="&#x201d;" horiz-adv-x="324" 
d="M50 778h40q20 0 35 -14.5t15 -34.5v-80q0 -21 -15 -35.5t-35 -14.5q-21 0 -35.5 14.5t-14.5 35.5v29q-17 4 -28.5 18t-11.5 32q0 20 14.5 35t35.5 15zM204 779h40q20 0 35 -14.5t15 -34.5v-80q0 -21 -15 -35.5t-35 -14.5q-21 0 -35.5 14.5t-14.5 35.5v29q-17 4 -28 17.5
t-11 32.5q0 20 14.5 35t34.5 15z" />
    <glyph glyph-name="quotedblbase" unicode="&#x201e;" horiz-adv-x="229" 
d="M-8 100h40q20 0 35 -14t15 -35v-79q0 -21 -15 -36t-35 -15q-21 0 -35.5 14.5t-14.5 36.5v29q-17 3 -28.5 17t-11.5 32q0 20 14.5 35t35.5 15zM125 101h40q20 0 35 -14.5t15 -34.5v-79q0 -21 -14.5 -36t-35.5 -15t-35.5 14.5t-14.5 36.5v29q-17 3 -28 16.5t-11 32.5
q0 20 14.5 35t34.5 15z" />
    <glyph glyph-name="bullet" unicode="&#x2022;" horiz-adv-x="333" 
d="M291 346q0 -27 -10 -50l1 1q-6 -18 -26 -44q-15 -18 -42 -29q-21 -10 -52 -10q-35 0 -56 11h2q-24 9 -43 28q-18 18 -28 43v-1q-10 25 -10 50q0 23 9 47q8 25 27 44q20 18 42 30q29 11 56 11q30 0 53 -11h-1q25 -12 43 -30q14 -14 26 -41q9 -24 9 -49z" />
    <glyph glyph-name="ellipsis" unicode="&#x2026;" horiz-adv-x="365" 
d="M-11 50v32q0 21 14.5 35.5t36.5 14.5q20 0 35 -14.5t15 -35.5v-32q0 -20 -15 -35t-35 -15q-21 0 -36 15t-15 35zM99 50v32q0 21 14.5 35.5t35.5 14.5q20 0 35 -14.5t15 -35.5v-32q0 -20 -15 -35t-35 -15q-21 0 -35.5 15t-14.5 35zM209 50v32q0 21 14 35.5t36 14.5
q20 0 35 -14.5t15 -35.5v-32q0 -20 -15.5 -35t-34.5 -15q-21 0 -35.5 15t-14.5 35z" />
    <glyph glyph-name="perthousand" unicode="&#x2030;" horiz-adv-x="1311" 
d="M155 77l427 675l-1 -1q11 18 32 23t39 -6l-2 1q18 -11 23 -32t-7 -39v1q-53 -84 -200 -317t-227 -359q-11 -18 -31.5 -22t-37.5 7t-21.5 31.5t6.5 38.5v-1zM570 394h61q69 0 118 -49t49 -119v-58q0 -69 -49 -118t-118 -49h-61q-70 0 -118.5 49t-48.5 118v58
q0 70 48.5 119t118.5 49zM503 226v-58q0 -28 19.5 -47.5t47.5 -19.5h61q27 0 46.5 19.5t19.5 47.5v58q0 28 -19.5 47.5t-46.5 19.5h-61q-28 0 -47.5 -19.5t-19.5 -47.5zM177 777h61q69 0 118 -49t49 -118v-59q0 -69 -49 -118t-118 -49h-61q-69 0 -118 49t-49 118v59
q0 69 49 118t118 49zM110 610v-59q0 -27 19.5 -46.5t47.5 -19.5h61q28 0 47.5 19.5t19.5 46.5v59q0 27 -19.5 47t-47.5 20h-61q-28 0 -47.5 -20t-19.5 -47zM962 394h61q70 0 118.5 -49t48.5 -119v-58q0 -69 -48.5 -118t-118.5 -49h-61q-69 0 -118 49t-49 118v58q0 70 49 119
t118 49zM896 226v-58q0 -28 19.5 -47.5t46.5 -19.5h61q28 0 47.5 19.5t19.5 47.5v58q0 28 -19.5 47.5t-47.5 19.5h-61q-27 0 -46.5 -19.5t-19.5 -47.5z" />
    <glyph glyph-name="guilsinglleft" unicode="&#x2039;" horiz-adv-x="292" 
d="M157 293l142 -170h-164l-140 170l140 169h164z" />
    <glyph glyph-name="guilsinglright" unicode="&#x203a;" horiz-adv-x="292" 
d="M225 254l-164 -123q-16 -12 -36.5 -9t-31.5 19t-8.5 35t17.5 30l115 86q-108 77 -116 83q-13 13 -15.5 31.5t7.5 34.5q11 14 31.5 17t36.5 -8q28 -20 83.5 -60.5t79.5 -58.5q20 -17 20 -39q0 -24 -19 -38z" />
    <glyph glyph-name="fraction" unicode="&#x2044;" horiz-adv-x="536" 
d="M-3 77l427 675l-1 -1q11 18 32 23t39 -6l-2 1q18 -11 23 -32t-7 -39v1q-71 -112 -213.5 -338t-213.5 -338q-12 -18 -32 -22t-38 7q-16 12 -20.5 32t6.5 38v-1z" />
    <glyph glyph-name="Euro" unicode="&#x20ac;" horiz-adv-x="727" 
d="M562 116h-1q19 9 37.5 -0.5t25.5 -27.5q7 -17 -2.5 -36t-27.5 -28q-67 -24 -131 -24q-130 0 -232 76.5t-138 196.5h-70q-22 0 -37 15t-15 37q0 17 15.5 31.5t36.5 14.5h53v17v11h-53q-22 0 -37 14.5t-15 34.5q0 24 15 38t37 14h70q36 121 138 198t232 77q60 0 137 -25
q16 -11 24 -30.5t0 -37.5v5q-5 -20 -22.5 -28.5t-37.5 -3.5q-61 18 -101 18q-84 0 -156 -48.5t-109 -124.5h302q19 0 34 -14t15 -38q0 -20 -15 -34.5t-34 -14.5h-327v-11v-17h327q18 0 33.5 -14.5t15.5 -31.5q0 -21 -15 -36.5t-34 -15.5h-302q34 -81 104.5 -128t160.5 -47
q53 0 99 18z" />
    <glyph glyph-name="trademark" unicode="&#x2122;" horiz-adv-x="771" 
d="M114 584h-74v146h-56v71h185v-71h-55v-146zM214 584h-72v217h83l26 -82q1 3 24 82h81v-217h-72v19q-1 -7 -5 -19h-64l-1 20v-20z" />
    <glyph glyph-name="minus" unicode="&#x2212;" 
d="M378 278h-301q-21 0 -35.5 14t-14.5 35t14.5 35.5t35.5 14.5h301q22 0 36.5 -14.5t14.5 -35.5t-14.5 -35t-36.5 -14z" />
    <glyph glyph-name="_152" unicode="&#xe004;" 
 />
    <glyph glyph-name="middot" 
d="M249 390q28 0 48.5 -20t20.5 -49v-65q0 -30 -20.5 -50.5t-48.5 -20.5q-31 0 -51 20t-20 51v65q0 29 20 49t51 20z" />
    <glyph glyph-name="_354" horiz-adv-x="698" 
d="M166 520h282q68 0 117 -48.5t49 -117.5v-105q0 -21 -14.5 -35.5t-35.5 -14.5h-466v-33q0 -27 19.5 -47t47.5 -20h382q20 0 35 -14t15 -35t-15 -35.5t-35 -14.5h-381q-69 0 -117.5 48.5t-48.5 117.5v188q0 69 48.5 117.5t117.5 48.5zM98 355v-57h417v57q0 28 -19.5 47.5
t-47.5 19.5h-283q-28 0 -47.5 -19.5t-19.5 -47.5z" />
    <glyph glyph-name="_363" horiz-adv-x="766" 
d="M167 520h345q70 0 119 -49t49 -118v-185q0 -69 -49 -118t-119 -49h-345q-69 0 -118 49t-49 118v185q0 69 49 118t118 49zM101 355v-187q0 -28 19.5 -47.5t46.5 -19.5h345q28 0 47.5 19.5t19.5 47.5v187q0 28 -19.5 47.5t-47.5 19.5h-345q-27 0 -46.5 -19.5t-19.5 -47.5z
" />
    <glyph glyph-name="f_j" horiz-adv-x="458" 
d="M366 471v-559q0 -69 -49 -118t-118 -49h-91q-21 0 -35.5 14.5t-14.5 35.5t14.5 36t35.5 15h91q27 0 46.5 19.5t19.5 46.5v509h-179v-370q0 -21 -15 -35.5t-36 -14.5t-35.5 14.5t-14.5 35.5v559q0 69 49 118t118 49h161q21 0 35.5 -14.5t14.5 -35.5q0 -20 -14.5 -35
t-35.5 -15h-161q-27 0 -46.5 -20t-19.5 -47v-89h230q20 0 35 -14.5t15 -35.5z" />
    <glyph glyph-name="T_h" horiz-adv-x="1372" 
d="M715 368v-316q0 -21 -15 -36t-36 -15t-36 15t-15 36v645h-188v-644q0 -22 -15 -37t-36 -15q-22 0 -37 15t-15 37v644h-275q-21 0 -36.5 15.5t-15.5 36.5q0 22 15 37t37 15h617q19 0 33.5 -13.5t17.5 -34.5v-230q33 14 67 14h275q70 0 119 -49.5t49 -119.5v-316
q0 -21 -14.5 -36t-36.5 -15q-21 0 -36 15t-15 36v316q0 28 -19.5 47.5t-46.5 19.5h-275q-28 0 -47.5 -19.5t-19.5 -47.5z" />
    <glyph glyph-name="_192" horiz-adv-x="802" 
d="M172 801h373q71 0 121.5 -50.5t50.5 -121.5v-576q0 -21 -15.5 -36.5t-36.5 -15.5t-36.5 15.5t-15.5 36.5v304h-510v-304q0 -22 -15.5 -37t-36.5 -15t-36 15.5t-15 36.5v576q0 71 50.5 121.5t121.5 50.5zM103 629v-170h510v170q0 28 -20 48t-48 20h-373q-29 0 -49 -20
t-20 -48z" />
    <glyph glyph-name="_194" horiz-adv-x="788" 
d="M172 801h330q38 0 72 -8t66.5 -26.5t51.5 -54t19 -83.5v-115q0 -70 -49 -121q48 -53 48 -120v-100q0 -71 -50.5 -121.5t-121.5 -50.5h-486q-21 0 -36.5 16t-15.5 36v568q0 76 49.5 128t122.5 52zM103 445h436q29 0 49.5 20.5t20.5 48.5v115q0 28 -21 48.5t-49 20.5h-367
q-29 0 -49 -22t-20 -55v-176zM103 105h435q28 0 48.5 20t20.5 48v100q0 29 -20.5 49t-48.5 20h-435v-237z" />
    <glyph glyph-name="_197" horiz-adv-x="760" 
d="M172 103h455q20 0 36 -15.5t16 -35.5q0 -21 -15.5 -36.5t-36.5 -15.5h-455q-71 0 -121.5 50.5t-50.5 121.5v456q0 71 50.5 121.5t121.5 50.5h455q21 0 36 -15t15 -37q0 -21 -15 -36.5t-36 -15.5h-455q-28 0 -48 -20t-20 -48v-169h511q21 0 36 -15t15 -36t-15 -36.5
t-36 -15.5h-511v-184q0 -28 20 -48.5t48 -20.5z" />
    <glyph glyph-name="afii10031" horiz-adv-x="831" 
d="M641 801q22 0 36.5 -15t14.5 -37v-696q0 -22 -14.5 -37t-36.5 -15t-36.5 15t-14.5 37v304h-487v-304q0 -22 -15.5 -37t-36.5 -15q-22 0 -36.5 15t-14.5 37v696q0 22 14.5 37t36.5 15q21 0 36.5 -15t15.5 -37v-289h487v289q0 22 14.5 37t36.5 15z" />
    <glyph glyph-name="afii10032" horiz-adv-x="922" 
d="M172 800h450q71 0 121.5 -50.5t50.5 -121.5v-456q0 -71 -50.5 -121.5t-121.5 -50.5h-450q-71 0 -121.5 50.5t-50.5 121.5v456q0 71 50.5 121.5t121.5 50.5zM104 628v-456q0 -28 20 -48.5t48 -20.5h450q28 0 48.5 20.5t20.5 48.5v456q0 28 -20.5 48t-48.5 20h-450
q-28 0 -48 -20t-20 -48z" />
    <glyph glyph-name="afii10082" horiz-adv-x="708" 
d="M100 -207q0 -21 -15 -35.5t-35 -14.5q-21 0 -35.5 14.5t-14.5 35.5v562q0 69 49 117t118 48h280q69 0 118 -48t49 -117v-188q0 -69 -49 -118t-118 -49h-347v-207zM515 167v188q0 28 -20 47.5t-48 19.5h-280q-28 0 -47.5 -19.5t-19.5 -47.5v-255h347q28 0 48 19.5t20 47.5
z" />
    <glyph glyph-name="afii10083" horiz-adv-x="719" 
d="M168 520h388q20 0 35 -14.5t15 -35.5q0 -19 -15 -33.5t-35 -14.5h-391q-27 0 -47 -20t-20 -48v-186q0 -28 19.5 -48t47.5 -20h389q21 0 35.5 -14.5t14.5 -35.5t-14.5 -35.5t-35.5 -14.5h-386q-70 0 -119 49t-49 119v186q0 70 49 118t119 48z" />
    <glyph glyph-name="afii10085" horiz-adv-x="698" 
d="M606 471v-558q0 -70 -49 -118.5t-118 -48.5h-345q-22 0 -36.5 14.5t-14.5 34.5q0 22 14.5 36.5t36.5 14.5h345q27 0 46.5 19.5t19.5 47.5v101q-33 -14 -66 -14h-272q-70 0 -118.5 49t-48.5 118v304q0 21 14 35.5t36 14.5q20 0 35 -14.5t15 -35.5v-304q0 -27 19.5 -47
t47.5 -20h272q27 0 46.5 20t19.5 47v304q0 21 14.5 35.5t36.5 14.5q20 0 35 -14.5t15 -35.5z" />
    <glyph glyph-name="afii10087" horiz-adv-x="695" 
d="M600 368q0 -67 -48 -117q48 -50 48 -117v-84q0 -21 -14.5 -35.5t-34.5 -14.5q-21 0 -35.5 14.5t-14.5 35.5v84q0 28 -20 47.5t-48 19.5h-266q-27 0 -46.5 -19.5t-19.5 -47.5v-84q0 -21 -15 -35.5t-35 -14.5q-22 0 -36.5 14.5t-14.5 35.5v84q0 67 48 117q-48 50 -48 117
v102q0 21 14.5 35.5t36.5 14.5q20 0 35 -14.5t15 -35.5v-102q0 -28 19.5 -47.5t46.5 -19.5h266q28 0 48 19.5t20 47.5v102q0 21 14.5 35.5t35.5 14.5q20 0 34.5 -14.5t14.5 -35.5v-102z" />
    <glyph glyph-name="afii10074" horiz-adv-x="703" 
d="M540 0h-373q-69 0 -118 49t-49 118v303q0 20 14.5 35t35.5 15q20 0 35.5 -15t15.5 -35v-303q0 -28 19.5 -47.5t46.5 -19.5h323v369q0 20 14.5 35t35.5 15t35.5 -15t14.5 -35v-419q0 -20 -14.5 -35t-35.5 -15z" />
    <glyph glyph-name="afii10076" horiz-adv-x="652" 
d="M560 470v-72q0 -69 -48 -119q48 -50 48 -117v-112q0 -20 -15 -35t-35 -15t-35 15t-15 35v112q0 28 -20 47.5t-48 19.5h-291v-179q0 -20 -14.5 -35t-35.5 -15q-20 0 -35.5 15t-15.5 35v676q0 20 15.5 35t35.5 15q21 0 35.5 -15t14.5 -35v-396h291q28 0 48 20t20 48v72
q0 21 15 35.5t35 14.5t35 -14.5t15 -35.5z" />
    <glyph glyph-name="afii10081" horiz-adv-x="664" 
d="M49 520h355q70 0 118.5 -49t48.5 -118v-303q0 -21 -14.5 -35.5t-35.5 -14.5q-20 0 -34.5 14.5t-14.5 35.5v303q0 28 -20 47.5t-48 19.5h-304v-370q0 -21 -15 -35.5t-35 -14.5q-21 0 -35.5 14.5t-14.5 35.5v420q0 21 14 35t35 15z" />
    <glyph glyph-name="_1282" horiz-adv-x="703" 
d="M540 0h-373q-69 0 -118 49t-49 118v303q0 20 14.5 35t35.5 15q20 0 35.5 -15t15.5 -35v-303q0 -28 19.5 -47.5t46.5 -19.5h323v369q0 20 14.5 35t35.5 15t35.5 -15t14.5 -35v-419q0 -20 -14.5 -35t-35.5 -15z" />
    <glyph glyph-name="afii10054" horiz-adv-x="839" 
d="M171 800h477q22 0 37 -15t15 -37q0 -21 -15.5 -36.5t-36.5 -15.5h-477q-29 0 -49.5 -20t-20.5 -48v-108q0 -28 20.5 -48t49.5 -20h358q71 0 121 -50.5t50 -122.5v-107q0 -71 -50 -121.5t-121 -50.5h-479q-22 0 -36.5 15t-14.5 37q0 21 14.5 36t36.5 15h479q28 0 48 20.5
t20 48.5v107q0 28 -20 48.5t-48 20.5h-358q-71 0 -121.5 50.5t-50.5 121.5v108q0 71 50.5 121.5t121.5 50.5z" />
    <glyph glyph-name="afii10102" horiz-adv-x="719" 
d="M157 520h394q20 0 35 -15t15 -35q0 -19 -15 -33.5t-35 -14.5h-394q-29 0 -48 -17t-19 -40q0 -22 19 -38.5t48 -16.5h283q72 0 121 -44.5t49 -109.5q0 -64 -49.5 -110t-120.5 -46h-398q-20 0 -34.5 14.5t-14.5 35.5t14.5 35t34.5 14h398q29 0 49 17t20 40q0 22 -20 38.5
t-49 16.5h-283q-71 0 -118.5 45t-47.5 109q0 65 47.5 110t118.5 45z" />
    <glyph glyph-name="afii10071" horiz-adv-x="711" 
d="M166 520h282q68 0 117 -48.5t49 -117.5v-105q0 -21 -14.5 -35.5t-35.5 -14.5h-466v-33q0 -27 19.5 -47t47.5 -20h382q20 0 35 -14t15 -35t-15 -35.5t-35 -14.5h-381q-69 0 -117.5 48.5t-48.5 117.5v188q0 69 48.5 117.5t117.5 48.5zM98 355v-57h417v57q0 28 -19.5 47.5
t-47.5 19.5h-283q-28 0 -47.5 -19.5t-19.5 -47.5zM140 600v32q0 21 14.5 35.5t35.5 14.5q20 0 35 -14.5t15 -35.5v-32q0 -20 -15 -35t-35 -15q-21 0 -35.5 15t-14.5 35zM359 600v32q0 21 14.5 35.5t35.5 14.5t36 -14.5t15 -35.5v-32q0 -20 -15.5 -35t-35.5 -15
q-21 0 -35.5 15t-14.5 35z" />
    <glyph glyph-name="afii10023" horiz-adv-x="760" 
d="M627 103h-455q-28 0 -48 20.5t-20 48.5v184h511q21 0 36 15.5t15 36.5t-15 36t-36 15h-511v169q0 28 20 48t48 20h455q21 0 36 15.5t15 36.5q0 22 -15 37t-36 15h-455q-71 0 -121.5 -50.5t-50.5 -121.5v-456q0 -71 50.5 -121.5t121.5 -50.5h455q21 0 36.5 15.5t15.5 36.5
q0 20 -16 35.5t-36 15.5zM192 885v32q0 21 14.5 35.5t35.5 14.5q20 0 35 -14.5t15 -35.5v-32q0 -20 -15 -35t-35 -15q-21 0 -35.5 15t-14.5 35zM411 885v32q0 21 14.5 35.5t35.5 14.5t36 -14.5t15 -35.5v-32q0 -20 -15.5 -35t-35.5 -15q-21 0 -35.5 15t-14.5 35z" />
    <glyph glyph-name="afii10021" horiz-adv-x="955" 
d="M836 104q20 0 36.5 -17t16.5 -37q0 -21 -16 -35.5t-37 -14.5h-796q-22 0 -36 14.5t-14 35.5q0 20 14.5 37t35.5 17h53v523q0 72 50.5 123t123.5 51h467q20 0 36 -15.5t16 -36.5v-645h50zM199 104h485v593h-417q-29 0 -48.5 -20.5t-19.5 -49.5v-523z" />
    <glyph glyph-name="afii10105" horiz-adv-x="227" 
d="M130 471v-559q0 -69 -48.5 -118t-118.5 -49h-90q-21 0 -35.5 14.5t-14.5 35.5t14.5 36t35.5 15h90q28 0 47.5 19.5t19.5 46.5v559q0 21 14.5 35.5t35.5 14.5q20 0 35 -14.5t15 -35.5zM32 615v32q0 21 15 35.5t35 14.5q21 0 35.5 -14.5t14.5 -35.5v-32q0 -20 -14.5 -35
t-35.5 -15q-20 0 -35 15t-15 35z" />
    </font>
</defs>
</svg>
